<svg xmlns="http://www.w3.org/2000/svg" xmlns:xlink="http://www.w3.org/1999/xlink" contentStyleType="text/css" data-diagram-type="JSON" height="118px" preserveAspectRatio="none" style="width:568px;height:118px;background:#FFFFFF;" version="1.1" viewBox="0 0 568 118" width="568px" zoomAndPan="magnify"><defs/><g><rect fill="#F1F1F1" height="21.6094" rx="5" ry="5" style="stroke:#F1F1F1;stroke-width:1.5;" width="100.917" x="10" y="42.2188"/><text fill="#000000" font-family="sans-serif" font-size="14" font-weight="bold" lengthAdjust="spacing" textLength="69.248" x="15" y="58.752">Templates</text><text fill="#000000" font-family="sans-serif" font-size="14" lengthAdjust="spacing" textLength="11.6689" x="94.248" y="58.752">&#160;&#160;&#160;</text><line style="stroke:#000000;stroke-width:1;" x1="89.248" x2="89.248" y1="42.2188" y2="63.8281"/><rect fill="none" height="21.6094" rx="5" ry="5" style="stroke:#000000;stroke-width:1.5;" width="100.917" x="10" y="42.2188"/><rect fill="#F1F1F1" height="21.6094" rx="5" ry="5" style="stroke:#F1F1F1;stroke-width:1.5;" width="21.6689" x="148" y="42.2188"/><text fill="#000000" font-family="sans-serif" font-size="14" lengthAdjust="spacing" textLength="11.6689" x="153" y="58.752">&#160;&#160;&#160;</text><rect fill="none" height="21.6094" rx="5" ry="5" style="stroke:#000000;stroke-width:1.5;" width="21.6689" x="148" y="42.2188"/><rect fill="#F1F1F1" height="86.4375" rx="5" ry="5" style="stroke:#F1F1F1;stroke-width:1.5;" width="131.248" x="207" y="10"/><text fill="#000000" font-family="sans-serif" font-size="14" font-weight="bold" lengthAdjust="spacing" textLength="73.9033" x="212" y="26.5332">TemplateId</text><text fill="#000000" font-family="sans-serif" font-size="14" lengthAdjust="spacing" textLength="34.2344" x="299.0137" y="26.5332">string</text><line style="stroke:#000000;stroke-width:1;" x1="294.0137" x2="294.0137" y1="10" y2="31.6094"/><line style="stroke:#000000;stroke-width:1;" x1="207" x2="338.248" y1="31.6094" y2="31.6094"/><text fill="#000000" font-family="sans-serif" font-size="14" font-weight="bold" lengthAdjust="spacing" textLength="38.1309" x="212" y="48.1426">Name</text><text fill="#000000" font-family="sans-serif" font-size="14" lengthAdjust="spacing" textLength="34.2344" x="299.0137" y="48.1426">string</text><line style="stroke:#000000;stroke-width:1;" x1="294.0137" x2="294.0137" y1="31.6094" y2="53.2188"/><line style="stroke:#000000;stroke-width:1;" x1="207" x2="338.248" y1="53.2188" y2="53.2188"/><text fill="#000000" font-family="sans-serif" font-size="14" font-weight="bold" lengthAdjust="spacing" textLength="77.0137" x="212" y="69.752">Description</text><text fill="#000000" font-family="sans-serif" font-size="14" lengthAdjust="spacing" textLength="34.2344" x="299.0137" y="69.752">string</text><line style="stroke:#000000;stroke-width:1;" x1="294.0137" x2="294.0137" y1="53.2188" y2="74.8281"/><line style="stroke:#000000;stroke-width:1;" x1="207" x2="338.248" y1="74.8281" y2="74.8281"/><text fill="#000000" font-family="sans-serif" font-size="14" font-weight="bold" lengthAdjust="spacing" textLength="45.9102" x="212" y="91.3613">Details</text><text fill="#000000" font-family="sans-serif" font-size="14" lengthAdjust="spacing" textLength="11.6689" x="299.0137" y="91.3613">&#160;&#160;&#160;</text><line style="stroke:#000000;stroke-width:1;" x1="294.0137" x2="294.0137" y1="74.8281" y2="96.4375"/><rect fill="none" height="86.4375" rx="5" ry="5" style="stroke:#000000;stroke-width:1.5;" width="131.248" x="207" y="10"/><rect fill="#F1F1F1" height="21.6094" rx="5" ry="5" style="stroke:#F1F1F1;stroke-width:1.5;" width="21.6689" x="375" y="74.2188"/><text fill="#000000" font-family="sans-serif" font-size="14" lengthAdjust="spacing" textLength="11.6689" x="380" y="90.752">&#160;&#160;&#160;</text><rect fill="none" height="21.6094" rx="5" ry="5" style="stroke:#000000;stroke-width:1.5;" width="21.6689" x="375" y="74.2188"/><rect fill="#F1F1F1" height="43.2188" rx="5" ry="5" style="stroke:#F1F1F1;stroke-width:1.5;" width="122.7031" x="434" y="63.6094"/><text fill="#000000" font-family="sans-serif" font-size="14" font-weight="bold" lengthAdjust="spacing" textLength="25.6826" x="439" y="80.1426">Key</text><text fill="#000000" font-family="sans-serif" font-size="14" lengthAdjust="spacing" textLength="34.2344" x="481.6758" y="80.1426">string</text><line style="stroke:#000000;stroke-width:1;" x1="476.6758" x2="476.6758" y1="63.6094" y2="85.2188"/><line style="stroke:#000000;stroke-width:1;" x1="434" x2="556.7031" y1="85.2188" y2="85.2188"/><text fill="#000000" font-family="sans-serif" font-size="14" font-weight="bold" lengthAdjust="spacing" textLength="32.6758" x="439" y="101.752">Type</text><text fill="#000000" font-family="sans-serif" font-size="14" lengthAdjust="spacing" textLength="70.0273" x="481.6758" y="101.752">Text/Image</text><line style="stroke:#000000;stroke-width:1;" x1="476.6758" x2="476.6758" y1="85.2188" y2="106.8281"/><rect fill="none" height="43.2188" rx="5" ry="5" style="stroke:#000000;stroke-width:1.5;" width="122.7031" x="434" y="63.6094"/><path d="M384.7027,85.2188 L397.7027,85.2188 C405.12,85.2188 415.5336,85.2188 426.8091,85.2188" fill="none" style="stroke:#000000;stroke-width:1;stroke-dasharray:3,3;"/><path d="M426.8091,88.2233 L429.0625,85.2188 L426.8091,82.2142 L434.3204,85.2188 L426.8091,88.2233" fill="#000000"/><ellipse cx="384.7027" cy="85.2188" fill="#000000" rx="3" ry="3" style="stroke:#000000;stroke-width:1;"/><path d="M326,85.2188 L339,85.2188 C348.4213,85.2188 358.9164,85.2188 367.5483,85.2188" fill="none" style="stroke:#000000;stroke-width:1;stroke-dasharray:3,3;"/><path d="M367.5483,88.2624 L369.8311,85.2188 L367.5483,82.1751 L375.1575,85.2188 L367.5483,88.2624" fill="#000000"/><ellipse cx="326" cy="85.2188" fill="#000000" rx="3" ry="3" style="stroke:#000000;stroke-width:1;"/><path d="M157.6982,53.2188 L170.6982,53.2188 C178.0839,53.2188 188.4601,53.2188 199.7768,53.2188" fill="none" style="stroke:#000000;stroke-width:1;stroke-dasharray:3,3;"/><path d="M199.7768,56.239 L202.042,53.2188 L199.7768,50.1985 L207.3274,53.2188 L199.7768,56.239" fill="#000000"/><ellipse cx="157.6982" cy="53.2188" fill="#000000" rx="3" ry="3" style="stroke:#000000;stroke-width:1;"/><path d="M99,53.2188 L112,53.2188 C121.4213,53.2188 131.9164,53.2188 140.5483,53.2188" fill="none" style="stroke:#000000;stroke-width:1;stroke-dasharray:3,3;"/><path d="M140.5483,56.2624 L142.8311,53.2188 L140.5483,50.1751 L148.1575,53.2188 L140.5483,56.2624" fill="#000000"/><ellipse cx="99" cy="53.2188" fill="#000000" rx="3" ry="3" style="stroke:#000000;stroke-width:1;"/><!--SRC=[VP1DJy9048Rl-oicFK6YIAiWsHFX8mXIGspbOZYiT6pMjBlDxfH82F-TROsOHd5EEpFFxBpp3Yq9GnzMAtPWuCABCIyoGMWz3gzrgOh3-TM0vecZF4j6gjIxQZ9F8iVBtGdQhP45IQt-WqZ8hAdaRqNdaKVSN_plH_w-gAN5-4atyroawFq2ZutAfjbaJMh3Zco8AgbzPAjCA7e9bx13Ozrzu7U2Rj3htBT2bqHOG7S0Vf_t-lns0ACeXghTPgtPQWbMbsQBaCZgWhUoygVD5c8duBbK97FaK6MjE6n3DFqkmbJjfD4gHqLiiGw_87ZG51MQQhX_TpsIvDOR9mlM8PlWkoWpSgDRdJYpE8mBF-W5R2bKMZfFEA1YO-qsc3s7sUW4]--></g></svg>