<svg xmlns="http://www.w3.org/2000/svg" xmlns:xlink="http://www.w3.org/1999/xlink" contentStyleType="text/css" data-diagram-type="JSON" height="169px" preserveAspectRatio="none" style="width:632px;height:169px;background:#FFFFFF;" version="1.1" viewBox="0 0 632 169" width="632px" zoomAndPan="magnify"><defs/><g><rect fill="#F1F1F1" height="64.8281" rx="5" ry="5" style="stroke:#F1F1F1;stroke-width:1.5;" width="214.5098" x="10" y="56.7188"/><text fill="#000000" font-family="sans-serif" font-size="14" font-weight="bold" lengthAdjust="spacing" textLength="96.4551" x="15" y="73.252">Impersonating</text><text fill="#000000" font-family="sans-serif" font-size="14" lengthAdjust="spacing" textLength="11.6689" x="121.4551" y="73.252">&#160;&#160;&#160;</text><line style="stroke:#000000;stroke-width:1;" x1="116.4551" x2="116.4551" y1="56.7188" y2="78.3281"/><line style="stroke:#000000;stroke-width:1;" x1="10" x2="224.5098" y1="78.3281" y2="78.3281"/><text fill="#000000" font-family="sans-serif" font-size="14" font-weight="bold" lengthAdjust="spacing" textLength="40.4277" x="15" y="94.8613">Count</text><text fill="#000000" font-family="sans-serif" font-size="14" lengthAdjust="spacing" textLength="98.0547" x="121.4551" y="94.8613">string&lt;number&gt;</text><line style="stroke:#000000;stroke-width:1;" x1="116.4551" x2="116.4551" y1="78.3281" y2="99.9375"/><line style="stroke:#000000;stroke-width:1;" x1="10" x2="224.5098" y1="99.9375" y2="99.9375"/><text fill="#000000" font-family="sans-serif" font-size="14" font-weight="bold" lengthAdjust="spacing" textLength="63.0205" x="15" y="116.4707">Requests</text><text fill="#000000" font-family="sans-serif" font-size="14" lengthAdjust="spacing" textLength="11.6689" x="121.4551" y="116.4707">&#160;&#160;&#160;</text><line style="stroke:#000000;stroke-width:1;" x1="116.4551" x2="116.4551" y1="99.9375" y2="121.5469"/><rect fill="none" height="64.8281" rx="5" ry="5" style="stroke:#000000;stroke-width:1.5;" width="214.5098" x="10" y="56.7188"/><rect fill="#F1F1F1" height="86.4375" rx="5" ry="5" style="stroke:#F1F1F1;stroke-width:1.5;" width="133.627" x="262" y="10"/><text fill="#000000" font-family="sans-serif" font-size="14" font-weight="bold" lengthAdjust="spacing" textLength="12.4414" x="267" y="26.5332">id</text><text fill="#000000" font-family="sans-serif" font-size="14" lengthAdjust="spacing" textLength="77.0547" x="313.5723" y="26.5332">string&lt;uuid&gt;</text><line style="stroke:#000000;stroke-width:1;" x1="308.5723" x2="308.5723" y1="10" y2="31.6094"/><line style="stroke:#000000;stroke-width:1;" x1="262" x2="395.627" y1="31.6094" y2="31.6094"/><text fill="#000000" font-family="sans-serif" font-size="14" font-weight="bold" lengthAdjust="spacing" textLength="33.4346" x="267" y="48.1426">login</text><text fill="#000000" font-family="sans-serif" font-size="14" lengthAdjust="spacing" textLength="34.2344" x="313.5723" y="48.1426">string</text><line style="stroke:#000000;stroke-width:1;" x1="308.5723" x2="308.5723" y1="31.6094" y2="53.2188"/><line style="stroke:#000000;stroke-width:1;" x1="262" x2="395.627" y1="53.2188" y2="53.2188"/><text fill="#000000" font-family="sans-serif" font-size="14" font-weight="bold" lengthAdjust="spacing" textLength="36.5723" x="267" y="69.752">name</text><text fill="#000000" font-family="sans-serif" font-size="14" lengthAdjust="spacing" textLength="34.2344" x="313.5723" y="69.752">string</text><line style="stroke:#000000;stroke-width:1;" x1="308.5723" x2="308.5723" y1="53.2188" y2="74.8281"/><line style="stroke:#000000;stroke-width:1;" x1="262" x2="395.627" y1="74.8281" y2="74.8281"/><text fill="#000000" font-family="sans-serif" font-size="14" font-weight="bold" lengthAdjust="spacing" textLength="35.7998" x="267" y="91.3613">email</text><text fill="#000000" font-family="sans-serif" font-size="14" lengthAdjust="spacing" textLength="34.2344" x="313.5723" y="91.3613">string</text><line style="stroke:#000000;stroke-width:1;" x1="308.5723" x2="308.5723" y1="74.8281" y2="96.4375"/><rect fill="none" height="86.4375" rx="5" ry="5" style="stroke:#000000;stroke-width:1.5;" width="133.627" x="262" y="10"/><rect fill="#F1F1F1" height="21.6094" rx="5" ry="5" style="stroke:#F1F1F1;stroke-width:1.5;" width="21.6689" x="318" y="114.2188"/><text fill="#000000" font-family="sans-serif" font-size="14" lengthAdjust="spacing" textLength="11.6689" x="323" y="130.752">&#160;&#160;&#160;</text><rect fill="none" height="21.6094" rx="5" ry="5" style="stroke:#000000;stroke-width:1.5;" width="21.6689" x="318" y="114.2188"/><rect fill="#F1F1F1" height="64.8281" rx="5" ry="5" style="stroke:#F1F1F1;stroke-width:1.5;" width="187.2822" x="433" y="92.7188"/><text fill="#000000" font-family="sans-serif" font-size="14" font-weight="bold" lengthAdjust="spacing" textLength="12.4414" x="438" y="109.252">Id</text><text fill="#000000" font-family="sans-serif" font-size="14" lengthAdjust="spacing" textLength="34.2344" x="504.0137" y="109.252">string</text><line style="stroke:#000000;stroke-width:1;" x1="499.0137" x2="499.0137" y1="92.7188" y2="114.3281"/><line style="stroke:#000000;stroke-width:1;" x1="433" x2="620.2822" y1="114.3281" y2="114.3281"/><text fill="#000000" font-family="sans-serif" font-size="14" font-weight="bold" lengthAdjust="spacing" textLength="38.1035" x="438" y="130.8613">When</text><text fill="#000000" font-family="sans-serif" font-size="14" lengthAdjust="spacing" textLength="111.2686" x="504.0137" y="130.8613">string&lt;DateTime&gt;</text><line style="stroke:#000000;stroke-width:1;" x1="499.0137" x2="499.0137" y1="114.3281" y2="135.9375"/><line style="stroke:#000000;stroke-width:1;" x1="433" x2="620.2822" y1="135.9375" y2="135.9375"/><text fill="#000000" font-family="sans-serif" font-size="14" font-weight="bold" lengthAdjust="spacing" textLength="56.0137" x="438" y="152.4707">Sourced</text><text fill="#000000" font-family="sans-serif" font-size="14" lengthAdjust="spacing" textLength="38.9033" x="504.0137" y="152.4707">Ext/int</text><line style="stroke:#000000;stroke-width:1;" x1="499.0137" x2="499.0137" y1="135.9375" y2="157.5469"/><rect fill="none" height="64.8281" rx="5" ry="5" style="stroke:#000000;stroke-width:1.5;" width="187.2822" x="433" y="92.7188"/><path d="M213,67.2188 L226,67.2188 C235.2826,67.2188 244.9948,66.6481 254.585,65.7373" fill="none" style="stroke:#000000;stroke-width:1;stroke-dasharray:3,3;"/><path d="M254.9046,68.799 L256.8813,65.4976 L254.2654,62.6755 L262.2394,64.9382 L254.9046,68.799" fill="#000000"/><ellipse cx="213" cy="67.2188" fill="#000000" rx="3" ry="3" style="stroke:#000000;stroke-width:1;"/><path d="M327.6277,125.2188 L340.6277,125.2188 C357.5351,125.2188 391.356,125.2188 425.5346,125.2188" fill="none" style="stroke:#000000;stroke-width:1;stroke-dasharray:3,3;"/><path d="M425.5346,128.3203 L427.8607,125.2188 L425.5346,122.1172 L433.2883,125.2188 L425.5346,128.3203" fill="#000000"/><ellipse cx="327.6277" cy="125.2188" fill="#000000" rx="3" ry="3" style="stroke:#000000;stroke-width:1;"/><path d="M213,111.2188 L226,111.2188 C255.9924,111.2188 290.471,117.1759 310.8208,121.3184" fill="none" style="stroke:#000000;stroke-width:1;stroke-dasharray:3,3;"/><path d="M310.1854,124.3416 L313.0882,121.795 L311.4562,118.2952 L318.3787,122.9069 L310.1854,124.3416" fill="#000000"/><ellipse cx="213" cy="111.2188" fill="#000000" rx="3" ry="3" style="stroke:#000000;stroke-width:1;"/><!--SRC=[RP5RJm8n48NV-oicVO944LP1iY64S0bgs8ImY0_6XyBMjOQThjqfqHZ-kzrkkCJGfqw_qpcdqq51mj1deP7zCd2BFsQvDAuMf33b8LJ77gc4GmYy8EDGprgLzFdL2Mzrgf0V1US8HIOl4va9jJr3dkmh0HzfYtI2FRJPMfg3AL_8BoiBAifKhyUMfy3LUvABnfwzV4WyVz9Oa5ogJFR_2sDjpKRwJfDlkb4krL6mzxitjcS3YOaV9Pjl1T9pD8ETcwNI2Ar6q0pQZVjQv8fOvj3iGgiJjZlXRHU6yH9AN6UrwNm6XJU3H9MfrfRS_Jfx4Zi12pSE5o-4igejeph4ayCXJ72dZCPC8h6dLLI9u45Jd6louixTzL2HipSk5gmYDfRlmcx9NTten0qWX57U2je1cmbChKYTaqJcVy7yX30T_W40]--></g></svg>