<svg xmlns="http://www.w3.org/2000/svg" xmlns:xlink="http://www.w3.org/1999/xlink" contentStyleType="text/css" data-diagram-type="ACTIVITY" height="346px" preserveAspectRatio="none" style="width:303px;height:346px;background:#FFFFFF;" version="1.1" viewBox="0 0 303 346" width="303px" zoomAndPan="magnify"><defs/><g><rect fill="none" height="324.9844" style="stroke:#000000;stroke-width:1.5;" width="281.4473" x="11" y="11"/><path d="M67.6826,11 L67.6826,21.6094 L57.6826,31.6094 L11,31.6094" fill="none" style="stroke:#000000;stroke-width:1.5;"/><text fill="#000000" font-family="sans-serif" font-size="14" lengthAdjust="spacing" textLength="46.6826" x="14" y="26.5332">Service</text><ellipse cx="151.7236" cy="51.6094" fill="#222222" rx="10" ry="10" style="stroke:#222222;stroke-width:1;"/><rect fill="#F1F1F1" height="35.0938" rx="12.5" ry="12.5" style="stroke:#181818;stroke-width:0.5;" width="136.0566" x="83.6953" y="81.6094"/><text fill="#000000" font-family="sans-serif" font-size="12" lengthAdjust="spacing" textLength="116.0566" x="93.6953" y="104.0664">Get Template request</text><rect fill="#F1F1F1" height="35.0938" rx="12.5" ry="12.5" style="stroke:#181818;stroke-width:0.5;" width="169.373" x="67.0371" y="136.7031"/><text fill="#000000" font-family="sans-serif" font-size="12" lengthAdjust="spacing" textLength="149.373" x="77.0371" y="159.1602">Get Templates from Frontify</text><rect fill="#F1F1F1" height="35.0938" rx="12.5" ry="12.5" style="stroke:#181818;stroke-width:0.5;" width="261.4473" x="21" y="191.7969"/><text fill="#000000" font-family="sans-serif" font-size="12" lengthAdjust="spacing" textLength="241.4473" x="31" y="214.2539">Filter Templates by Auto Generation indicator</text><rect fill="#F1F1F1" height="35.0938" rx="12.5" ry="12.5" style="stroke:#181818;stroke-width:0.5;" width="131.3809" x="86.0332" y="246.8906"/><text fill="#000000" font-family="sans-serif" font-size="12" lengthAdjust="spacing" textLength="111.3809" x="96.0332" y="269.3477">Return Template List</text><ellipse cx="151.7236" cy="312.9844" fill="none" rx="11" ry="11" style="stroke:#222222;stroke-width:1;"/><ellipse cx="151.7236" cy="312.9844" fill="#222222" rx="6" ry="6" style="stroke:#222222;stroke-width:1;"/><line style="stroke:#181818;stroke-width:1;" x1="151.7236" x2="151.7236" y1="61.6094" y2="81.6094"/><polygon fill="#181818" points="147.7236,71.6094,151.7236,81.6094,155.7236,71.6094,151.7236,75.6094" style="stroke:#181818;stroke-width:1;"/><line style="stroke:#181818;stroke-width:1;" x1="151.7236" x2="151.7236" y1="116.7031" y2="136.7031"/><polygon fill="#181818" points="147.7236,126.7031,151.7236,136.7031,155.7236,126.7031,151.7236,130.7031" style="stroke:#181818;stroke-width:1;"/><line style="stroke:#181818;stroke-width:1;" x1="151.7236" x2="151.7236" y1="171.7969" y2="191.7969"/><polygon fill="#181818" points="147.7236,181.7969,151.7236,191.7969,155.7236,181.7969,151.7236,185.7969" style="stroke:#181818;stroke-width:1;"/><line style="stroke:#181818;stroke-width:1;" x1="151.7236" x2="151.7236" y1="226.8906" y2="246.8906"/><polygon fill="#181818" points="147.7236,236.8906,151.7236,246.8906,155.7236,236.8906,151.7236,240.8906" style="stroke:#181818;stroke-width:1;"/><line style="stroke:#181818;stroke-width:1;" x1="151.7236" x2="151.7236" y1="281.9844" y2="301.9844"/><polygon fill="#181818" points="147.7236,291.9844,151.7236,301.9844,155.7236,291.9844,151.7236,295.9844" style="stroke:#181818;stroke-width:1;"/><!--SRC=[POun3i9040FxlCBlW8g2N4C5VE18Dj9AoUwnvqFAxm4H2IGg5nvhdC9RmKNYeODqG6KElXBO9I6kifGvKn1oRrAv_wygfl05VRXHftKZUfqfyGFTLXmQ7KbC8bFTe3RgaEcnRSx25lPrdlGZhFJI7MrCxw_T4m00]--></g></svg>