<svg xmlns="http://www.w3.org/2000/svg" xmlns:xlink="http://www.w3.org/1999/xlink" contentStyleType="text/css" data-diagram-type="SEQUENCE" height="885px" preserveAspectRatio="none" style="width:731px;height:885px;background:#FFFFFF;" version="1.1" viewBox="0 0 731 885" width="731px" zoomAndPan="magnify"><defs/><g><g><title>Hub</title><rect fill="#FFD700" height="65.7031" style="stroke:#181818;stroke-width:1;" width="10" x="84.0093" y="288.3672"/></g><g><title>Hub</title><rect fill="#FFD700" height="60.7031" style="stroke:#181818;stroke-width:1;" width="10" x="84.0093" y="626.8828"/></g><g><title>Hub</title><rect fill="#FFD700" height="67.3516" style="stroke:#181818;stroke-width:1;" width="10" x="84.0093" y="729.5859"/></g><g><title>Service Bus</title><rect fill="#FFD700" height="303.1641" style="stroke:#181818;stroke-width:1;" width="10" x="364.2944" y="323.7188"/></g><g><title>Service</title><rect fill="#FFD700" height="102.7031" style="stroke:#181818;stroke-width:1;" width="10" x="451.9839" y="140.3125"/></g><g><title>Service</title><rect fill="#FFD700" height="212.1094" style="stroke:#181818;stroke-width:1;" width="10" x="451.9839" y="384.4219"/></g><g><title>Document Manager</title><rect fill="#FFD700" height="30.3516" style="stroke:#181818;stroke-width:1;" width="10" x="560.8008" y="535.8281"/></g><g><title>Document Manager</title><rect fill="#FFD700" height="14" style="stroke:#181818;stroke-width:1;" width="10" x="560.8008" y="759.9375"/></g><g><title>Frontify</title><rect fill="#FFD700" height="14" style="stroke:#181818;stroke-width:1;" width="10" x="669.6143" y="170.6641"/></g><g><title>Frontify</title><rect fill="#FFD700" height="14" style="stroke:#181818;stroke-width:1;" width="10" x="669.6143" y="215.0156"/></g><g><title>Frontify</title><rect fill="#FFD700" height="14" style="stroke:#181818;stroke-width:1;" width="10" x="669.6143" y="440.125"/></g><g><title>Frontify</title><rect fill="#FFD700" height="14" style="stroke:#181818;stroke-width:1;" width="10" x="669.6143" y="491.4766"/></g><rect fill="none" height="151.4063" style="stroke:#000000;stroke-width:1.5;" width="655.7842" x="59.168" y="99.6094"/><rect fill="none" height="62.7031" style="stroke:#000000;stroke-width:1.5;" width="298.3096" x="416.6426" y="399.4219"/><g><title>User</title><rect fill="#000000" fill-opacity="0.00000" height="737.3281" width="8" x="22.7793" y="68.6094"/><line style="stroke:#181818;stroke-width:0.5;stroke-dasharray:5,5;" x1="26" x2="26" y1="68.6094" y2="805.9375"/></g><g><title>Hub</title><rect fill="#000000" fill-opacity="0.00000" height="737.3281" width="8" x="85.0093" y="68.6094"/><line style="stroke:#181818;stroke-width:0.5;stroke-dasharray:5,5;" x1="88.168" x2="88.168" y1="68.6094" y2="805.9375"/></g><g><title>HubDB</title><rect fill="#000000" fill-opacity="0.00000" height="737.3281" width="8" x="282.3809" y="68.6094"/><line style="stroke:#181818;stroke-width:0.5;stroke-dasharray:5,5;" x1="285.8154" x2="285.8154" y1="68.6094" y2="805.9375"/></g><g><title>Service Bus</title><rect fill="#000000" fill-opacity="0.00000" height="737.3281" width="8" x="365.2944" y="68.6094"/><line style="stroke:#181818;stroke-width:0.5;stroke-dasharray:5,5;" x1="368.9463" x2="368.9463" y1="68.6094" y2="805.9375"/></g><g><title>Service</title><rect fill="#000000" fill-opacity="0.00000" height="737.3281" width="8" x="452.9839" y="68.6094"/><line style="stroke:#181818;stroke-width:0.5;stroke-dasharray:5,5;" x1="456.6426" x2="456.6426" y1="68.6094" y2="805.9375"/></g><g><title>Document Manager</title><rect fill="#000000" fill-opacity="0.00000" height="737.3281" width="8" x="561.8008" y="68.6094"/><line style="stroke:#181818;stroke-width:0.5;stroke-dasharray:5,5;" x1="565.3252" x2="565.3252" y1="68.6094" y2="805.9375"/></g><g><title>Frontify</title><rect fill="#000000" fill-opacity="0.00000" height="737.3281" width="8" x="670.6143" y="68.6094"/><line style="stroke:#181818;stroke-width:0.5;stroke-dasharray:5,5;" x1="674.2764" x2="674.2764" y1="68.6094" y2="805.9375"/></g><g class="participant participant-head" data-participant="user"><rect fill="#E2E2F0" height="31.6094" rx="2.5" ry="2.5" style="stroke:#181818;stroke-width:0.5;" width="43.5586" x="5" y="36"/><text fill="#000000" font-family="sans-serif" font-size="14" lengthAdjust="spacing" textLength="29.5586" x="12" y="57.5332">User</text></g><g class="participant participant-tail" data-participant="user"><rect fill="#E2E2F0" height="31.6094" rx="2.5" ry="2.5" style="stroke:#181818;stroke-width:0.5;" width="43.5586" x="5" y="804.9375"/><text fill="#000000" font-family="sans-serif" font-size="14" lengthAdjust="spacing" textLength="29.5586" x="12" y="826.4707">User</text></g><g class="participant participant-head" data-participant="hub"><rect fill="#E2E2F0" height="31.6094" rx="2.5" ry="2.5" style="stroke:#181818;stroke-width:0.5;" width="39.6826" x="69.168" y="36"/><text fill="#000000" font-family="sans-serif" font-size="14" lengthAdjust="spacing" textLength="25.6826" x="76.168" y="57.5332">Hub</text></g><g class="participant participant-tail" data-participant="hub"><rect fill="#E2E2F0" height="31.6094" rx="2.5" ry="2.5" style="stroke:#181818;stroke-width:0.5;" width="39.6826" x="69.168" y="804.9375"/><text fill="#000000" font-family="sans-serif" font-size="14" lengthAdjust="spacing" textLength="25.6826" x="76.168" y="826.4707">Hub</text></g><g class="participant participant-head" data-participant="db"><text fill="#000000" font-family="sans-serif" font-size="14" lengthAdjust="spacing" textLength="45.1309" x="260.8154" y="65.5332">HubDB</text><path d="M268.3809,15 C268.3809,5 286.3809,5 286.3809,5 C286.3809,5 304.3809,5 304.3809,15 L304.3809,41 C304.3809,51 286.3809,51 286.3809,51 C286.3809,51 268.3809,51 268.3809,41 L268.3809,15" fill="#E2E2F0" style="stroke:#181818;stroke-width:0.5;"/><path d="M268.3809,15 C268.3809,25 286.3809,25 286.3809,25 C286.3809,25 304.3809,25 304.3809,15" fill="none" style="stroke:#181818;stroke-width:0.5;"/></g><g class="participant participant-tail" data-participant="db"><text fill="#000000" font-family="sans-serif" font-size="14" lengthAdjust="spacing" textLength="45.1309" x="260.8154" y="819.4707">HubDB</text><path d="M268.3809,832.5469 C268.3809,822.5469 286.3809,822.5469 286.3809,822.5469 C286.3809,822.5469 304.3809,822.5469 304.3809,832.5469 L304.3809,858.5469 C304.3809,868.5469 286.3809,868.5469 286.3809,868.5469 C286.3809,868.5469 268.3809,868.5469 268.3809,858.5469 L268.3809,832.5469" fill="#E2E2F0" style="stroke:#181818;stroke-width:0.5;"/><path d="M268.3809,832.5469 C268.3809,842.5469 286.3809,842.5469 286.3809,842.5469 C286.3809,842.5469 304.3809,842.5469 304.3809,832.5469" fill="none" style="stroke:#181818;stroke-width:0.5;"/></g><g class="participant participant-head" data-participant="que"><path d="M326.9463,41 L411.6426,41 C416.6426,41 416.6426,54.8047 416.6426,54.8047 C416.6426,54.8047 416.6426,68.6094 411.6426,68.6094 L326.9463,68.6094 C321.9463,68.6094 321.9463,54.8047 321.9463,54.8047 C321.9463,54.8047 321.9463,41 326.9463,41" fill="#E2E2F0" style="stroke:#181818;stroke-width:0.5;"/><path d="M411.6426,41 C406.6426,41 406.6426,54.8047 406.6426,54.8047 C406.6426,68.6094 411.6426,68.6094 411.6426,68.6094" fill="none" style="stroke:#181818;stroke-width:0.5;"/><text fill="#000000" font-family="sans-serif" font-size="14" lengthAdjust="spacing" textLength="74.6963" x="326.9463" y="60.5332">Service Bus</text></g><g class="participant participant-tail" data-participant="que"><path d="M326.9463,804.9375 L411.6426,804.9375 C416.6426,804.9375 416.6426,818.7422 416.6426,818.7422 C416.6426,818.7422 416.6426,832.5469 411.6426,832.5469 L326.9463,832.5469 C321.9463,832.5469 321.9463,818.7422 321.9463,818.7422 C321.9463,818.7422 321.9463,804.9375 326.9463,804.9375" fill="#E2E2F0" style="stroke:#181818;stroke-width:0.5;"/><path d="M411.6426,804.9375 C406.6426,804.9375 406.6426,818.7422 406.6426,818.7422 C406.6426,832.5469 411.6426,832.5469 411.6426,832.5469" fill="none" style="stroke:#181818;stroke-width:0.5;"/><text fill="#000000" font-family="sans-serif" font-size="14" lengthAdjust="spacing" textLength="74.6963" x="326.9463" y="824.4707">Service Bus</text></g><g class="participant participant-head" data-participant="svc"><rect fill="#E2E2F0" height="31.6094" rx="2.5" ry="2.5" style="stroke:#181818;stroke-width:0.5;" width="60.6826" x="426.6426" y="36"/><text fill="#000000" font-family="sans-serif" font-size="14" lengthAdjust="spacing" textLength="46.6826" x="433.6426" y="57.5332">Service</text></g><g class="participant participant-tail" data-participant="svc"><rect fill="#E2E2F0" height="31.6094" rx="2.5" ry="2.5" style="stroke:#181818;stroke-width:0.5;" width="60.6826" x="426.6426" y="804.9375"/><text fill="#000000" font-family="sans-serif" font-size="14" lengthAdjust="spacing" textLength="46.6826" x="433.6426" y="826.4707">Service</text></g><g class="participant participant-head" data-participant="dm"><rect fill="#E2E2F0" height="31.6094" rx="2.5" ry="2.5" style="stroke:#181818;stroke-width:0.5;" width="136.9512" x="497.3252" y="36"/><text fill="#000000" font-family="sans-serif" font-size="14" lengthAdjust="spacing" textLength="122.9512" x="504.3252" y="57.5332">Document Manager</text></g><g class="participant participant-tail" data-participant="dm"><rect fill="#E2E2F0" height="31.6094" rx="2.5" ry="2.5" style="stroke:#181818;stroke-width:0.5;" width="136.9512" x="497.3252" y="804.9375"/><text fill="#000000" font-family="sans-serif" font-size="14" lengthAdjust="spacing" textLength="122.9512" x="504.3252" y="826.4707">Document Manager</text></g><g class="participant participant-head" data-participant="fnt"><rect fill="#E2E2F0" height="31.6094" rx="2.5" ry="2.5" style="stroke:#181818;stroke-width:0.5;" width="60.6758" x="644.2764" y="36"/><text fill="#000000" font-family="sans-serif" font-size="14" lengthAdjust="spacing" textLength="46.6758" x="651.2764" y="57.5332">Frontify</text></g><g class="participant participant-tail" data-participant="fnt"><rect fill="#E2E2F0" height="31.6094" rx="2.5" ry="2.5" style="stroke:#181818;stroke-width:0.5;" width="60.6758" x="644.2764" y="804.9375"/><text fill="#000000" font-family="sans-serif" font-size="14" lengthAdjust="spacing" textLength="46.6758" x="651.2764" y="826.4707">Frontify</text></g><g><title>Hub</title><rect fill="#FFD700" height="65.7031" style="stroke:#181818;stroke-width:1;" width="10" x="84.0093" y="288.3672"/></g><g><title>Hub</title><rect fill="#FFD700" height="60.7031" style="stroke:#181818;stroke-width:1;" width="10" x="84.0093" y="626.8828"/></g><g><title>Hub</title><rect fill="#FFD700" height="67.3516" style="stroke:#181818;stroke-width:1;" width="10" x="84.0093" y="729.5859"/></g><g><title>Service Bus</title><rect fill="#FFD700" height="303.1641" style="stroke:#181818;stroke-width:1;" width="10" x="364.2944" y="323.7188"/></g><g><title>Service</title><rect fill="#FFD700" height="102.7031" style="stroke:#181818;stroke-width:1;" width="10" x="451.9839" y="140.3125"/></g><g><title>Service</title><rect fill="#FFD700" height="212.1094" style="stroke:#181818;stroke-width:1;" width="10" x="451.9839" y="384.4219"/></g><g><title>Document Manager</title><rect fill="#FFD700" height="30.3516" style="stroke:#181818;stroke-width:1;" width="10" x="560.8008" y="535.8281"/></g><g><title>Document Manager</title><rect fill="#FFD700" height="14" style="stroke:#181818;stroke-width:1;" width="10" x="560.8008" y="759.9375"/></g><g><title>Frontify</title><rect fill="#FFD700" height="14" style="stroke:#181818;stroke-width:1;" width="10" x="669.6143" y="170.6641"/></g><g><title>Frontify</title><rect fill="#FFD700" height="14" style="stroke:#181818;stroke-width:1;" width="10" x="669.6143" y="215.0156"/></g><g><title>Frontify</title><rect fill="#FFD700" height="14" style="stroke:#181818;stroke-width:1;" width="10" x="669.6143" y="440.125"/></g><g><title>Frontify</title><rect fill="#FFD700" height="14" style="stroke:#181818;stroke-width:1;" width="10" x="669.6143" y="491.4766"/></g><g class="message" data-participant-1="user" data-participant-2="hub"><polygon fill="#181818" points="77.0093,80.6094,87.0093,84.6094,77.0093,88.6094,81.0093,84.6094" style="stroke:#181818;stroke-width:1;"/><line style="stroke:#181818;stroke-width:1;" x1="26.7793" x2="83.0093" y1="84.6094" y2="84.6094"/></g><path d="M59.168,99.6094 L168.4697,99.6094 L168.4697,107.9609 L158.4697,117.9609 L59.168,117.9609 L59.168,99.6094" fill="#EEEEEE" style="stroke:#000000;stroke-width:1.5;"/><rect fill="none" height="151.4063" style="stroke:#000000;stroke-width:1.5;" width="655.7842" x="59.168" y="99.6094"/><text fill="#000000" font-family="sans-serif" font-size="13" font-weight="bold" lengthAdjust="spacing" textLength="64.3018" x="74.168" y="114.1045">Templates</text><g class="message" data-participant-1="hub" data-participant-2="svc"><polygon fill="#181818" points="439.9839,136.3125,449.9839,140.3125,439.9839,144.3125,443.9839,140.3125" style="stroke:#181818;stroke-width:1;"/><line style="stroke:#181818;stroke-width:1;" x1="89.0093" x2="445.9839" y1="140.3125" y2="140.3125"/><text fill="#000000" font-family="sans-serif" font-size="13" lengthAdjust="spacing" textLength="85.2554" x="96.0093" y="135.4561">Get Templates</text></g><g class="message" data-participant-1="svc" data-participant-2="fnt"><polygon fill="#181818" points="657.6143,166.6641,667.6143,170.6641,657.6143,174.6641,661.6143,170.6641" style="stroke:#181818;stroke-width:1;"/><line style="stroke:#181818;stroke-width:1;" x1="461.9839" x2="663.6143" y1="170.6641" y2="170.6641"/><text fill="#000000" font-family="sans-serif" font-size="13" lengthAdjust="spacing" textLength="85.2554" x="468.9839" y="165.8076">Get Templates</text></g><g class="message" data-participant-1="fnt" data-participant-2="svc"><polygon fill="#181818" points="472.9839,180.6641,462.9839,184.6641,472.9839,188.6641,468.9839,184.6641" style="stroke:#181818;stroke-width:1;"/><line style="stroke:#181818;stroke-width:1;stroke-dasharray:2,2;" x1="466.9839" x2="673.6143" y1="184.6641" y2="184.6641"/></g><g class="message" data-participant-1="svc" data-participant-2="fnt"><polygon fill="#181818" points="657.6143,211.0156,667.6143,215.0156,657.6143,219.0156,661.6143,215.0156" style="stroke:#181818;stroke-width:1;"/><line style="stroke:#181818;stroke-width:1;" x1="461.9839" x2="663.6143" y1="215.0156" y2="215.0156"/><text fill="#000000" font-family="sans-serif" font-size="13" lengthAdjust="spacing" textLength="122.1035" x="468.9839" y="210.1592">Get Template Details</text></g><g class="message" data-participant-1="fnt" data-participant-2="svc"><polygon fill="#181818" points="472.9839,225.0156,462.9839,229.0156,472.9839,233.0156,468.9839,229.0156" style="stroke:#181818;stroke-width:1;"/><line style="stroke:#181818;stroke-width:1;stroke-dasharray:2,2;" x1="466.9839" x2="673.6143" y1="229.0156" y2="229.0156"/></g><g class="message" data-participant-1="svc" data-participant-2="hub"><polygon fill="#181818" points="100.0093,239.0156,90.0093,243.0156,100.0093,247.0156,96.0093,243.0156" style="stroke:#181818;stroke-width:1;"/><line style="stroke:#181818;stroke-width:1;stroke-dasharray:2,2;" x1="94.0093" x2="455.9839" y1="243.0156" y2="243.0156"/></g><g class="message" data-participant-1="hub" data-participant-2="hub"><line style="stroke:#181818;stroke-width:1;" x1="89.0093" x2="136.0093" y1="275.3672" y2="275.3672"/><line style="stroke:#181818;stroke-width:1;" x1="136.0093" x2="136.0093" y1="275.3672" y2="288.3672"/><line style="stroke:#181818;stroke-width:1;" x1="95.0093" x2="136.0093" y1="288.3672" y2="288.3672"/><polygon fill="#181818" points="105.0093,284.3672,95.0093,288.3672,105.0093,292.3672,101.0093,288.3672" style="stroke:#181818;stroke-width:1;"/><text fill="#000000" font-family="sans-serif" font-size="13" lengthAdjust="spacing" textLength="146.688" x="101.0093" y="270.5107">Prepare Text and Images</text></g><g class="message" data-participant-1="hub" data-participant-2="que"><polygon fill="#181818" points="352.2944,319.7188,362.2944,323.7188,352.2944,327.7188,356.2944,323.7188" style="stroke:#181818;stroke-width:1;"/><line style="stroke:#181818;stroke-width:1;" x1="94.0093" x2="358.2944" y1="323.7188" y2="323.7188"/><text fill="#000000" font-family="sans-serif" font-size="13" lengthAdjust="spacing" textLength="149.5635" x="101.0093" y="318.8623">Publish Brochure Artifacts</text></g><g class="message" data-participant-1="hub" data-participant-2="user"><polygon fill="#181818" points="37.7793,350.0703,27.7793,354.0703,37.7793,358.0703,33.7793,354.0703" style="stroke:#181818;stroke-width:1;"/><line style="stroke:#181818;stroke-width:1;stroke-dasharray:2,2;" x1="31.7793" x2="88.0093" y1="354.0703" y2="354.0703"/><text fill="#000000" font-family="sans-serif" font-size="13" lengthAdjust="spacing" textLength="28.9199" x="43.7793" y="349.2139">done</text></g><g class="message" data-participant-1="que" data-participant-2="svc"><polygon fill="#181818" points="439.9839,380.4219,449.9839,384.4219,439.9839,388.4219,443.9839,384.4219" style="stroke:#181818;stroke-width:1;"/><line style="stroke:#181818;stroke-width:1;" x1="374.2944" x2="445.9839" y1="384.4219" y2="384.4219"/><text fill="#000000" font-family="sans-serif" font-size="13" lengthAdjust="spacing" textLength="57.8081" x="381.2944" y="379.5654">Subscribe</text></g><path d="M416.6426,399.4219 L489.0771,399.4219 L489.0771,407.7734 L479.0771,417.7734 L416.6426,417.7734 L416.6426,399.4219" fill="#EEEEEE" style="stroke:#000000;stroke-width:1.5;"/><rect fill="none" height="62.7031" style="stroke:#000000;stroke-width:1.5;" width="298.3096" x="416.6426" y="399.4219"/><text fill="#000000" font-family="sans-serif" font-size="13" font-weight="bold" lengthAdjust="spacing" textLength="27.4346" x="431.6426" y="413.917">loop</text><g class="message" data-participant-1="svc" data-participant-2="fnt"><polygon fill="#181818" points="657.6143,436.125,667.6143,440.125,657.6143,444.125,661.6143,440.125" style="stroke:#181818;stroke-width:1;"/><line style="stroke:#181818;stroke-width:1;" x1="461.9839" x2="663.6143" y1="440.125" y2="440.125"/><text fill="#000000" font-family="sans-serif" font-size="13" lengthAdjust="spacing" textLength="78.0444" x="468.9839" y="435.2686">Load artifacts</text></g><g class="message" data-participant-1="fnt" data-participant-2="svc"><polygon fill="#181818" points="472.9839,450.125,462.9839,454.125,472.9839,458.125,468.9839,454.125" style="stroke:#181818;stroke-width:1;"/><line style="stroke:#181818;stroke-width:1;stroke-dasharray:2,2;" x1="466.9839" x2="673.6143" y1="454.125" y2="454.125"/></g><g class="message" data-participant-1="svc" data-participant-2="fnt"><polygon fill="#181818" points="657.6143,487.4766,667.6143,491.4766,657.6143,495.4766,661.6143,491.4766" style="stroke:#181818;stroke-width:1;"/><line style="stroke:#181818;stroke-width:1;" x1="461.9839" x2="663.6143" y1="491.4766" y2="491.4766"/><text fill="#000000" font-family="sans-serif" font-size="13" lengthAdjust="spacing" textLength="110.5635" x="468.9839" y="486.6201">Generate Brochure</text></g><g class="message" data-participant-1="fnt" data-participant-2="svc"><polygon fill="#181818" points="472.9839,501.4766,462.9839,505.4766,472.9839,509.4766,468.9839,505.4766" style="stroke:#181818;stroke-width:1;"/><line style="stroke:#181818;stroke-width:1;stroke-dasharray:2,2;" x1="466.9839" x2="673.6143" y1="505.4766" y2="505.4766"/></g><g class="message" data-participant-1="svc" data-participant-2="dm"><polygon fill="#181818" points="548.8008,531.8281,558.8008,535.8281,548.8008,539.8281,552.8008,535.8281" style="stroke:#181818;stroke-width:1;"/><line style="stroke:#181818;stroke-width:1;" x1="461.9839" x2="554.8008" y1="535.8281" y2="535.8281"/><text fill="#000000" font-family="sans-serif" font-size="13" lengthAdjust="spacing" textLength="31.0718" x="468.9839" y="530.9717">Store</text></g><g class="message" data-participant-1="dm" data-participant-2="svc"><polygon fill="#181818" points="472.9839,562.1797,462.9839,566.1797,472.9839,570.1797,468.9839,566.1797" style="stroke:#181818;stroke-width:1;"/><line style="stroke:#181818;stroke-width:1;stroke-dasharray:2,2;" x1="466.9839" x2="564.8008" y1="566.1797" y2="566.1797"/><text fill="#000000" font-family="sans-serif" font-size="13" lengthAdjust="spacing" textLength="36.8608" x="478.9839" y="561.3232">Saved</text></g><g class="message" data-participant-1="svc" data-participant-2="que"><polygon fill="#181818" points="385.2944,592.5313,375.2944,596.5313,385.2944,600.5313,381.2944,596.5313" style="stroke:#181818;stroke-width:1;"/><line style="stroke:#181818;stroke-width:1;" x1="379.2944" x2="455.9839" y1="596.5313" y2="596.5313"/><text fill="#000000" font-family="sans-serif" font-size="13" lengthAdjust="spacing" textLength="42.6372" x="391.2944" y="591.6748">Publish</text></g><g class="message" data-participant-1="que" data-participant-2="hub"><polygon fill="#181818" points="105.0093,622.8828,95.0093,626.8828,105.0093,630.8828,101.0093,626.8828" style="stroke:#181818;stroke-width:1;"/><line style="stroke:#181818;stroke-width:1;" x1="99.0093" x2="368.2944" y1="626.8828" y2="626.8828"/><text fill="#000000" font-family="sans-serif" font-size="13" lengthAdjust="spacing" textLength="171.9834" x="111.0093" y="622.0264">Subscribe Brochure Metadata</text></g><g class="message" data-participant-1="hub" data-participant-2="db"><polygon fill="#181818" points="274.3809,653.2344,284.3809,657.2344,274.3809,661.2344,278.3809,657.2344" style="stroke:#181818;stroke-width:1;"/><line style="stroke:#181818;stroke-width:1;" x1="94.0093" x2="280.3809" y1="657.2344" y2="657.2344"/><text fill="#000000" font-family="sans-serif" font-size="13" lengthAdjust="spacing" textLength="168.3716" x="101.0093" y="652.3779">Add Brochure to attachments</text></g><g class="message" data-participant-1="hub" data-participant-2="user"><polygon fill="#181818" points="37.7793,683.5859,27.7793,687.5859,37.7793,691.5859,33.7793,687.5859" style="stroke:#181818;stroke-width:1;"/><line style="stroke:#181818;stroke-width:1;stroke-dasharray:2,2;" x1="31.7793" x2="88.0093" y1="687.5859" y2="687.5859"/><text fill="#000000" font-family="sans-serif" font-size="13" lengthAdjust="spacing" textLength="33.23" x="43.7793" y="682.7295">Notify</text></g><rect fill="#EEEEEE" height="3" style="stroke:#EEEEEE;stroke-width:1;" width="724.9521" x="0" y="708.5859"/><line style="stroke:#000000;stroke-width:1;" x1="0" x2="724.9521" y1="708.5859" y2="708.5859"/><line style="stroke:#000000;stroke-width:1;" x1="0" x2="724.9521" y1="711.5859" y2="711.5859"/><g class="message" data-participant-1="user" data-participant-2="hub"><polygon fill="#181818" points="72.0093,725.5859,82.0093,729.5859,72.0093,733.5859,76.0093,729.5859" style="stroke:#181818;stroke-width:1;"/><line style="stroke:#181818;stroke-width:1;" x1="26.7793" x2="78.0093" y1="729.5859" y2="729.5859"/></g><g class="message" data-participant-1="hub" data-participant-2="dm"><polygon fill="#181818" points="548.8008,755.9375,558.8008,759.9375,548.8008,763.9375,552.8008,759.9375" style="stroke:#181818;stroke-width:1;"/><line style="stroke:#181818;stroke-width:1;" x1="94.0093" x2="554.8008" y1="759.9375" y2="759.9375"/><text fill="#000000" font-family="sans-serif" font-size="13" lengthAdjust="spacing" textLength="98.2617" x="101.0093" y="755.0811">Access Brochure</text></g><g class="message" data-participant-1="dm" data-participant-2="hub"><polygon fill="#181818" points="105.0093,769.9375,95.0093,773.9375,105.0093,777.9375,101.0093,773.9375" style="stroke:#181818;stroke-width:1;"/><line style="stroke:#181818;stroke-width:1;stroke-dasharray:2,2;" x1="99.0093" x2="564.8008" y1="773.9375" y2="773.9375"/></g><g class="message" data-participant-1="hub" data-participant-2="user"><polygon fill="#181818" points="37.7793,783.9375,27.7793,787.9375,37.7793,791.9375,33.7793,787.9375" style="stroke:#181818;stroke-width:1;"/><line style="stroke:#181818;stroke-width:1;stroke-dasharray:2,2;" x1="31.7793" x2="83.0093" y1="787.9375" y2="787.9375"/></g><!--SRC=[XLDPJiCm4FttAKRbiye5Aa1gLR58524L3Z2nfqsa90vUAhWzCzdJ5l1FadcBPvwT6bt8TLvZ5U33amFq4FcfwWdm55EfPp5L1WEcw4bgsurKJQe-8qM2nPxSATS4c-WNWd1vPjFZ3FcJda6BhTMn97xROOL7Ses1AMUa1sUha1- -1JfKGIbf599xQGpKqTbOmpkLTO61l98YOxmJB9TmSxI5MS4ZXGb5CAQmrwyKmPBE9ad-Ly2M0kR5TM7NAdzIPLJVeJn6ipT7F3EnuLS0h0mybvo77zWSAWnqO7vCYzndi75MPv65QmxiW3fuQ2MiQNDALiPMf1Jm4fUBSFOnzThbAQd2shhXoRewyuj50zXlDN3FffOn_x01oQuY9xdr_VzYnTHp9rDEUmzsecLeb3A89seRwQJD-CaGNXFKRTALhmGofhlZuvL_e3yEat9dQsD6Hh208Q3Ev3hxYpE0LojtMAaxNlCht6yyU4y7N6jDteynTIEszglvMQiV]--></g></svg>