<svg xmlns="http://www.w3.org/2000/svg" xmlns:xlink="http://www.w3.org/1999/xlink" contentStyleType="text/css" data-diagram-type="ACTIVITY" height="1988px" preserveAspectRatio="none" style="width:1386px;height:1988px;background:#FFFFFF;" version="1.1" viewBox="0 0 1386 1988" width="1386px" zoomAndPan="magnify"><defs/><g><ellipse cx="693.4043" cy="20" fill="#222222" rx="10" ry="10" style="stroke:#222222;stroke-width:1;"/><rect fill="#555555" height="6" rx="2.5" ry="2.5" style="stroke:#555555;stroke-width:1;" width="1364.8086" x="11" y="50"/><rect fill="#F1F1F1" height="35.0938" rx="12.5" ry="12.5" style="stroke:#181818;stroke-width:0.5;" width="115.373" x="126.3633" y="804.5625"/><text fill="#000000" font-family="sans-serif" font-size="12" lengthAdjust="spacing" textLength="92.0391" x="139.6973" y="827.0195">1, Get Templates</text><rect fill="none" height="92.7031" style="stroke:#000000;stroke-width:1.5;" width="154.0352" x="107.0322" y="849.9844"/><path d="M142.7148,849.9844 L142.7148,860.5938 L132.7148,870.5938 L107.0322,870.5938" fill="none" style="stroke:#000000;stroke-width:1.5;"/><text fill="#000000" font-family="sans-serif" font-size="14" lengthAdjust="spacing" textLength="25.6826" x="110.0322" y="865.5176">Hub</text><rect fill="#F1F1F1" height="35.0938" rx="12.5" ry="12.5" style="stroke:#181818;stroke-width:0.5;" width="134.0352" x="117.0322" y="887.5938"/><text fill="#000000" font-family="sans-serif" font-size="12" lengthAdjust="spacing" textLength="114.0352" x="127.0322" y="910.0508">HUB : Get Templates</text><rect fill="none" height="92.7031" style="stroke:#000000;stroke-width:1.5;" width="322.0996" x="23" y="977.6875"/><path d="M79.6826,977.6875 L79.6826,988.2969 L69.6826,998.2969 L23,998.2969" fill="none" style="stroke:#000000;stroke-width:1.5;"/><text fill="#000000" font-family="sans-serif" font-size="14" lengthAdjust="spacing" textLength="46.6826" x="26" y="993.2207">Service</text><rect fill="#F1F1F1" height="35.0938" rx="12.5" ry="12.5" style="stroke:#181818;stroke-width:0.5;" width="302.0996" x="33" y="1015.2969"/><text fill="#000000" font-family="sans-serif" font-size="12" lengthAdjust="spacing" textLength="282.0996" x="43" y="1037.7539">SVC : Get Filterd Templates and details from Frontify</text><rect fill="#F1F1F1" height="35.0938" rx="12.5" ry="12.5" style="stroke:#181818;stroke-width:0.5;" width="138.7344" x="641.5288" y="76"/><text fill="#000000" font-family="sans-serif" font-size="12" lengthAdjust="spacing" textLength="115.4004" x="654.8628" y="98.457">2, Generate Brochure</text><rect fill="none" height="384.1719" style="stroke:#000000;stroke-width:1.5;" width="562.8848" x="430.791" y="121.0938"/><path d="M466.4736,121.0938 L466.4736,131.7031 L456.4736,141.7031 L430.791,141.7031" fill="none" style="stroke:#000000;stroke-width:1.5;"/><text fill="#000000" font-family="sans-serif" font-size="14" lengthAdjust="spacing" textLength="25.6826" x="433.791" y="136.627">Hub</text><rect fill="#F1F1F1" height="35.0938" rx="12.5" ry="12.5" style="stroke:#181818;stroke-width:0.5;" width="194.7617" x="613.5151" y="158.7031"/><text fill="#000000" font-family="sans-serif" font-size="12" lengthAdjust="spacing" textLength="174.7617" x="623.5151" y="181.1602">Hub : Generate Text and Images</text><rect fill="#F1F1F1" height="35.0938" rx="12.5" ry="12.5" style="stroke:#181818;stroke-width:0.5;" width="106.0391" x="657.8765" y="213.7969"/><text fill="#000000" font-family="sans-serif" font-size="12" lengthAdjust="spacing" textLength="86.0391" x="667.8765" y="236.2539">1, Get Template</text><polygon fill="#F1F1F1" points="683.3772,268.8906,738.4148,268.8906,750.4148,280.8906,738.4148,292.8906,683.3772,292.8906,671.3772,280.8906,683.3772,268.8906" style="stroke:#181818;stroke-width:0.5;"/><text fill="#000000" font-family="sans-serif" font-size="11" lengthAdjust="spacing" textLength="48.9253" x="686.4333" y="285.3916">Bespoke?</text><text fill="#000000" font-family="sans-serif" font-size="11" lengthAdjust="spacing" textLength="29.9438" x="641.4333" y="278.4736">TRUE</text><text fill="#000000" font-family="sans-serif" font-size="11" lengthAdjust="spacing" textLength="34.8477" x="750.4148" y="278.4736">FALSE</text><rect fill="#F1F1F1" height="35.0938" rx="12.5" ry="12.5" style="stroke:#181818;stroke-width:0.5;" width="248.7676" x="450.791" y="302.8906"/><text fill="#000000" font-family="sans-serif" font-size="12" lengthAdjust="spacing" textLength="228.7676" x="460.791" y="325.3477">Service Request : Bespoke Flag Set TRUE</text><rect fill="#F1F1F1" height="35.0938" rx="12.5" ry="12.5" style="stroke:#181818;stroke-width:0.5;" width="254.1172" x="719.5586" y="302.8906"/><text fill="#000000" font-family="sans-serif" font-size="12" lengthAdjust="spacing" textLength="234.1172" x="729.5586" y="325.3477">Service Request : Bespoke Flag Set FALSE</text><polygon fill="#F1F1F1" points="710.896,343.9844,722.896,355.9844,710.896,367.9844,698.896,355.9844,710.896,343.9844" style="stroke:#181818;stroke-width:0.5;"/><rect fill="#F1F1F1" height="35.0938" rx="12.5" ry="12.5" style="stroke:#181818;stroke-width:0.5;" width="199.4199" x="611.186" y="387.9844"/><text fill="#000000" font-family="sans-serif" font-size="12" lengthAdjust="spacing" textLength="179.4199" x="621.186" y="410.4414">Service Request : Set TemplateId</text><rect fill="#F1F1F1" height="50.1875" rx="12.5" ry="12.5" style="stroke:#181818;stroke-width:0.5;" width="234.1016" x="593.8452" y="443.0781"/><text fill="#000000" font-family="sans-serif" font-size="12" lengthAdjust="spacing" textLength="214.1016" x="603.8452" y="465.5352">Service Request : Map Text and Images</text><text fill="#000000" font-family="sans-serif" font-size="12" lengthAdjust="spacing" textLength="198.7559" x="607.1792" y="480.6289">into Svc Request with Template Keys</text><rect fill="none" height="84.7031" style="stroke:#000000;stroke-width:1.5;" width="158.0547" x="631.8687" y="515.2656"/><path d="M716.5649,515.2656 L716.5649,525.875 L706.5649,535.875 L631.8687,535.875" fill="none" style="stroke:#000000;stroke-width:1.5;"/><text fill="#000000" font-family="sans-serif" font-size="14" lengthAdjust="spacing" textLength="74.6963" x="634.8687" y="530.7988">Service Bus</text><rect fill="#F1F1F1" height="35.0938" rx="12.5" ry="12.5" style="stroke:#181818;stroke-width:0.5;" width="138.0547" x="641.8687" y="552.875"/><text fill="#000000" font-family="sans-serif" font-size="12" lengthAdjust="spacing" textLength="118.0547" x="651.8687" y="575.332">Pass Service Request</text><rect fill="none" height="1299.0752" style="stroke:#000000;stroke-width:1.5;" width="699.2676" x="355.0996" y="609.9688"/><path d="M411.7822,609.9688 L411.7822,620.5781 L401.7822,630.5781 L355.0996,630.5781" fill="none" style="stroke:#000000;stroke-width:1.5;"/><text fill="#000000" font-family="sans-serif" font-size="14" lengthAdjust="spacing" textLength="46.6826" x="358.0996" y="625.502">Service</text><rect fill="none" height="439.9219" style="stroke:#000000;stroke-width:1.5;" width="280.0977" x="571.5083" y="640.5781"/><path d="M803.2593,640.5781 L803.2593,651.1875 L793.2593,661.1875 L571.5083,661.1875" fill="none" style="stroke:#000000;stroke-width:1.5;"/><text fill="#000000" font-family="sans-serif" font-size="14" lengthAdjust="spacing" textLength="221.751" x="574.5083" y="656.1113">Create CosmosDB Brochure Object</text><rect fill="#F1F1F1" height="35.0938" rx="12.5" ry="12.5" style="stroke:#181818;stroke-width:0.5;" width="258.7754" x="581.5083" y="678.1875"/><text fill="#000000" font-family="sans-serif" font-size="12" lengthAdjust="spacing" textLength="238.7754" x="591.5083" y="700.6445">SVC : Create a Brochure Object in Datastore</text><rect fill="#F1F1F1" height="35.0938" rx="12.5" ry="12.5" style="stroke:#181818;stroke-width:0.5;" width="212.7441" x="604.5239" y="733.2813"/><text fill="#000000" font-family="sans-serif" font-size="12" lengthAdjust="spacing" textLength="192.7441" x="614.5239" y="755.7383">SVC : Store Text in Brochure Object</text><rect fill="none" height="282.125" style="stroke:#000000;stroke-width:1.5;" width="237.4199" x="604.186" y="778.375"/><path d="M697.4546,778.375 L697.4546,788.9844 L687.4546,798.9844 L604.186,798.9844" fill="none" style="stroke:#000000;stroke-width:1.5;"/><text fill="#000000" font-family="sans-serif" font-size="14" lengthAdjust="spacing" textLength="83.2686" x="607.186" y="793.9082">Asset Upload</text><rect fill="#F1F1F1" height="35.0938" rx="12.5" ry="12.5" style="stroke:#181818;stroke-width:0.5;" width="151.3965" x="635.1978" y="863.3125"/><text fill="#000000" font-family="sans-serif" font-size="12" lengthAdjust="spacing" textLength="131.3965" x="645.1978" y="885.7695">Upload Image to Frontify</text><rect fill="#F1F1F1" height="35.0938" rx="12.5" ry="12.5" style="stroke:#181818;stroke-width:0.5;" width="193.4199" x="614.186" y="933.4063"/><text fill="#000000" font-family="sans-serif" font-size="12" lengthAdjust="spacing" textLength="173.4199" x="624.186" y="955.8633">Save AssetId in Brochure Object</text><polygon fill="#F1F1F1" points="710.896,815.9844,722.896,827.9844,710.896,839.9844,698.896,827.9844,710.896,815.9844" style="stroke:#181818;stroke-width:0.5;"/><polygon fill="#F1F1F1" points="651.8892,1016.5,769.9028,1016.5,781.9028,1028.5,769.9028,1040.5,651.8892,1040.5,639.8892,1028.5,651.8892,1016.5" style="stroke:#181818;stroke-width:0.5;"/><text fill="#000000" font-family="sans-serif" font-size="11" lengthAdjust="spacing" textLength="12.2354" x="714.896" y="1051.9189">no</text><text fill="#000000" font-family="sans-serif" font-size="11" lengthAdjust="spacing" textLength="118.0137" x="651.8892" y="1033.001">More images to upload?</text><text fill="#000000" font-family="sans-serif" font-size="11" lengthAdjust="spacing" textLength="17.1177" x="781.9028" y="1026.083">yes</text><polygon fill="#F1F1F1" points="638.1284,1100.5,783.6636,1100.5,795.6636,1112.5,783.6636,1124.5,638.1284,1124.5,626.1284,1112.5,638.1284,1100.5" style="stroke:#181818;stroke-width:0.5;"/><text fill="#000000" font-family="sans-serif" font-size="11" lengthAdjust="spacing" textLength="145.5352" x="638.1284" y="1117.001">Generate Bespoke Brochure?</text><text fill="#000000" font-family="sans-serif" font-size="11" lengthAdjust="spacing" textLength="29.9438" x="596.1846" y="1110.083">TRUE</text><text fill="#000000" font-family="sans-serif" font-size="11" lengthAdjust="spacing" textLength="34.8477" x="795.6636" y="1110.083">FALSE</text><rect fill="none" height="732.5439" style="stroke:#000000;stroke-width:1.5;" width="341.1309" x="367.0996" y="1134.5"/><path d="M468.1475,1134.5 L468.1475,1145.1094 L458.1475,1155.1094 L367.0996,1155.1094" fill="none" style="stroke:#000000;stroke-width:1.5;"/><text fill="#000000" font-family="sans-serif" font-size="14" lengthAdjust="spacing" textLength="91.0479" x="370.0996" y="1150.0332">Generate CSV</text><rect fill="#F1F1F1" height="35.0938" rx="12.5" ry="12.5" style="stroke:#181818;stroke-width:0.5;" width="318.7871" x="377.0996" y="1172.1094"/><text fill="#000000" font-family="sans-serif" font-size="12" lengthAdjust="spacing" textLength="298.7871" x="387.0996" y="1194.5664">Get All incomplete BESPOKE Brochures from Datastore</text><rect fill="#F1F1F1" height="35.0938" rx="12.5" ry="12.5" style="stroke:#181818;stroke-width:0.5;" width="84.0254" x="494.4805" y="1227.2031"/><text fill="#000000" font-family="sans-serif" font-size="12" lengthAdjust="spacing" textLength="64.0254" x="504.4805" y="1249.6602">Create CSV</text><rect fill="#F1F1F1" height="35.0938" rx="12.5" ry="12.5" style="stroke:#181818;stroke-width:0.5;" width="129.3828" x="471.8018" y="1346.2969"/><text fill="#000000" font-family="sans-serif" font-size="12" lengthAdjust="spacing" textLength="109.3828" x="481.8018" y="1368.7539">Get Brochure Object</text><rect fill="#F1F1F1" height="35.0938" rx="12.5" ry="12.5" style="stroke:#181818;stroke-width:0.5;" width="102.6875" x="485.1494" y="1416.3906"/><text fill="#000000" font-family="sans-serif" font-size="12" lengthAdjust="spacing" textLength="82.6875" x="495.1494" y="1438.8477">CSV: New Row</text><rect fill="#F1F1F1" height="35.0938" rx="12.5" ry="12.5" style="stroke:#181818;stroke-width:0.5;" width="258.793" x="407.0967" y="1485.875"/><text fill="#000000" font-family="sans-serif" font-size="12" lengthAdjust="spacing" textLength="238.793" x="417.0967" y="1508.332">CSV: Add Texts to matching column heading</text><rect fill="#F1F1F1" height="35.0938" rx="12.5" ry="12.5" style="stroke:#181818;stroke-width:0.5;" width="275.4746" x="398.7559" y="1555.3594"/><text fill="#000000" font-family="sans-serif" font-size="12" lengthAdjust="spacing" textLength="255.4746" x="408.7559" y="1577.8164">CSV: Add AssetIds to matching column heading</text><polygon fill="#F1F1F1" points="536.4932,1282.2969,548.4932,1294.2969,536.4932,1306.2969,524.4932,1294.2969,536.4932,1282.2969" style="stroke:#181818;stroke-width:0.5;"/><polygon fill="#F1F1F1" points="476.8848,1637.8438,596.1016,1637.8438,608.1016,1649.8438,596.1016,1661.8438,476.8848,1661.8438,464.8848,1649.8438,476.8848,1637.8438" style="stroke:#181818;stroke-width:0.5;"/><text fill="#000000" font-family="sans-serif" font-size="11" lengthAdjust="spacing" textLength="12.2354" x="540.4932" y="1673.2627">no</text><text fill="#000000" font-family="sans-serif" font-size="11" lengthAdjust="spacing" textLength="119.2168" x="476.8848" y="1654.3447">More Brochure Objects?</text><text fill="#000000" font-family="sans-serif" font-size="11" lengthAdjust="spacing" textLength="17.1177" x="608.1016" y="1647.4268">yes</text><rect fill="#F1F1F1" height="35.0938" rx="12.5" ry="12.5" style="stroke:#181818;stroke-width:0.5;" width="86.0352" x="493.4756" y="1694.7627"/><text fill="#000000" font-family="sans-serif" font-size="12" lengthAdjust="spacing" textLength="66.0352" x="503.4756" y="1717.2197">Upload CSV</text><rect fill="#F1F1F1" height="35.0938" rx="12.5" ry="12.5" style="stroke:#181818;stroke-width:0.5;" width="157.3965" x="457.7949" y="1764.8564"/><text fill="#000000" font-family="sans-serif" font-size="12" lengthAdjust="spacing" textLength="137.3965" x="467.7949" y="1787.3135">User : Generate Brochure</text><rect fill="#F1F1F1" height="35.0938" rx="12.5" ry="12.5" style="stroke:#181818;stroke-width:0.5;" width="136.7246" x="468.1309" y="1819.9502"/><text fill="#000000" font-family="sans-serif" font-size="12" lengthAdjust="spacing" textLength="116.7246" x="478.1309" y="1842.4072">3, Complete Brochure</text><rect fill="none" height="194.8906" style="stroke:#000000;stroke-width:1.5;" width="314.1367" x="728.2305" y="1134.5"/><path d="M829.292,1134.5 L829.292,1145.1094 L819.292,1155.1094 L728.2305,1155.1094" fill="none" style="stroke:#000000;stroke-width:1.5;"/><text fill="#000000" font-family="sans-serif" font-size="14" lengthAdjust="spacing" textLength="91.0615" x="731.2305" y="1150.0332">Auto Generate</text><rect fill="#F1F1F1" height="35.0938" rx="12.5" ry="12.5" style="stroke:#181818;stroke-width:0.5;" width="184.0684" x="793.2646" y="1172.1094"/><text fill="#000000" font-family="sans-serif" font-size="12" lengthAdjust="spacing" textLength="164.0684" x="803.2646" y="1194.5664">Using Current Brochure Object</text><rect fill="#F1F1F1" height="35.0938" rx="12.5" ry="12.5" style="stroke:#181818;stroke-width:0.5;" width="294.1367" x="738.2305" y="1227.2031"/><text fill="#000000" font-family="sans-serif" font-size="12" lengthAdjust="spacing" textLength="274.1367" x="748.2305" y="1249.6602">ExportCreative and Associate Assets and Template</text><rect fill="#F1F1F1" height="35.0938" rx="12.5" ry="12.5" style="stroke:#181818;stroke-width:0.5;" width="240.1074" x="765.2451" y="1282.2969"/><text fill="#000000" font-family="sans-serif" font-size="12" lengthAdjust="spacing" textLength="220.1074" x="775.2451" y="1304.7539">Generate Brochure - Returns Brochure Id</text><rect fill="none" height="301.1563" style="stroke:#000000;stroke-width:1.5;" width="236.7578" x="766.9199" y="1364.3906"/><path d="M831.3955,1364.3906 L831.3955,1375 L821.3955,1385 L766.9199,1385" fill="none" style="stroke:#000000;stroke-width:1.5;"/><text fill="#000000" font-family="sans-serif" font-size="14" lengthAdjust="spacing" textLength="54.4756" x="769.9199" y="1379.9238">CleanUp</text><rect fill="#F1F1F1" height="35.0938" rx="12.5" ry="12.5" style="stroke:#181818;stroke-width:0.5;" width="143.3926" x="813.6025" y="1402"/><text fill="#000000" font-family="sans-serif" font-size="12" lengthAdjust="spacing" textLength="123.3926" x="823.6025" y="1424.457">Check Brochure Status</text><rect fill="#F1F1F1" height="35.0938" rx="12.5" ry="12.5" style="stroke:#181818;stroke-width:0.5;" width="91.3672" x="839.6152" y="1471.4844"/><text fill="#000000" font-family="sans-serif" font-size="12" lengthAdjust="spacing" textLength="71.3672" x="849.6152" y="1493.9414">Get Brochure</text><rect fill="#F1F1F1" height="35.0938" rx="12.5" ry="12.5" style="stroke:#181818;stroke-width:0.5;" width="100.707" x="834.9453" y="1540.9688"/><text fill="#000000" font-family="sans-serif" font-size="12" lengthAdjust="spacing" textLength="80.707" x="844.9453" y="1563.4258">Store Brochure</text><rect fill="#F1F1F1" height="35.0938" rx="12.5" ry="12.5" style="stroke:#181818;stroke-width:0.5;" width="216.7578" x="776.9199" y="1610.4531"/><text fill="#000000" font-family="sans-serif" font-size="12" lengthAdjust="spacing" textLength="196.7578" x="786.9199" y="1632.9102">Complete Datastore Brochure Object</text><rect fill="none" height="92.7031" style="stroke:#000000;stroke-width:1.5;" width="181.4102" x="794.5938" y="1698.4658"/><path d="M879.29,1698.4658 L879.29,1709.0752 L869.29,1719.0752 L794.5938,1719.0752" fill="none" style="stroke:#000000;stroke-width:1.5;"/><text fill="#000000" font-family="sans-serif" font-size="14" lengthAdjust="spacing" textLength="74.6963" x="797.5938" y="1713.999">Service Bus</text><rect fill="#F1F1F1" height="35.0938" rx="12.5" ry="12.5" style="stroke:#181818;stroke-width:0.5;" width="161.4102" x="804.5938" y="1736.0752"/><text fill="#000000" font-family="sans-serif" font-size="12" lengthAdjust="spacing" textLength="141.4102" x="814.5938" y="1758.5322">Return Brochure Metadata</text><polygon fill="#F1F1F1" points="710.896,1873.0439,722.896,1885.0439,710.896,1897.0439,698.896,1885.0439,710.896,1873.0439" style="stroke:#181818;stroke-width:0.5;"/><rect fill="#F1F1F1" height="35.0938" rx="12.5" ry="12.5" style="stroke:#181818;stroke-width:0.5;" width="140.0586" x="1144.0586" y="804.5625"/><text fill="#000000" font-family="sans-serif" font-size="12" lengthAdjust="spacing" textLength="116.7246" x="1157.3926" y="827.0195">3, Complete Brochure</text><rect fill="none" height="92.7031" style="stroke:#000000;stroke-width:1.5;" width="178.7207" x="1124.7275" y="849.9844"/><path d="M1160.4102,849.9844 L1160.4102,860.5938 L1150.4102,870.5938 L1124.7275,870.5938" fill="none" style="stroke:#000000;stroke-width:1.5;"/><text fill="#000000" font-family="sans-serif" font-size="14" lengthAdjust="spacing" textLength="25.6826" x="1127.7275" y="865.5176">Hub</text><rect fill="#F1F1F1" height="35.0938" rx="12.5" ry="12.5" style="stroke:#181818;stroke-width:0.5;" width="158.7207" x="1134.7275" y="887.5938"/><text fill="#000000" font-family="sans-serif" font-size="12" lengthAdjust="spacing" textLength="138.7207" x="1144.7275" y="910.0508">HUB : Complete Brochure</text><rect fill="none" height="92.7031" style="stroke:#000000;stroke-width:1.5;" width="299.4414" x="1064.3672" y="977.6875"/><path d="M1121.0498,977.6875 L1121.0498,988.2969 L1111.0498,998.2969 L1064.3672,998.2969" fill="none" style="stroke:#000000;stroke-width:1.5;"/><text fill="#000000" font-family="sans-serif" font-size="14" lengthAdjust="spacing" textLength="46.6826" x="1067.3672" y="993.2207">Service</text><rect fill="#F1F1F1" height="35.0938" rx="12.5" ry="12.5" style="stroke:#181818;stroke-width:0.5;" width="279.4414" x="1074.3672" y="1015.2969"/><text fill="#000000" font-family="sans-serif" font-size="12" lengthAdjust="spacing" textLength="259.4414" x="1084.3672" y="1037.7539">SVC : Mark datastore Brochure Object Complete</text><rect fill="#555555" height="6" rx="2.5" ry="2.5" style="stroke:#555555;stroke-width:1;" width="1364.8086" x="11" y="1929.0439"/><ellipse cx="693.4043" cy="1966.0439" fill="none" rx="11" ry="11" style="stroke:#222222;stroke-width:1;"/><ellipse cx="693.4043" cy="1966.0439" fill="#222222" rx="6" ry="6" style="stroke:#222222;stroke-width:1;"/><line style="stroke:#181818;stroke-width:1;" x1="184.0498" x2="184.0498" y1="839.6563" y2="887.5938"/><polygon fill="#181818" points="180.0498,877.5938,184.0498,887.5938,188.0498,877.5938,184.0498,881.5938" style="stroke:#181818;stroke-width:1;"/><line style="stroke:#181818;stroke-width:1;" x1="184.0498" x2="184.0498" y1="922.6875" y2="1015.2969"/><polygon fill="#181818" points="180.0498,1005.2969,184.0498,1015.2969,188.0498,1005.2969,184.0498,1009.2969" style="stroke:#181818;stroke-width:1;"/><line style="stroke:#181818;stroke-width:1;" x1="710.896" x2="710.896" y1="193.7969" y2="213.7969"/><polygon fill="#181818" points="706.896,203.7969,710.896,213.7969,714.896,203.7969,710.896,207.7969" style="stroke:#181818;stroke-width:1;"/><line style="stroke:#181818;stroke-width:1;" x1="671.3772" x2="575.1748" y1="280.8906" y2="280.8906"/><line style="stroke:#181818;stroke-width:1;" x1="575.1748" x2="575.1748" y1="280.8906" y2="302.8906"/><polygon fill="#181818" points="571.1748,292.8906,575.1748,302.8906,579.1748,292.8906,575.1748,296.8906" style="stroke:#181818;stroke-width:1;"/><line style="stroke:#181818;stroke-width:1;" x1="750.4148" x2="846.6172" y1="280.8906" y2="280.8906"/><line style="stroke:#181818;stroke-width:1;" x1="846.6172" x2="846.6172" y1="280.8906" y2="302.8906"/><polygon fill="#181818" points="842.6172,292.8906,846.6172,302.8906,850.6172,292.8906,846.6172,296.8906" style="stroke:#181818;stroke-width:1;"/><line style="stroke:#181818;stroke-width:1;" x1="575.1748" x2="575.1748" y1="337.9844" y2="355.9844"/><line style="stroke:#181818;stroke-width:1;" x1="575.1748" x2="698.896" y1="355.9844" y2="355.9844"/><polygon fill="#181818" points="688.896,351.9844,698.896,355.9844,688.896,359.9844,692.896,355.9844" style="stroke:#181818;stroke-width:1;"/><line style="stroke:#181818;stroke-width:1;" x1="846.6172" x2="846.6172" y1="337.9844" y2="355.9844"/><line style="stroke:#181818;stroke-width:1;" x1="846.6172" x2="722.896" y1="355.9844" y2="355.9844"/><polygon fill="#181818" points="732.896,351.9844,722.896,355.9844,732.896,359.9844,728.896,355.9844" style="stroke:#181818;stroke-width:1;"/><line style="stroke:#181818;stroke-width:1;" x1="710.896" x2="710.896" y1="248.8906" y2="268.8906"/><polygon fill="#181818" points="706.896,258.8906,710.896,268.8906,714.896,258.8906,710.896,262.8906" style="stroke:#181818;stroke-width:1;"/><line style="stroke:#181818;stroke-width:1;" x1="710.896" x2="710.896" y1="367.9844" y2="387.9844"/><polygon fill="#181818" points="706.896,377.9844,710.896,387.9844,714.896,377.9844,710.896,381.9844" style="stroke:#181818;stroke-width:1;"/><line style="stroke:#181818;stroke-width:1;" x1="710.896" x2="710.896" y1="423.0781" y2="443.0781"/><polygon fill="#181818" points="706.896,433.0781,710.896,443.0781,714.896,433.0781,710.896,437.0781" style="stroke:#181818;stroke-width:1;"/><line style="stroke:#181818;stroke-width:1;" x1="710.896" x2="710.896" y1="111.0938" y2="158.7031"/><polygon fill="#181818" points="706.896,148.7031,710.896,158.7031,714.896,148.7031,710.896,152.7031" style="stroke:#181818;stroke-width:1;"/><line style="stroke:#181818;stroke-width:1;" x1="710.896" x2="710.896" y1="493.2656" y2="552.875"/><polygon fill="#181818" points="706.896,542.875,710.896,552.875,714.896,542.875,710.896,546.875" style="stroke:#181818;stroke-width:1;"/><line style="stroke:#181818;stroke-width:1;" x1="710.896" x2="710.896" y1="713.2813" y2="733.2813"/><polygon fill="#181818" points="706.896,723.2813,710.896,733.2813,714.896,723.2813,710.896,727.2813" style="stroke:#181818;stroke-width:1;"/><line style="stroke:#181818;stroke-width:1;" x1="710.896" x2="710.896" y1="898.4063" y2="933.4063"/><polygon fill="#181818" points="706.896,923.4063,710.896,933.4063,714.896,923.4063,710.896,927.4063" style="stroke:#181818;stroke-width:1;"/><line style="stroke:#181818;stroke-width:1;" x1="710.896" x2="710.896" y1="839.9844" y2="863.3125"/><polygon fill="#181818" points="706.896,853.3125,710.896,863.3125,714.896,853.3125,710.896,857.3125" style="stroke:#181818;stroke-width:1;"/><line style="stroke:#181818;stroke-width:1;" x1="781.9028" x2="819.606" y1="1028.5" y2="1028.5"/><polygon fill="#181818" points="815.606,925.9063,819.606,915.9063,823.606,925.9063,819.606,921.9063" style="stroke:#181818;stroke-width:1;"/><line style="stroke:#181818;stroke-width:1;" x1="819.606" x2="819.606" y1="827.9844" y2="1028.5"/><line style="stroke:#181818;stroke-width:1;" x1="819.606" x2="722.896" y1="827.9844" y2="827.9844"/><polygon fill="#181818" points="732.896,823.9844,722.896,827.9844,732.896,831.9844,728.896,827.9844" style="stroke:#181818;stroke-width:1;"/><line style="stroke:#181818;stroke-width:1;" x1="710.896" x2="710.896" y1="968.5" y2="1016.5"/><polygon fill="#181818" points="706.896,1006.5,710.896,1016.5,714.896,1006.5,710.896,1010.5" style="stroke:#181818;stroke-width:1;"/><line style="stroke:#181818;stroke-width:1;" x1="710.896" x2="710.896" y1="768.375" y2="815.9844"/><polygon fill="#181818" points="706.896,805.9844,710.896,815.9844,714.896,805.9844,710.896,809.9844" style="stroke:#181818;stroke-width:1;"/><line style="stroke:#181818;stroke-width:1;" x1="536.4932" x2="536.4932" y1="1207.2031" y2="1227.2031"/><polygon fill="#181818" points="532.4932,1217.2031,536.4932,1227.2031,540.4932,1217.2031,536.4932,1221.2031" style="stroke:#181818;stroke-width:1;"/><line style="stroke:#181818;stroke-width:1;" x1="536.4932" x2="536.4932" y1="1381.3906" y2="1416.3906"/><polygon fill="#181818" points="532.4932,1406.3906,536.4932,1416.3906,540.4932,1406.3906,536.4932,1410.3906" style="stroke:#181818;stroke-width:1;"/><line style="stroke:#181818;stroke-width:1;" x1="536.4932" x2="536.4932" y1="1451.4844" y2="1485.875"/><polygon fill="#181818" points="532.4932,1475.875,536.4932,1485.875,540.4932,1475.875,536.4932,1479.875" style="stroke:#181818;stroke-width:1;"/><line style="stroke:#181818;stroke-width:1;" x1="536.4932" x2="536.4932" y1="1520.9688" y2="1555.3594"/><polygon fill="#181818" points="532.4932,1545.3594,536.4932,1555.3594,540.4932,1545.3594,536.4932,1549.3594" style="stroke:#181818;stroke-width:1;"/><line style="stroke:#181818;stroke-width:1;" x1="536.4932" x2="536.4932" y1="1306.2969" y2="1346.2969"/><polygon fill="#181818" points="532.4932,1336.2969,536.4932,1346.2969,540.4932,1336.2969,536.4932,1340.2969" style="stroke:#181818;stroke-width:1;"/><line style="stroke:#181818;stroke-width:1;" x1="608.1016" x2="686.2305" y1="1649.8438" y2="1649.8438"/><polygon fill="#181818" points="682.2305,1478.375,686.2305,1468.375,690.2305,1478.375,686.2305,1474.375" style="stroke:#181818;stroke-width:1;"/><line style="stroke:#181818;stroke-width:1;" x1="686.2305" x2="686.2305" y1="1294.2969" y2="1649.8438"/><line style="stroke:#181818;stroke-width:1;" x1="686.2305" x2="548.4932" y1="1294.2969" y2="1294.2969"/><polygon fill="#181818" points="558.4932,1290.2969,548.4932,1294.2969,558.4932,1298.2969,554.4932,1294.2969" style="stroke:#181818;stroke-width:1;"/><line style="stroke:#181818;stroke-width:1;" x1="536.4932" x2="536.4932" y1="1590.4531" y2="1637.8438"/><polygon fill="#181818" points="532.4932,1627.8438,536.4932,1637.8438,540.4932,1627.8438,536.4932,1631.8438" style="stroke:#181818;stroke-width:1;"/><line style="stroke:#181818;stroke-width:1;" x1="536.4932" x2="536.4932" y1="1262.2969" y2="1282.2969"/><polygon fill="#181818" points="532.4932,1272.2969,536.4932,1282.2969,540.4932,1272.2969,536.4932,1276.2969" style="stroke:#181818;stroke-width:1;"/><line style="stroke:#181818;stroke-width:1;" x1="536.4932" x2="536.4932" y1="1661.8438" y2="1694.7627"/><polygon fill="#181818" points="532.4932,1684.7627,536.4932,1694.7627,540.4932,1684.7627,536.4932,1688.7627" style="stroke:#181818;stroke-width:1;"/><line style="stroke:#181818;stroke-width:1;" x1="536.4932" x2="536.4932" y1="1729.8564" y2="1764.8564"/><polygon fill="#181818" points="532.4932,1754.8564,536.4932,1764.8564,540.4932,1754.8564,536.4932,1758.8564" style="stroke:#181818;stroke-width:1;"/><line style="stroke:#181818;stroke-width:1;" x1="536.4932" x2="536.4932" y1="1799.9502" y2="1819.9502"/><polygon fill="#181818" points="532.4932,1809.9502,536.4932,1819.9502,540.4932,1809.9502,536.4932,1813.9502" style="stroke:#181818;stroke-width:1;"/><line style="stroke:#181818;stroke-width:1;" x1="885.2988" x2="885.2988" y1="1207.2031" y2="1227.2031"/><polygon fill="#181818" points="881.2988,1217.2031,885.2988,1227.2031,889.2988,1217.2031,885.2988,1221.2031" style="stroke:#181818;stroke-width:1;"/><line style="stroke:#181818;stroke-width:1;" x1="885.2988" x2="885.2988" y1="1262.2969" y2="1282.2969"/><polygon fill="#181818" points="881.2988,1272.2969,885.2988,1282.2969,889.2988,1272.2969,885.2988,1276.2969" style="stroke:#181818;stroke-width:1;"/><line style="stroke:#181818;stroke-width:1;" x1="885.2988" x2="885.2988" y1="1437.0938" y2="1471.4844"/><polygon fill="#181818" points="881.2988,1461.4844,885.2988,1471.4844,889.2988,1461.4844,885.2988,1465.4844" style="stroke:#181818;stroke-width:1;"/><line style="stroke:#181818;stroke-width:1;" x1="885.2988" x2="885.2988" y1="1506.5781" y2="1540.9688"/><polygon fill="#181818" points="881.2988,1530.9688,885.2988,1540.9688,889.2988,1530.9688,885.2988,1534.9688" style="stroke:#181818;stroke-width:1;"/><line style="stroke:#181818;stroke-width:1;" x1="885.2988" x2="885.2988" y1="1576.0625" y2="1610.4531"/><polygon fill="#181818" points="881.2988,1600.4531,885.2988,1610.4531,889.2988,1600.4531,885.2988,1604.4531" style="stroke:#181818;stroke-width:1;"/><line style="stroke:#181818;stroke-width:1;" x1="885.2988" x2="885.2988" y1="1317.3906" y2="1402"/><polygon fill="#181818" points="881.2988,1392,885.2988,1402,889.2988,1392,885.2988,1396" style="stroke:#181818;stroke-width:1;"/><line style="stroke:#181818;stroke-width:1;" x1="885.2988" x2="885.2988" y1="1645.5469" y2="1736.0752"/><polygon fill="#181818" points="881.2988,1726.0752,885.2988,1736.0752,889.2988,1726.0752,885.2988,1730.0752" style="stroke:#181818;stroke-width:1;"/><line style="stroke:#181818;stroke-width:1;" x1="626.1284" x2="536.4932" y1="1112.5" y2="1112.5"/><line style="stroke:#181818;stroke-width:1;" x1="536.4932" x2="536.4932" y1="1112.5" y2="1172.1094"/><polygon fill="#181818" points="532.4932,1162.1094,536.4932,1172.1094,540.4932,1162.1094,536.4932,1166.1094" style="stroke:#181818;stroke-width:1;"/><line style="stroke:#181818;stroke-width:1;" x1="795.6636" x2="885.2988" y1="1112.5" y2="1112.5"/><line style="stroke:#181818;stroke-width:1;" x1="885.2988" x2="885.2988" y1="1112.5" y2="1172.1094"/><polygon fill="#181818" points="881.2988,1162.1094,885.2988,1172.1094,889.2988,1162.1094,885.2988,1166.1094" style="stroke:#181818;stroke-width:1;"/><line style="stroke:#181818;stroke-width:1;" x1="536.4932" x2="536.4932" y1="1855.0439" y2="1885.0439"/><line style="stroke:#181818;stroke-width:1;" x1="536.4932" x2="698.896" y1="1885.0439" y2="1885.0439"/><polygon fill="#181818" points="688.896,1881.0439,698.896,1885.0439,688.896,1889.0439,692.896,1885.0439" style="stroke:#181818;stroke-width:1;"/><line style="stroke:#181818;stroke-width:1;" x1="885.2988" x2="885.2988" y1="1771.1689" y2="1885.0439"/><line style="stroke:#181818;stroke-width:1;" x1="885.2988" x2="722.896" y1="1885.0439" y2="1885.0439"/><polygon fill="#181818" points="732.896,1881.0439,722.896,1885.0439,732.896,1889.0439,728.896,1885.0439" style="stroke:#181818;stroke-width:1;"/><line style="stroke:#181818;stroke-width:1;" x1="710.896" x2="710.896" y1="1040.5" y2="1100.5"/><polygon fill="#181818" points="706.896,1090.5,710.896,1100.5,714.896,1090.5,710.896,1094.5" style="stroke:#181818;stroke-width:1;"/><line style="stroke:#181818;stroke-width:1;" x1="710.896" x2="710.896" y1="587.9688" y2="678.1875"/><polygon fill="#181818" points="706.896,668.1875,710.896,678.1875,714.896,668.1875,710.896,672.1875" style="stroke:#181818;stroke-width:1;"/><line style="stroke:#181818;stroke-width:1;" x1="1214.0879" x2="1214.0879" y1="839.6563" y2="887.5938"/><polygon fill="#181818" points="1210.0879,877.5938,1214.0879,887.5938,1218.0879,877.5938,1214.0879,881.5938" style="stroke:#181818;stroke-width:1;"/><line style="stroke:#181818;stroke-width:1;" x1="1214.0879" x2="1214.0879" y1="922.6875" y2="1015.2969"/><polygon fill="#181818" points="1210.0879,1005.2969,1214.0879,1015.2969,1218.0879,1005.2969,1214.0879,1009.2969" style="stroke:#181818;stroke-width:1;"/><line style="stroke:#181818;stroke-width:1;" x1="184.0498" x2="184.0498" y1="56" y2="804.5625"/><polygon fill="#181818" points="180.0498,794.5625,184.0498,804.5625,188.0498,794.5625,184.0498,798.5625" style="stroke:#181818;stroke-width:1;"/><line style="stroke:#181818;stroke-width:1;" x1="710.896" x2="710.896" y1="56" y2="76"/><polygon fill="#181818" points="706.896,66,710.896,76,714.896,66,710.896,70" style="stroke:#181818;stroke-width:1;"/><line style="stroke:#181818;stroke-width:1;" x1="1214.0879" x2="1214.0879" y1="56" y2="804.5625"/><polygon fill="#181818" points="1210.0879,794.5625,1214.0879,804.5625,1218.0879,794.5625,1214.0879,798.5625" style="stroke:#181818;stroke-width:1;"/><line style="stroke:#181818;stroke-width:1;" x1="184.0498" x2="184.0498" y1="1050.3906" y2="1929.0439"/><polygon fill="#181818" points="180.0498,1919.0439,184.0498,1929.0439,188.0498,1919.0439,184.0498,1923.0439" style="stroke:#181818;stroke-width:1;"/><line style="stroke:#181818;stroke-width:1;" x1="710.896" x2="710.896" y1="1897.0439" y2="1929.0439"/><polygon fill="#181818" points="706.896,1919.0439,710.896,1929.0439,714.896,1919.0439,710.896,1923.0439" style="stroke:#181818;stroke-width:1;"/><line style="stroke:#181818;stroke-width:1;" x1="1214.0879" x2="1214.0879" y1="1050.3906" y2="1929.0439"/><polygon fill="#181818" points="1210.0879,1919.0439,1214.0879,1929.0439,1218.0879,1919.0439,1214.0879,1923.0439" style="stroke:#181818;stroke-width:1;"/><line style="stroke:#181818;stroke-width:1;" x1="693.4043" x2="693.4043" y1="30" y2="50"/><polygon fill="#181818" points="689.4043,40,693.4043,50,697.4043,40,693.4043,44" style="stroke:#181818;stroke-width:1;"/><line style="stroke:#181818;stroke-width:1;" x1="693.4043" x2="693.4043" y1="1935.0439" y2="1955.0439"/><polygon fill="#181818" points="689.4043,1945.0439,693.4043,1955.0439,697.4043,1945.0439,693.4043,1949.0439" style="stroke:#181818;stroke-width:1;"/><!--SRC=[bLPDSzem4BtxL-mHPj93sniSCa0WoQGqcJXmwaMn5wp6IAuaX-JVToNPyaViJdfXG7xxTlVjqnfjc3BHGQgN2606No_W6WqyuQd8cK4zfzDh9Si2Rifd-awOczsIW1zGQv4wO0Y8KRto17rGl5zLGHkU6rHf4mnCf92YOJpNS53o11ibXU67zmwjgn7OaN7XAlrcAnMeY0AMIYPPgN0U3PHRFhlC5VG9tupBU7jYHryvWNfjp-qXHE637s02IzI5VC5Bc8B9KC3awN6tdhhdja7VBJpYdnArePGL7ZOvEv8On4vudmzpZJ3PB7x4_qNW0Ye6aV93D18OjrgvJUTZi2qh-dBy4i25aH2_9W5uvYOBT727x_MuZtuklNd3ijG-umFJ6dffEw53Jl4dAuKssKhgazHNop1Wk7_-ZObfUwg2iZw66e4hPfWsqXgZ5H7R4zyvONfXpa9D8GkjISnTaKkMLWy051QKC_nqr1xYPGHIiEtX5Ynch-X9RzF1xDqSSCvuJbRPsegv6v4bBrsooobm3PDtr5CGqi14oDfDhSlOlaArbvkBKrciBkDooDjUYH2pYlUXofczDOiyfrOIIGv1oxcE7-xlre6pkjIzMRZeUipnVZukhiingfDbYVSp-8bdU9JdZmyMQUfcxOGxCPDaN1mXaNbv4f0XI-ddS5Grfiy53iohLxCUd5VKTr17ZDbEesglhsRJ1SZt2xedjVRrO-WROMplL3OlgSSwIJkxRNbLAeNY7pEOhTyAgOoR9YT_str2uic4svATZ7xBX_tQDb2lC_X2kyAKIkZcg5vYFMDNko979dP5lKTN6IOlJMXic2br7TxnKZZq2-73SL0rM7TOWgx6mykGw7nN3SMMNdafCGUIOsYitkwZBx_1cO-zgWUHdtbTRnabJSUQ3xmTEYhT_PcWa2Bw2m00]--></g></svg>