<svg xmlns="http://www.w3.org/2000/svg" xmlns:xlink="http://www.w3.org/1999/xlink" contentStyleType="text/css" data-diagram-type="SEQUENCE" height="108px" preserveAspectRatio="none" style="width:64px;height:108px;background:#FFFFFF;" version="1.1" viewBox="0 0 64 108" width="64px" zoomAndPan="magnify"><defs/><g><g><title>a</title><rect fill="#000000" fill-opacity="0.00000" height="34" width="8" x="11.8931" y="37.6094"/><line style="stroke:#181818;stroke-width:0.5;stroke-dasharray:5,5;" x1="15" x2="15" y1="37.6094" y2="71.6094"/></g><g><title>b</title><rect fill="#000000" fill-opacity="0.00000" height="34" width="8" x="43.6792" y="37.6094"/><line style="stroke:#181818;stroke-width:0.5;stroke-dasharray:5,5;" x1="46.7861" x2="46.7861" y1="37.6094" y2="71.6094"/></g><g class="participant participant-head" data-participant="a"><rect fill="#E2E2F0" height="31.6094" rx="2.5" ry="2.5" style="stroke:#181818;stroke-width:0.5;" width="21.7861" x="5" y="5"/><text fill="#000000" font-family="sans-serif" font-size="14" lengthAdjust="spacing" textLength="7.7861" x="12" y="26.5332">a</text></g><g class="participant participant-tail" data-participant="a"><rect fill="#E2E2F0" height="31.6094" rx="2.5" ry="2.5" style="stroke:#181818;stroke-width:0.5;" width="21.7861" x="5" y="70.6094"/><text fill="#000000" font-family="sans-serif" font-size="14" lengthAdjust="spacing" textLength="7.7861" x="12" y="92.1426">a</text></g><g class="participant participant-head" data-participant="b"><rect fill="#E2E2F0" height="31.6094" rx="2.5" ry="2.5" style="stroke:#181818;stroke-width:0.5;" width="21.7861" x="36.7861" y="5"/><text fill="#000000" font-family="sans-serif" font-size="14" lengthAdjust="spacing" textLength="7.7861" x="43.7861" y="26.5332">b</text></g><g class="participant participant-tail" data-participant="b"><rect fill="#E2E2F0" height="31.6094" rx="2.5" ry="2.5" style="stroke:#181818;stroke-width:0.5;" width="21.7861" x="36.7861" y="70.6094"/><text fill="#000000" font-family="sans-serif" font-size="14" lengthAdjust="spacing" textLength="7.7861" x="43.7861" y="92.1426">b</text></g><g class="message" data-participant-1="a" data-participant-2="b"><polygon fill="#181818" points="35.6792,49.6094,45.6792,53.6094,35.6792,57.6094,39.6792,53.6094" style="stroke:#181818;stroke-width:1;"/><line style="stroke:#181818;stroke-width:1;" x1="15.8931" x2="41.6792" y1="53.6094" y2="53.6094"/></g><!--SRC=[IrJGjLD80W00]--></g></svg>