<svg xmlns="http://www.w3.org/2000/svg" xmlns:xlink="http://www.w3.org/1999/xlink" contentStyleType="text/css" data-diagram-type="JSON" height="417px" preserveAspectRatio="none" style="width:768px;height:417px;background:#FFFFFF;" version="1.1" viewBox="0 0 768 417" width="768px" zoomAndPan="magnify"><defs/><g><rect fill="#F1F1F1" height="108.0469" rx="5" ry="5" style="stroke:#F1F1F1;stroke-width:1.5;" width="121.1445" x="10" y="243.1953"/><text fill="#000000" font-family="sans-serif" font-size="14" font-weight="bold" lengthAdjust="spacing" textLength="12.4414" x="15" y="259.7285">Id</text><text fill="#000000" font-family="sans-serif" font-size="14" lengthAdjust="spacing" textLength="34.2344" x="91.9102" y="259.7285">string</text><line style="stroke:#000000;stroke-width:1;" x1="86.9102" x2="86.9102" y1="243.1953" y2="264.8047"/><line style="stroke:#000000;stroke-width:1;" x1="10" x2="131.1445" y1="264.8047" y2="264.8047"/><text fill="#000000" font-family="sans-serif" font-size="14" font-weight="bold" lengthAdjust="spacing" textLength="35.7656" x="15" y="281.3379">Audit</text><text fill="#000000" font-family="sans-serif" font-size="14" lengthAdjust="spacing" textLength="11.6689" x="91.9102" y="281.3379">&#160;&#160;&#160;</text><line style="stroke:#000000;stroke-width:1;" x1="86.9102" x2="86.9102" y1="264.8047" y2="286.4141"/><line style="stroke:#000000;stroke-width:1;" x1="10" x2="131.1445" y1="286.4141" y2="286.4141"/><text fill="#000000" font-family="sans-serif" font-size="14" font-weight="bold" lengthAdjust="spacing" textLength="55.2344" x="15" y="302.9473">Request</text><text fill="#000000" font-family="sans-serif" font-size="14" lengthAdjust="spacing" textLength="11.6689" x="91.9102" y="302.9473">&#160;&#160;&#160;</text><line style="stroke:#000000;stroke-width:1;" x1="86.9102" x2="86.9102" y1="286.4141" y2="308.0234"/><line style="stroke:#000000;stroke-width:1;" x1="10" x2="131.1445" y1="308.0234" y2="308.0234"/><text fill="#000000" font-family="sans-serif" font-size="14" font-weight="bold" lengthAdjust="spacing" textLength="66.9102" x="15" y="324.5566">Response</text><text fill="#000000" font-family="sans-serif" font-size="14" lengthAdjust="spacing" textLength="11.6689" x="91.9102" y="324.5566">&#160;&#160;&#160;</text><line style="stroke:#000000;stroke-width:1;" x1="86.9102" x2="86.9102" y1="308.0234" y2="329.6328"/><line style="stroke:#000000;stroke-width:1;" x1="10" x2="131.1445" y1="329.6328" y2="329.6328"/><text fill="#000000" font-family="sans-serif" font-size="14" font-weight="bold" lengthAdjust="spacing" textLength="34.2344" x="15" y="346.166">Error</text><text fill="#000000" font-family="sans-serif" font-size="14" lengthAdjust="spacing" textLength="11.6689" x="91.9102" y="346.166">&#160;&#160;&#160;</text><line style="stroke:#000000;stroke-width:1;" x1="86.9102" x2="86.9102" y1="329.6328" y2="351.2422"/><rect fill="none" height="108.0469" rx="5" ry="5" style="stroke:#000000;stroke-width:1.5;" width="121.1445" x="10" y="243.1953"/><rect fill="#F1F1F1" height="108.0469" rx="5" ry="5" style="stroke:#F1F1F1;stroke-width:1.5;" width="220.7373" x="168" y="103.1953"/><text fill="#000000" font-family="sans-serif" font-size="14" font-weight="bold" lengthAdjust="spacing" textLength="73.124" x="173" y="119.7285">sourceApp</text><text fill="#000000" font-family="sans-serif" font-size="14" lengthAdjust="spacing" textLength="34.2344" x="279.4551" y="119.7285">string</text><line style="stroke:#000000;stroke-width:1;" x1="274.4551" x2="274.4551" y1="103.1953" y2="124.8047"/><line style="stroke:#000000;stroke-width:1;" x1="168" x2="388.7373" y1="124.8047" y2="124.8047"/><text fill="#000000" font-family="sans-serif" font-size="14" font-weight="bold" lengthAdjust="spacing" textLength="29.5723" x="173" y="141.3379">user</text><text fill="#000000" font-family="sans-serif" font-size="14" lengthAdjust="spacing" textLength="11.6689" x="279.4551" y="141.3379">&#160;&#160;&#160;</text><line style="stroke:#000000;stroke-width:1;" x1="274.4551" x2="274.4551" y1="124.8047" y2="146.4141"/><line style="stroke:#000000;stroke-width:1;" x1="168" x2="388.7373" y1="146.4141" y2="146.4141"/><text fill="#000000" font-family="sans-serif" font-size="14" font-weight="bold" lengthAdjust="spacing" textLength="96.4551" x="173" y="162.9473">impersonating</text><text fill="#000000" font-family="sans-serif" font-size="14" lengthAdjust="spacing" textLength="11.6689" x="279.4551" y="162.9473">&#160;&#160;&#160;</text><line style="stroke:#000000;stroke-width:1;" x1="274.4551" x2="274.4551" y1="146.4141" y2="168.0234"/><line style="stroke:#000000;stroke-width:1;" x1="168" x2="388.7373" y1="168.0234" y2="168.0234"/><text fill="#000000" font-family="sans-serif" font-size="14" font-weight="bold" lengthAdjust="spacing" textLength="29.5518" x="173" y="184.5566">host</text><text fill="#000000" font-family="sans-serif" font-size="14" lengthAdjust="spacing" textLength="11.6689" x="279.4551" y="184.5566">&#160;&#160;&#160;</text><line style="stroke:#000000;stroke-width:1;" x1="274.4551" x2="274.4551" y1="168.0234" y2="189.6328"/><line style="stroke:#000000;stroke-width:1;" x1="168" x2="388.7373" y1="189.6328" y2="189.6328"/><text fill="#000000" font-family="sans-serif" font-size="14" font-weight="bold" lengthAdjust="spacing" textLength="70.0205" x="173" y="206.166">timestamp</text><text fill="#000000" font-family="sans-serif" font-size="14" lengthAdjust="spacing" textLength="104.2822" x="279.4551" y="206.166">string&lt;datetime&gt;</text><line style="stroke:#000000;stroke-width:1;" x1="274.4551" x2="274.4551" y1="189.6328" y2="211.2422"/><rect fill="none" height="108.0469" rx="5" ry="5" style="stroke:#000000;stroke-width:1.5;" width="220.7373" x="168" y="103.1953"/><rect fill="#F1F1F1" height="86.4375" rx="5" ry="5" style="stroke:#F1F1F1;stroke-width:1.5;" width="133.627" x="460" y="10"/><text fill="#000000" font-family="sans-serif" font-size="14" font-weight="bold" lengthAdjust="spacing" textLength="12.4414" x="465" y="26.5332">id</text><text fill="#000000" font-family="sans-serif" font-size="14" lengthAdjust="spacing" textLength="77.0547" x="511.5723" y="26.5332">string&lt;uuid&gt;</text><line style="stroke:#000000;stroke-width:1;" x1="506.5723" x2="506.5723" y1="10" y2="31.6094"/><line style="stroke:#000000;stroke-width:1;" x1="460" x2="593.627" y1="31.6094" y2="31.6094"/><text fill="#000000" font-family="sans-serif" font-size="14" font-weight="bold" lengthAdjust="spacing" textLength="33.4346" x="465" y="48.1426">login</text><text fill="#000000" font-family="sans-serif" font-size="14" lengthAdjust="spacing" textLength="34.2344" x="511.5723" y="48.1426">string</text><line style="stroke:#000000;stroke-width:1;" x1="506.5723" x2="506.5723" y1="31.6094" y2="53.2188"/><line style="stroke:#000000;stroke-width:1;" x1="460" x2="593.627" y1="53.2188" y2="53.2188"/><text fill="#000000" font-family="sans-serif" font-size="14" font-weight="bold" lengthAdjust="spacing" textLength="36.5723" x="465" y="69.752">name</text><text fill="#000000" font-family="sans-serif" font-size="14" lengthAdjust="spacing" textLength="34.2344" x="511.5723" y="69.752">string</text><line style="stroke:#000000;stroke-width:1;" x1="506.5723" x2="506.5723" y1="53.2188" y2="74.8281"/><line style="stroke:#000000;stroke-width:1;" x1="460" x2="593.627" y1="74.8281" y2="74.8281"/><text fill="#000000" font-family="sans-serif" font-size="14" font-weight="bold" lengthAdjust="spacing" textLength="35.7998" x="465" y="91.3613">email</text><text fill="#000000" font-family="sans-serif" font-size="14" lengthAdjust="spacing" textLength="34.2344" x="511.5723" y="91.3613">string</text><line style="stroke:#000000;stroke-width:1;" x1="506.5723" x2="506.5723" y1="74.8281" y2="96.4375"/><rect fill="none" height="86.4375" rx="5" ry="5" style="stroke:#000000;stroke-width:1.5;" width="133.627" x="460" y="10"/><rect fill="#F1F1F1" height="86.4375" rx="5" ry="5" style="stroke:#F1F1F1;stroke-width:1.5;" width="133.627" x="460" y="114"/><text fill="#000000" font-family="sans-serif" font-size="14" font-weight="bold" lengthAdjust="spacing" textLength="12.4414" x="465" y="130.5332">id</text><text fill="#000000" font-family="sans-serif" font-size="14" lengthAdjust="spacing" textLength="77.0547" x="511.5723" y="130.5332">string&lt;uuid&gt;</text><line style="stroke:#000000;stroke-width:1;" x1="506.5723" x2="506.5723" y1="114" y2="135.6094"/><line style="stroke:#000000;stroke-width:1;" x1="460" x2="593.627" y1="135.6094" y2="135.6094"/><text fill="#000000" font-family="sans-serif" font-size="14" font-weight="bold" lengthAdjust="spacing" textLength="33.4346" x="465" y="152.1426">login</text><text fill="#000000" font-family="sans-serif" font-size="14" lengthAdjust="spacing" textLength="34.2344" x="511.5723" y="152.1426">string</text><line style="stroke:#000000;stroke-width:1;" x1="506.5723" x2="506.5723" y1="135.6094" y2="157.2188"/><line style="stroke:#000000;stroke-width:1;" x1="460" x2="593.627" y1="157.2188" y2="157.2188"/><text fill="#000000" font-family="sans-serif" font-size="14" font-weight="bold" lengthAdjust="spacing" textLength="36.5723" x="465" y="173.752">name</text><text fill="#000000" font-family="sans-serif" font-size="14" lengthAdjust="spacing" textLength="34.2344" x="511.5723" y="173.752">string</text><line style="stroke:#000000;stroke-width:1;" x1="506.5723" x2="506.5723" y1="157.2188" y2="178.8281"/><line style="stroke:#000000;stroke-width:1;" x1="460" x2="593.627" y1="178.8281" y2="178.8281"/><text fill="#000000" font-family="sans-serif" font-size="14" font-weight="bold" lengthAdjust="spacing" textLength="35.7998" x="465" y="195.3613">email</text><text fill="#000000" font-family="sans-serif" font-size="14" lengthAdjust="spacing" textLength="34.2344" x="511.5723" y="195.3613">string</text><line style="stroke:#000000;stroke-width:1;" x1="506.5723" x2="506.5723" y1="178.8281" y2="200.4375"/><rect fill="none" height="86.4375" rx="5" ry="5" style="stroke:#000000;stroke-width:1.5;" width="133.627" x="460" y="114"/><rect fill="#F1F1F1" height="43.2188" rx="5" ry="5" style="stroke:#F1F1F1;stroke-width:1.5;" width="200.5303" x="426.5" y="218.6094"/><text fill="#000000" font-family="sans-serif" font-size="14" font-weight="bold" lengthAdjust="spacing" textLength="68.4619" x="431.5" y="235.1426">ipAddress</text><text fill="#000000" font-family="sans-serif" font-size="14" lengthAdjust="spacing" textLength="76.2686" x="509.9619" y="235.1426">string&lt;ipv4&gt;</text><line style="stroke:#000000;stroke-width:1;" x1="504.9619" x2="504.9619" y1="218.6094" y2="240.2188"/><line style="stroke:#000000;stroke-width:1;" x1="426.5" x2="627.0303" y1="240.2188" y2="240.2188"/><text fill="#000000" font-family="sans-serif" font-size="14" font-weight="bold" lengthAdjust="spacing" textLength="67.6826" x="431.5" y="256.752">hostName</text><text fill="#000000" font-family="sans-serif" font-size="14" lengthAdjust="spacing" textLength="112.0684" x="509.9619" y="256.752">string&lt;hostname&gt;</text><line style="stroke:#000000;stroke-width:1;" x1="504.9619" x2="504.9619" y1="240.2188" y2="261.8281"/><rect fill="none" height="43.2188" rx="5" ry="5" style="stroke:#000000;stroke-width:1.5;" width="200.5303" x="426.5" y="218.6094"/><rect fill="#F1F1F1" height="86.4375" rx="5" ry="5" style="stroke:#F1F1F1;stroke-width:1.5;" width="202.8408" x="177" y="229"/><text fill="#000000" font-family="sans-serif" font-size="14" font-weight="bold" lengthAdjust="spacing" textLength="67.6895" x="182" y="245.5332">ExternalId</text><text fill="#000000" font-family="sans-serif" font-size="14" lengthAdjust="spacing" textLength="77.0547" x="265.9033" y="245.5332">string&lt;guid&gt;</text><line style="stroke:#000000;stroke-width:1;" x1="260.9033" x2="260.9033" y1="229" y2="250.6094"/><line style="stroke:#000000;stroke-width:1;" x1="177" x2="379.8408" y1="250.6094" y2="250.6094"/><text fill="#000000" font-family="sans-serif" font-size="14" font-weight="bold" lengthAdjust="spacing" textLength="58.3584" x="182" y="267.1426">Bespoke</text><text fill="#000000" font-family="sans-serif" font-size="14" lengthAdjust="spacing" textLength="100.4131" x="265.9033" y="267.1426">string&lt;boolean&gt;</text><line style="stroke:#000000;stroke-width:1;" x1="260.9033" x2="260.9033" y1="250.6094" y2="272.2188"/><line style="stroke:#000000;stroke-width:1;" x1="177" x2="379.8408" y1="272.2188" y2="272.2188"/><text fill="#000000" font-family="sans-serif" font-size="14" font-weight="bold" lengthAdjust="spacing" textLength="73.9033" x="182" y="288.752">TemplateId</text><text fill="#000000" font-family="sans-serif" font-size="14" lengthAdjust="spacing" textLength="108.9375" x="265.9033" y="288.752">string&lt;FrontifyId&gt;</text><line style="stroke:#000000;stroke-width:1;" x1="260.9033" x2="260.9033" y1="272.2188" y2="293.8281"/><line style="stroke:#000000;stroke-width:1;" x1="177" x2="379.8408" y1="293.8281" y2="293.8281"/><text fill="#000000" font-family="sans-serif" font-size="14" font-weight="bold" lengthAdjust="spacing" textLength="62.2344" x="182" y="310.3613">Brochure</text><text fill="#000000" font-family="sans-serif" font-size="14" lengthAdjust="spacing" textLength="11.6689" x="265.9033" y="310.3613">&#160;&#160;&#160;</text><line style="stroke:#000000;stroke-width:1;" x1="260.9033" x2="260.9033" y1="293.8281" y2="315.4375"/><rect fill="none" height="86.4375" rx="5" ry="5" style="stroke:#000000;stroke-width:1.5;" width="202.8408" x="177" y="229"/><rect fill="#F1F1F1" height="21.6094" rx="5" ry="5" style="stroke:#F1F1F1;stroke-width:1.5;" width="21.6689" x="516" y="282.2188"/><text fill="#000000" font-family="sans-serif" font-size="14" lengthAdjust="spacing" textLength="11.6689" x="521" y="298.752">&#160;&#160;&#160;</text><rect fill="none" height="21.6094" rx="5" ry="5" style="stroke:#000000;stroke-width:1.5;" width="21.6689" x="516" y="282.2188"/><rect fill="#F1F1F1" height="64.8281" rx="5" ry="5" style="stroke:#F1F1F1;stroke-width:1.5;" width="91.5859" x="665" y="260.7188"/><text fill="#000000" font-family="sans-serif" font-size="14" font-weight="bold" lengthAdjust="spacing" textLength="25.6826" x="670" y="277.252">Key</text><text fill="#000000" font-family="sans-serif" font-size="14" lengthAdjust="spacing" textLength="34.2344" x="717.3516" y="277.252">string</text><line style="stroke:#000000;stroke-width:1;" x1="712.3516" x2="712.3516" y1="260.7188" y2="282.3281"/><line style="stroke:#000000;stroke-width:1;" x1="665" x2="756.5859" y1="282.3281" y2="282.3281"/><text fill="#000000" font-family="sans-serif" font-size="14" font-weight="bold" lengthAdjust="spacing" textLength="32.6758" x="670" y="298.8613">Type</text><text fill="#000000" font-family="sans-serif" font-size="14" lengthAdjust="spacing" textLength="34.2344" x="717.3516" y="298.8613">string</text><line style="stroke:#000000;stroke-width:1;" x1="712.3516" x2="712.3516" y1="282.3281" y2="303.9375"/><line style="stroke:#000000;stroke-width:1;" x1="665" x2="756.5859" y1="303.9375" y2="303.9375"/><text fill="#000000" font-family="sans-serif" font-size="14" font-weight="bold" lengthAdjust="spacing" textLength="37.3516" x="670" y="320.4707">Value</text><text fill="#000000" font-family="sans-serif" font-size="14" lengthAdjust="spacing" textLength="34.2344" x="717.3516" y="320.4707">string</text><line style="stroke:#000000;stroke-width:1;" x1="712.3516" x2="712.3516" y1="303.9375" y2="325.5469"/><rect fill="none" height="64.8281" rx="5" ry="5" style="stroke:#000000;stroke-width:1.5;" width="91.5859" x="665" y="260.7188"/><rect fill="#F1F1F1" height="21.6094" rx="5" ry="5" style="stroke:#F1F1F1;stroke-width:1.5;" width="93.9033" x="231.5" y="333.2188"/><text fill="#000000" font-family="sans-serif" font-size="14" font-weight="bold" lengthAdjust="spacing" textLength="62.2344" x="236.5" y="349.752">Brochure</text><text fill="#000000" font-family="sans-serif" font-size="14" lengthAdjust="spacing" textLength="11.6689" x="308.7344" y="349.752">&#160;&#160;&#160;</text><line style="stroke:#000000;stroke-width:1;" x1="303.7344" x2="303.7344" y1="333.2188" y2="354.8281"/><rect fill="none" height="21.6094" rx="5" ry="5" style="stroke:#000000;stroke-width:1.5;" width="93.9033" x="231.5" y="333.2188"/><rect fill="#F1F1F1" height="43.2188" rx="5" ry="5" style="stroke:#F1F1F1;stroke-width:1.5;" width="202.0479" x="426" y="322.6094"/><text fill="#000000" font-family="sans-serif" font-size="14" font-weight="bold" lengthAdjust="spacing" textLength="96.4619" x="431" y="339.1426">DocManagerId</text><text fill="#000000" font-family="sans-serif" font-size="14" lengthAdjust="spacing" textLength="85.5859" x="537.4619" y="339.1426">string&lt;GUID&gt;</text><line style="stroke:#000000;stroke-width:1;" x1="532.4619" x2="532.4619" y1="322.6094" y2="344.2188"/><line style="stroke:#000000;stroke-width:1;" x1="426" x2="628.0479" y1="344.2188" y2="344.2188"/><text fill="#000000" font-family="sans-serif" font-size="14" font-weight="bold" lengthAdjust="spacing" textLength="28.7725" x="431" y="360.752">URL</text><text fill="#000000" font-family="sans-serif" font-size="14" lengthAdjust="spacing" textLength="78.5928" x="537.4619" y="360.752">string&lt;URL&gt;</text><line style="stroke:#000000;stroke-width:1;" x1="532.4619" x2="532.4619" y1="344.2188" y2="365.8281"/><rect fill="none" height="43.2188" rx="5" ry="5" style="stroke:#000000;stroke-width:1.5;" width="202.0479" x="426" y="322.6094"/><rect fill="#F1F1F1" height="21.6094" rx="5" ry="5" style="stroke:#F1F1F1;stroke-width:1.5;" width="21.6689" x="267.5" y="378.2188"/><text fill="#000000" font-family="sans-serif" font-size="14" lengthAdjust="spacing" textLength="11.6689" x="272.5" y="394.752">&#160;&#160;&#160;</text><rect fill="none" height="21.6094" rx="5" ry="5" style="stroke:#000000;stroke-width:1.5;" width="21.6689" x="267.5" y="378.2188"/><rect fill="#F1F1F1" height="21.6094" rx="5" ry="5" style="stroke:#F1F1F1;stroke-width:1.5;" width="132.7998" x="460.5" y="384.2188"/><text fill="#000000" font-family="sans-serif" font-size="14" font-weight="bold" lengthAdjust="spacing" textLength="76.2275" x="465.5" y="400.752">Desctiption</text><text fill="#000000" font-family="sans-serif" font-size="14" lengthAdjust="spacing" textLength="36.5723" x="551.7275" y="400.752">String</text><line style="stroke:#000000;stroke-width:1;" x1="546.7275" x2="546.7275" y1="384.2188" y2="405.8281"/><rect fill="none" height="21.6094" rx="5" ry="5" style="stroke:#000000;stroke-width:1.5;" width="132.7998" x="460.5" y="384.2188"/><path d="M377,135.2188 L390,135.2188 C410.8273,135.2188 408.6488,116.7388 426,105.2188 C434.7764,99.3918 444.2859,93.7243 453.8361,88.4051" fill="none" style="stroke:#000000;stroke-width:1;stroke-dasharray:3,3;"/><path d="M455.2859,91.049 L455.819,87.3178 L452.3863,85.7612 L460.4458,84.7806 L455.2859,91.049" fill="#000000"/><ellipse cx="377" cy="135.2188" fill="#000000" rx="3" ry="3" style="stroke:#000000;stroke-width:1;"/><path d="M377,157.2188 L390,157.2188 C410.2779,157.2188 432.2503,157.2188 452.5189,157.2188" fill="none" style="stroke:#000000;stroke-width:1;stroke-dasharray:3,3;"/><path d="M452.5189,160.2898 L454.8222,157.2188 L452.5189,154.1477 L460.1965,157.2188 L452.5189,160.2898" fill="#000000"/><ellipse cx="377" cy="157.2188" fill="#000000" rx="3" ry="3" style="stroke:#000000;stroke-width:1;"/><path d="M377,179.2188 L390,179.2188 C410.8273,179.2188 407.6921,199.2891 426,209.2188 C430.1606,211.4753 434.509,213.5927 438.9645,215.5761" fill="none" style="stroke:#000000;stroke-width:1;stroke-dasharray:3,3;"/><path d="M437.7617,218.4073 L441.088,216.4782 L440.1673,212.7448 L446.0427,218.5831 L437.7617,218.4073" fill="#000000"/><ellipse cx="377" cy="179.2188" fill="#000000" rx="3" ry="3" style="stroke:#000000;stroke-width:1;"/><path d="M119,275.2188 L132,275.2188 C161.2153,275.2188 146.737,240.2541 168,220.2188 C169.4015,218.8982 170.8357,217.5943 172.2988,216.3074" fill="none" style="stroke:#000000;stroke-width:1;stroke-dasharray:3,3;"/><path d="M174.2499,218.6186 L174.0321,214.844 L170.3476,213.9963 L178.0766,211.4295 L174.2499,218.6186" fill="#000000"/><ellipse cx="119" cy="275.2188" fill="#000000" rx="3" ry="3" style="stroke:#000000;stroke-width:1;"/><path d="M525.672,293.2188 L538.672,293.2188 C561.8303,293.2188 616.3673,293.2188 657.8366,293.2188" fill="none" style="stroke:#000000;stroke-width:1;stroke-dasharray:3,3;"/><path d="M657.8366,296.251 L660.1108,293.2188 L657.8366,290.1865 L665.4172,293.2188 L657.8366,296.251" fill="#000000"/><ellipse cx="525.672" cy="293.2188" fill="#000000" rx="3" ry="3" style="stroke:#000000;stroke-width:1;"/><path d="M368,304.2188 L381,304.2188 C427.1447,304.2188 481.2878,298.6494 508.6837,295.4365" fill="none" style="stroke:#000000;stroke-width:1;stroke-dasharray:3,3;"/><path d="M509.0488,298.4785 L510.9652,295.1627 L508.3186,292.3945 L516.2887,294.5238 L509.0488,298.4785" fill="#000000"/><ellipse cx="368" cy="304.2188" fill="#000000" rx="3" ry="3" style="stroke:#000000;stroke-width:1;"/><path d="M119,297.2188 L132,297.2188 C144.3608,297.2188 157.2269,296.3374 169.9729,294.9057" fill="none" style="stroke:#000000;stroke-width:1;stroke-dasharray:3,3;"/><path d="M170.3345,297.9001 L172.2187,294.6345 L169.6112,291.9113 L177.4588,294.0016 L170.3345,297.9001" fill="#000000"/><ellipse cx="119" cy="297.2188" fill="#000000" rx="3" ry="3" style="stroke:#000000;stroke-width:1;"/><path d="M314,344.2188 L327,344.2188 C356.7743,344.2188 389.0481,344.2188 418.7854,344.2188" fill="none" style="stroke:#000000;stroke-width:1;stroke-dasharray:3,3;"/><path d="M418.7854,347.2198 L421.0362,344.2188 L418.7854,341.2177 L426.288,344.2188 L418.7854,347.2198" fill="#000000"/><ellipse cx="314" cy="344.2188" fill="#000000" rx="3" ry="3" style="stroke:#000000;stroke-width:1;"/><path d="M119,319.2188 L132,319.2188 C136.7314,319.2188 184.2852,327.483 223.8558,334.5084" fill="none" style="stroke:#000000;stroke-width:1;stroke-dasharray:3,3;"/><path d="M223.3015,337.6254 L226.1935,334.9241 L224.4101,331.3913 L231.6484,335.8941 L223.3015,337.6254" fill="#000000"/><ellipse cx="119" cy="319.2188" fill="#000000" rx="3" ry="3" style="stroke:#000000;stroke-width:1;"/><path d="M277.2815,389.1771 L290.2777,389.4921 C318.6505,390.18 394.887,392.0281 453.1485,393.4405" fill="none" style="stroke:#000000;stroke-width:1;stroke-dasharray:3,3;"/><path d="M453.0736,396.5337 L455.4684,393.4968 L453.2235,390.3474 L460.8814,393.628 L453.0736,396.5337" fill="#000000"/><ellipse cx="277.2815" cy="389.1771" fill="#000000" rx="3" ry="3" style="stroke:#000000;stroke-width:1;"/><path d="M119,340.2188 L132,340.2188 C151.2296,340.2188 150.3316,356.6289 168,364.2188 C198.9542,377.5159 237.9773,384.2311 260.2483,387.2058" fill="none" style="stroke:#000000;stroke-width:1;stroke-dasharray:3,3;"/><path d="M259.8631,390.2712 L262.5473,387.4947 L260.6334,384.1404 L267.9118,388.1687 L259.8631,390.2712" fill="#000000"/><ellipse cx="119" cy="340.2188" fill="#000000" rx="3" ry="3" style="stroke:#000000;stroke-width:1;"/><!--SRC=[pLHDJzj04BtlhnZvb4Wj8Yb9aOKG2KdJG5oXV5qg3eizc6tjtUr-H8rG_djtRH9i4pZN1qipysRcpPknhxIXolpIWfDd0ku9faa08GJQACRJu5Ff7DY4cI244bEujB0gne6KGHDTXAr6LKielAnQ_C9QbbnMaWf89bB6ZzOimfpc-7uKSygoIlWGtLMeiLoYSXDJuo7_9ySdePtUJMPoa2GAjGx2FJqcDsTlwFda7mM7FSnxFAlBuzqCoz4TGbxPvKL23Nh_IyeBF9ZZ7-kmNgBACOp_6bISPkvuNYka3Uc28MefVcDLtWSXCgIy1bjYBZFNlLRicnBSiCVjj55IYVZ9AY_tpve8pr0p7VGMj-yknNVTIlmelgQPnMDhAzGvMFSDjTp4N6FbobufroKSYJYYdAQeQdDFLjDHRUBLV5O9E-kmqrsjzLWfeNoFlIxLNgXZmwHXWXVBMDH6AklS-nVPaIlaIV5_87SPvMOLpM3ZFX-N2fsJxcctT_Ar5JbZWH9Epw7J3tlzyCiv31TByE4sQKtkPb3-BY1XdlY3zQtRv8PkACmjztSMWhTQowWDY_7U2ME-OMxpEN93RjPH2OBlmYoaC0MuV_Pvo8nhhnmjM4TaX8_KPiQbnY9nOuLmBJlTNfVCA4-j4pW4vEHQk0vg6y9a-0y0]--></g></svg>