<svg xmlns="http://www.w3.org/2000/svg" xmlns:xlink="http://www.w3.org/1999/xlink" contentStyleType="text/css" data-diagram-type="JSON" height="348px" preserveAspectRatio="none" style="width:733px;height:348px;background:#FFFFFF;" version="1.1" viewBox="0 0 733 348" width="733px" zoomAndPan="magnify"><defs/><g><rect fill="#F1F1F1" height="43.2188" rx="5" ry="5" style="stroke:#F1F1F1;stroke-width:1.5;" width="86.9033" x="10" y="192.6094"/><text fill="#000000" font-family="sans-serif" font-size="14" font-weight="bold" lengthAdjust="spacing" textLength="35.7656" x="15" y="209.1426">Audit</text><text fill="#000000" font-family="sans-serif" font-size="14" lengthAdjust="spacing" textLength="11.6689" x="80.2344" y="209.1426">&#160;&#160;&#160;</text><line style="stroke:#000000;stroke-width:1;" x1="75.2344" x2="75.2344" y1="192.6094" y2="214.2188"/><line style="stroke:#000000;stroke-width:1;" x1="10" x2="96.9033" y1="214.2188" y2="214.2188"/><text fill="#000000" font-family="sans-serif" font-size="14" font-weight="bold" lengthAdjust="spacing" textLength="55.2344" x="15" y="230.752">Request</text><text fill="#000000" font-family="sans-serif" font-size="14" lengthAdjust="spacing" textLength="11.6689" x="80.2344" y="230.752">&#160;&#160;&#160;</text><line style="stroke:#000000;stroke-width:1;" x1="75.2344" x2="75.2344" y1="214.2188" y2="235.8281"/><rect fill="none" height="43.2188" rx="5" ry="5" style="stroke:#000000;stroke-width:1.5;" width="86.9033" x="10" y="192.6094"/><rect fill="#F1F1F1" height="108.0469" rx="5" ry="5" style="stroke:#F1F1F1;stroke-width:1.5;" width="220.7373" x="134" y="103.1953"/><text fill="#000000" font-family="sans-serif" font-size="14" font-weight="bold" lengthAdjust="spacing" textLength="73.124" x="139" y="119.7285">sourceApp</text><text fill="#000000" font-family="sans-serif" font-size="14" lengthAdjust="spacing" textLength="34.2344" x="245.4551" y="119.7285">string</text><line style="stroke:#000000;stroke-width:1;" x1="240.4551" x2="240.4551" y1="103.1953" y2="124.8047"/><line style="stroke:#000000;stroke-width:1;" x1="134" x2="354.7373" y1="124.8047" y2="124.8047"/><text fill="#000000" font-family="sans-serif" font-size="14" font-weight="bold" lengthAdjust="spacing" textLength="29.5723" x="139" y="141.3379">user</text><text fill="#000000" font-family="sans-serif" font-size="14" lengthAdjust="spacing" textLength="11.6689" x="245.4551" y="141.3379">&#160;&#160;&#160;</text><line style="stroke:#000000;stroke-width:1;" x1="240.4551" x2="240.4551" y1="124.8047" y2="146.4141"/><line style="stroke:#000000;stroke-width:1;" x1="134" x2="354.7373" y1="146.4141" y2="146.4141"/><text fill="#000000" font-family="sans-serif" font-size="14" font-weight="bold" lengthAdjust="spacing" textLength="96.4551" x="139" y="162.9473">impersonating</text><text fill="#000000" font-family="sans-serif" font-size="14" lengthAdjust="spacing" textLength="11.6689" x="245.4551" y="162.9473">&#160;&#160;&#160;</text><line style="stroke:#000000;stroke-width:1;" x1="240.4551" x2="240.4551" y1="146.4141" y2="168.0234"/><line style="stroke:#000000;stroke-width:1;" x1="134" x2="354.7373" y1="168.0234" y2="168.0234"/><text fill="#000000" font-family="sans-serif" font-size="14" font-weight="bold" lengthAdjust="spacing" textLength="29.5518" x="139" y="184.5566">host</text><text fill="#000000" font-family="sans-serif" font-size="14" lengthAdjust="spacing" textLength="11.6689" x="245.4551" y="184.5566">&#160;&#160;&#160;</text><line style="stroke:#000000;stroke-width:1;" x1="240.4551" x2="240.4551" y1="168.0234" y2="189.6328"/><line style="stroke:#000000;stroke-width:1;" x1="134" x2="354.7373" y1="189.6328" y2="189.6328"/><text fill="#000000" font-family="sans-serif" font-size="14" font-weight="bold" lengthAdjust="spacing" textLength="70.0205" x="139" y="206.166">timestamp</text><text fill="#000000" font-family="sans-serif" font-size="14" lengthAdjust="spacing" textLength="104.2822" x="245.4551" y="206.166">string&lt;datetime&gt;</text><line style="stroke:#000000;stroke-width:1;" x1="240.4551" x2="240.4551" y1="189.6328" y2="211.2422"/><rect fill="none" height="108.0469" rx="5" ry="5" style="stroke:#000000;stroke-width:1.5;" width="220.7373" x="134" y="103.1953"/><rect fill="#F1F1F1" height="86.4375" rx="5" ry="5" style="stroke:#F1F1F1;stroke-width:1.5;" width="133.627" x="425.5" y="10"/><text fill="#000000" font-family="sans-serif" font-size="14" font-weight="bold" lengthAdjust="spacing" textLength="12.4414" x="430.5" y="26.5332">id</text><text fill="#000000" font-family="sans-serif" font-size="14" lengthAdjust="spacing" textLength="77.0547" x="477.0723" y="26.5332">string&lt;uuid&gt;</text><line style="stroke:#000000;stroke-width:1;" x1="472.0723" x2="472.0723" y1="10" y2="31.6094"/><line style="stroke:#000000;stroke-width:1;" x1="425.5" x2="559.127" y1="31.6094" y2="31.6094"/><text fill="#000000" font-family="sans-serif" font-size="14" font-weight="bold" lengthAdjust="spacing" textLength="33.4346" x="430.5" y="48.1426">login</text><text fill="#000000" font-family="sans-serif" font-size="14" lengthAdjust="spacing" textLength="34.2344" x="477.0723" y="48.1426">string</text><line style="stroke:#000000;stroke-width:1;" x1="472.0723" x2="472.0723" y1="31.6094" y2="53.2188"/><line style="stroke:#000000;stroke-width:1;" x1="425.5" x2="559.127" y1="53.2188" y2="53.2188"/><text fill="#000000" font-family="sans-serif" font-size="14" font-weight="bold" lengthAdjust="spacing" textLength="36.5723" x="430.5" y="69.752">name</text><text fill="#000000" font-family="sans-serif" font-size="14" lengthAdjust="spacing" textLength="34.2344" x="477.0723" y="69.752">string</text><line style="stroke:#000000;stroke-width:1;" x1="472.0723" x2="472.0723" y1="53.2188" y2="74.8281"/><line style="stroke:#000000;stroke-width:1;" x1="425.5" x2="559.127" y1="74.8281" y2="74.8281"/><text fill="#000000" font-family="sans-serif" font-size="14" font-weight="bold" lengthAdjust="spacing" textLength="35.7998" x="430.5" y="91.3613">email</text><text fill="#000000" font-family="sans-serif" font-size="14" lengthAdjust="spacing" textLength="34.2344" x="477.0723" y="91.3613">string</text><line style="stroke:#000000;stroke-width:1;" x1="472.0723" x2="472.0723" y1="74.8281" y2="96.4375"/><rect fill="none" height="86.4375" rx="5" ry="5" style="stroke:#000000;stroke-width:1.5;" width="133.627" x="425.5" y="10"/><rect fill="#F1F1F1" height="86.4375" rx="5" ry="5" style="stroke:#F1F1F1;stroke-width:1.5;" width="133.627" x="425.5" y="114"/><text fill="#000000" font-family="sans-serif" font-size="14" font-weight="bold" lengthAdjust="spacing" textLength="12.4414" x="430.5" y="130.5332">id</text><text fill="#000000" font-family="sans-serif" font-size="14" lengthAdjust="spacing" textLength="77.0547" x="477.0723" y="130.5332">string&lt;uuid&gt;</text><line style="stroke:#000000;stroke-width:1;" x1="472.0723" x2="472.0723" y1="114" y2="135.6094"/><line style="stroke:#000000;stroke-width:1;" x1="425.5" x2="559.127" y1="135.6094" y2="135.6094"/><text fill="#000000" font-family="sans-serif" font-size="14" font-weight="bold" lengthAdjust="spacing" textLength="33.4346" x="430.5" y="152.1426">login</text><text fill="#000000" font-family="sans-serif" font-size="14" lengthAdjust="spacing" textLength="34.2344" x="477.0723" y="152.1426">string</text><line style="stroke:#000000;stroke-width:1;" x1="472.0723" x2="472.0723" y1="135.6094" y2="157.2188"/><line style="stroke:#000000;stroke-width:1;" x1="425.5" x2="559.127" y1="157.2188" y2="157.2188"/><text fill="#000000" font-family="sans-serif" font-size="14" font-weight="bold" lengthAdjust="spacing" textLength="36.5723" x="430.5" y="173.752">name</text><text fill="#000000" font-family="sans-serif" font-size="14" lengthAdjust="spacing" textLength="34.2344" x="477.0723" y="173.752">string</text><line style="stroke:#000000;stroke-width:1;" x1="472.0723" x2="472.0723" y1="157.2188" y2="178.8281"/><line style="stroke:#000000;stroke-width:1;" x1="425.5" x2="559.127" y1="178.8281" y2="178.8281"/><text fill="#000000" font-family="sans-serif" font-size="14" font-weight="bold" lengthAdjust="spacing" textLength="35.7998" x="430.5" y="195.3613">email</text><text fill="#000000" font-family="sans-serif" font-size="14" lengthAdjust="spacing" textLength="34.2344" x="477.0723" y="195.3613">string</text><line style="stroke:#000000;stroke-width:1;" x1="472.0723" x2="472.0723" y1="178.8281" y2="200.4375"/><rect fill="none" height="86.4375" rx="5" ry="5" style="stroke:#000000;stroke-width:1.5;" width="133.627" x="425.5" y="114"/><rect fill="#F1F1F1" height="43.2188" rx="5" ry="5" style="stroke:#F1F1F1;stroke-width:1.5;" width="200.5303" x="392" y="218.6094"/><text fill="#000000" font-family="sans-serif" font-size="14" font-weight="bold" lengthAdjust="spacing" textLength="68.4619" x="397" y="235.1426">ipAddress</text><text fill="#000000" font-family="sans-serif" font-size="14" lengthAdjust="spacing" textLength="76.2686" x="475.4619" y="235.1426">string&lt;ipv4&gt;</text><line style="stroke:#000000;stroke-width:1;" x1="470.4619" x2="470.4619" y1="218.6094" y2="240.2188"/><line style="stroke:#000000;stroke-width:1;" x1="392" x2="592.5303" y1="240.2188" y2="240.2188"/><text fill="#000000" font-family="sans-serif" font-size="14" font-weight="bold" lengthAdjust="spacing" textLength="67.6826" x="397" y="256.752">hostName</text><text fill="#000000" font-family="sans-serif" font-size="14" lengthAdjust="spacing" textLength="112.0684" x="475.4619" y="256.752">string&lt;hostname&gt;</text><line style="stroke:#000000;stroke-width:1;" x1="470.4619" x2="470.4619" y1="240.2188" y2="261.8281"/><rect fill="none" height="43.2188" rx="5" ry="5" style="stroke:#000000;stroke-width:1.5;" width="200.5303" x="392" y="218.6094"/><rect fill="#F1F1F1" height="86.4375" rx="5" ry="5" style="stroke:#F1F1F1;stroke-width:1.5;" width="202.8408" x="143" y="229"/><text fill="#000000" font-family="sans-serif" font-size="14" font-weight="bold" lengthAdjust="spacing" textLength="12.4414" x="148" y="245.5332">Id</text><text fill="#000000" font-family="sans-serif" font-size="14" lengthAdjust="spacing" textLength="85.5859" x="231.9033" y="245.5332">string&lt;GUID&gt;</text><line style="stroke:#000000;stroke-width:1;" x1="226.9033" x2="226.9033" y1="229" y2="250.6094"/><line style="stroke:#000000;stroke-width:1;" x1="143" x2="345.8408" y1="250.6094" y2="250.6094"/><text fill="#000000" font-family="sans-serif" font-size="14" font-weight="bold" lengthAdjust="spacing" textLength="52.1104" x="148" y="267.1426">Custom</text><text fill="#000000" font-family="sans-serif" font-size="14" lengthAdjust="spacing" textLength="100.4131" x="231.9033" y="267.1426">string&lt;boolean&gt;</text><line style="stroke:#000000;stroke-width:1;" x1="226.9033" x2="226.9033" y1="250.6094" y2="272.2188"/><line style="stroke:#000000;stroke-width:1;" x1="143" x2="345.8408" y1="272.2188" y2="272.2188"/><text fill="#000000" font-family="sans-serif" font-size="14" font-weight="bold" lengthAdjust="spacing" textLength="73.9033" x="148" y="288.752">TemplateId</text><text fill="#000000" font-family="sans-serif" font-size="14" lengthAdjust="spacing" textLength="108.9375" x="231.9033" y="288.752">string&lt;FrontifyId&gt;</text><line style="stroke:#000000;stroke-width:1;" x1="226.9033" x2="226.9033" y1="272.2188" y2="293.8281"/><line style="stroke:#000000;stroke-width:1;" x1="143" x2="345.8408" y1="293.8281" y2="293.8281"/><text fill="#000000" font-family="sans-serif" font-size="14" font-weight="bold" lengthAdjust="spacing" textLength="62.2344" x="148" y="310.3613">Brochure</text><text fill="#000000" font-family="sans-serif" font-size="14" lengthAdjust="spacing" textLength="11.6689" x="231.9033" y="310.3613">&#160;&#160;&#160;</text><line style="stroke:#000000;stroke-width:1;" x1="226.9033" x2="226.9033" y1="293.8281" y2="315.4375"/><rect fill="none" height="86.4375" rx="5" ry="5" style="stroke:#000000;stroke-width:1.5;" width="202.8408" x="143" y="229"/><rect fill="#F1F1F1" height="21.6094" rx="5" ry="5" style="stroke:#F1F1F1;stroke-width:1.5;" width="21.6689" x="481.5" y="293.2188"/><text fill="#000000" font-family="sans-serif" font-size="14" lengthAdjust="spacing" textLength="11.6689" x="486.5" y="309.752">&#160;&#160;&#160;</text><rect fill="none" height="21.6094" rx="5" ry="5" style="stroke:#000000;stroke-width:1.5;" width="21.6689" x="481.5" y="293.2188"/><rect fill="#F1F1F1" height="64.8281" rx="5" ry="5" style="stroke:#F1F1F1;stroke-width:1.5;" width="91.5859" x="630" y="271.7188"/><text fill="#000000" font-family="sans-serif" font-size="14" font-weight="bold" lengthAdjust="spacing" textLength="25.6826" x="635" y="288.252">Key</text><text fill="#000000" font-family="sans-serif" font-size="14" lengthAdjust="spacing" textLength="34.2344" x="682.3516" y="288.252">string</text><line style="stroke:#000000;stroke-width:1;" x1="677.3516" x2="677.3516" y1="271.7188" y2="293.3281"/><line style="stroke:#000000;stroke-width:1;" x1="630" x2="721.5859" y1="293.3281" y2="293.3281"/><text fill="#000000" font-family="sans-serif" font-size="14" font-weight="bold" lengthAdjust="spacing" textLength="32.6758" x="635" y="309.8613">Type</text><text fill="#000000" font-family="sans-serif" font-size="14" lengthAdjust="spacing" textLength="34.2344" x="682.3516" y="309.8613">string</text><line style="stroke:#000000;stroke-width:1;" x1="677.3516" x2="677.3516" y1="293.3281" y2="314.9375"/><line style="stroke:#000000;stroke-width:1;" x1="630" x2="721.5859" y1="314.9375" y2="314.9375"/><text fill="#000000" font-family="sans-serif" font-size="14" font-weight="bold" lengthAdjust="spacing" textLength="37.3516" x="635" y="331.4707">Value</text><text fill="#000000" font-family="sans-serif" font-size="14" lengthAdjust="spacing" textLength="34.2344" x="682.3516" y="331.4707">string</text><line style="stroke:#000000;stroke-width:1;" x1="677.3516" x2="677.3516" y1="314.9375" y2="336.5469"/><rect fill="none" height="64.8281" rx="5" ry="5" style="stroke:#000000;stroke-width:1.5;" width="91.5859" x="630" y="271.7188"/><path d="M343,135.2188 L356,135.2188 C376.8273,135.2188 374.6605,116.7565 392,105.2188 C400.521,99.5488 409.7345,94.0251 419.0019,88.8245" fill="none" style="stroke:#000000;stroke-width:1;stroke-dasharray:3,3;"/><path d="M420.4928,91.5239 L421.0264,87.7063 L417.511,86.1251 L425.7504,85.0973 L420.4928,91.5239" fill="#000000"/><ellipse cx="343" cy="135.2188" fill="#000000" rx="3" ry="3" style="stroke:#000000;stroke-width:1;"/><path d="M343,157.2188 L356,157.2188 C376.2036,157.2188 398.0956,157.2188 418.2899,157.2188" fill="none" style="stroke:#000000;stroke-width:1;stroke-dasharray:3,3;"/><path d="M418.2899,160.2786 L420.5847,157.2188 L418.2899,154.1589 L425.9394,157.2188 L418.2899,160.2786" fill="#000000"/><ellipse cx="343" cy="157.2188" fill="#000000" rx="3" ry="3" style="stroke:#000000;stroke-width:1;"/><path d="M343,179.2188 L356,179.2188 C376.8273,179.2188 373.6991,199.2762 392,209.2188 C396.1401,211.468 400.467,213.5796 404.9006,215.5583" fill="none" style="stroke:#000000;stroke-width:1;stroke-dasharray:3,3;"/><path d="M403.7002,218.3756 L407.0135,216.4585 L406.1009,212.741 L411.9437,218.5591 L403.7002,218.3756" fill="#000000"/><ellipse cx="343" cy="179.2188" fill="#000000" rx="3" ry="3" style="stroke:#000000;stroke-width:1;"/><path d="M85,203.2188 L98,203.2188 C107.5298,203.2188 117.2546,202.3162 126.9326,200.7639" fill="none" style="stroke:#000000;stroke-width:1;stroke-dasharray:3,3;"/><path d="M127.4564,203.719 L129.1489,200.371 L126.4088,197.8088 L134.3203,199.4544 L127.4564,203.719" fill="#000000"/><ellipse cx="85" cy="203.2188" fill="#000000" rx="3" ry="3" style="stroke:#000000;stroke-width:1;"/><path d="M491.1415,304.2188 L504.1415,304.2188 C527.1636,304.2188 581.2817,304.2188 622.5887,304.2188" fill="none" style="stroke:#000000;stroke-width:1;stroke-dasharray:3,3;"/><path d="M622.5887,307.2401 L624.8547,304.2188 L622.5887,301.1974 L630.1422,304.2188 L622.5887,307.2401" fill="#000000"/><ellipse cx="491.1415" cy="304.2188" fill="#000000" rx="3" ry="3" style="stroke:#000000;stroke-width:1;"/><path d="M334,304.2188 L347,304.2188 C392.8553,304.2188 446.8677,304.2188 474.2123,304.2188" fill="none" style="stroke:#000000;stroke-width:1;stroke-dasharray:3,3;"/><path d="M474.2123,307.2554 L476.4897,304.2188 L474.2123,301.1821 L481.8038,304.2188 L474.2123,307.2554" fill="#000000"/><ellipse cx="334" cy="304.2188" fill="#000000" rx="3" ry="3" style="stroke:#000000;stroke-width:1;"/><path d="M85,225.2188 L98,225.2188 C110.4653,225.2188 123.2538,226.7903 135.8304,229.3588" fill="none" style="stroke:#000000;stroke-width:1;stroke-dasharray:3,3;"/><path d="M135.1812,232.3093 L138.0433,229.8457 L136.4797,226.4082 L143.2068,230.9819 L135.1812,232.3093" fill="#000000"/><ellipse cx="85" cy="225.2188" fill="#000000" rx="3" ry="3" style="stroke:#000000;stroke-width:1;"/><!--SRC=[pLDDRnen4BtxLuny0gcD0WqqMaLHWAIKbAsYGBXKFJXuGbpjsgu_a52K_zxn4iXkIdhktcRUcttFR-mB7uGBlxpHx8a1VNmGfGeyWsrPjRo9Rea3QwdDVN1Ah_Y7LpXwT8s1ggiaXptzB4Obpsj35QKmAwKF_hE2jIZnVHHBeOeQl4UVQzPKQT7HuKH8bF_JuwFnbFTRPtOWfKFlURQpf-pwv2zxQVXxvM57IvtawlomMb0bqixBsYxFf0YO-YyZBtH-YxyZSLD4jSimaRN9yTtaikw9Zw8FfgodUczCWK8tM7CiRK6YZNzzSKO7zR2PD9R0Xyui7wDBAVzedFq96YLHl-7ctLqarOt5V-4BKKGyjAqgb7trSniIUsRi0hMitWwxAOGET_aKrdJVbD7GEUeUTtj7driv5JEqS7mAdNxMwsUVJc4ucqE2swmrlfd2zds1L4duFWQQRxDhiHPm6tLQJ0QfQitpDiokTasuqcj5cPMe0xjUv5iIV3LXPaseoFsJZqCLIDwHBLZax18VH2m2ZIwDf3DcCBATRg_BfaAlebYH4cesCgJWDXcCXty0]--></g></svg>