<svg xmlns="http://www.w3.org/2000/svg" xmlns:xlink="http://www.w3.org/1999/xlink" contentStyleType="text/css" data-diagram-type="JSON" height="366px" preserveAspectRatio="none" style="width:755px;height:366px;background:#FFFFFF;" version="1.1" viewBox="0 0 755 366" width="755px" zoomAndPan="magnify"><defs/><g><rect fill="#F1F1F1" height="86.4375" rx="5" ry="5" style="stroke:#F1F1F1;stroke-width:1.5;" width="109.4688" x="10" y="218"/><text fill="#000000" font-family="sans-serif" font-size="14" font-weight="bold" lengthAdjust="spacing" textLength="12.4414" x="15" y="234.5332">Id</text><text fill="#000000" font-family="sans-serif" font-size="14" lengthAdjust="spacing" textLength="34.2344" x="80.2344" y="234.5332">string</text><line style="stroke:#000000;stroke-width:1;" x1="75.2344" x2="75.2344" y1="218" y2="239.6094"/><line style="stroke:#000000;stroke-width:1;" x1="10" x2="119.4688" y1="239.6094" y2="239.6094"/><text fill="#000000" font-family="sans-serif" font-size="14" font-weight="bold" lengthAdjust="spacing" textLength="35.7656" x="15" y="256.1426">Audit</text><text fill="#000000" font-family="sans-serif" font-size="14" lengthAdjust="spacing" textLength="11.6689" x="80.2344" y="256.1426">&#160;&#160;&#160;</text><line style="stroke:#000000;stroke-width:1;" x1="75.2344" x2="75.2344" y1="239.6094" y2="261.2188"/><line style="stroke:#000000;stroke-width:1;" x1="10" x2="119.4688" y1="261.2188" y2="261.2188"/><text fill="#000000" font-family="sans-serif" font-size="14" font-weight="bold" lengthAdjust="spacing" textLength="55.2344" x="15" y="277.752">Request</text><text fill="#000000" font-family="sans-serif" font-size="14" lengthAdjust="spacing" textLength="11.6689" x="80.2344" y="277.752">&#160;&#160;&#160;</text><line style="stroke:#000000;stroke-width:1;" x1="75.2344" x2="75.2344" y1="261.2188" y2="282.8281"/><line style="stroke:#000000;stroke-width:1;" x1="10" x2="119.4688" y1="282.8281" y2="282.8281"/><text fill="#000000" font-family="sans-serif" font-size="14" font-weight="bold" lengthAdjust="spacing" textLength="34.2344" x="15" y="299.3613">Error</text><text fill="#000000" font-family="sans-serif" font-size="14" lengthAdjust="spacing" textLength="11.6689" x="80.2344" y="299.3613">&#160;&#160;&#160;</text><line style="stroke:#000000;stroke-width:1;" x1="75.2344" x2="75.2344" y1="282.8281" y2="304.4375"/><rect fill="none" height="86.4375" rx="5" ry="5" style="stroke:#000000;stroke-width:1.5;" width="109.4688" x="10" y="218"/><rect fill="#F1F1F1" height="108.0469" rx="5" ry="5" style="stroke:#F1F1F1;stroke-width:1.5;" width="220.7373" x="156" y="103.1953"/><text fill="#000000" font-family="sans-serif" font-size="14" font-weight="bold" lengthAdjust="spacing" textLength="73.124" x="161" y="119.7285">sourceApp</text><text fill="#000000" font-family="sans-serif" font-size="14" lengthAdjust="spacing" textLength="34.2344" x="267.4551" y="119.7285">string</text><line style="stroke:#000000;stroke-width:1;" x1="262.4551" x2="262.4551" y1="103.1953" y2="124.8047"/><line style="stroke:#000000;stroke-width:1;" x1="156" x2="376.7373" y1="124.8047" y2="124.8047"/><text fill="#000000" font-family="sans-serif" font-size="14" font-weight="bold" lengthAdjust="spacing" textLength="29.5723" x="161" y="141.3379">user</text><text fill="#000000" font-family="sans-serif" font-size="14" lengthAdjust="spacing" textLength="11.6689" x="267.4551" y="141.3379">&#160;&#160;&#160;</text><line style="stroke:#000000;stroke-width:1;" x1="262.4551" x2="262.4551" y1="124.8047" y2="146.4141"/><line style="stroke:#000000;stroke-width:1;" x1="156" x2="376.7373" y1="146.4141" y2="146.4141"/><text fill="#000000" font-family="sans-serif" font-size="14" font-weight="bold" lengthAdjust="spacing" textLength="96.4551" x="161" y="162.9473">impersonating</text><text fill="#000000" font-family="sans-serif" font-size="14" lengthAdjust="spacing" textLength="11.6689" x="267.4551" y="162.9473">&#160;&#160;&#160;</text><line style="stroke:#000000;stroke-width:1;" x1="262.4551" x2="262.4551" y1="146.4141" y2="168.0234"/><line style="stroke:#000000;stroke-width:1;" x1="156" x2="376.7373" y1="168.0234" y2="168.0234"/><text fill="#000000" font-family="sans-serif" font-size="14" font-weight="bold" lengthAdjust="spacing" textLength="29.5518" x="161" y="184.5566">host</text><text fill="#000000" font-family="sans-serif" font-size="14" lengthAdjust="spacing" textLength="11.6689" x="267.4551" y="184.5566">&#160;&#160;&#160;</text><line style="stroke:#000000;stroke-width:1;" x1="262.4551" x2="262.4551" y1="168.0234" y2="189.6328"/><line style="stroke:#000000;stroke-width:1;" x1="156" x2="376.7373" y1="189.6328" y2="189.6328"/><text fill="#000000" font-family="sans-serif" font-size="14" font-weight="bold" lengthAdjust="spacing" textLength="70.0205" x="161" y="206.166">timestamp</text><text fill="#000000" font-family="sans-serif" font-size="14" lengthAdjust="spacing" textLength="104.2822" x="267.4551" y="206.166">string&lt;datetime&gt;</text><line style="stroke:#000000;stroke-width:1;" x1="262.4551" x2="262.4551" y1="189.6328" y2="211.2422"/><rect fill="none" height="108.0469" rx="5" ry="5" style="stroke:#000000;stroke-width:1.5;" width="220.7373" x="156" y="103.1953"/><rect fill="#F1F1F1" height="86.4375" rx="5" ry="5" style="stroke:#F1F1F1;stroke-width:1.5;" width="133.627" x="447.5" y="10"/><text fill="#000000" font-family="sans-serif" font-size="14" font-weight="bold" lengthAdjust="spacing" textLength="12.4414" x="452.5" y="26.5332">id</text><text fill="#000000" font-family="sans-serif" font-size="14" lengthAdjust="spacing" textLength="77.0547" x="499.0723" y="26.5332">string&lt;uuid&gt;</text><line style="stroke:#000000;stroke-width:1;" x1="494.0723" x2="494.0723" y1="10" y2="31.6094"/><line style="stroke:#000000;stroke-width:1;" x1="447.5" x2="581.127" y1="31.6094" y2="31.6094"/><text fill="#000000" font-family="sans-serif" font-size="14" font-weight="bold" lengthAdjust="spacing" textLength="33.4346" x="452.5" y="48.1426">login</text><text fill="#000000" font-family="sans-serif" font-size="14" lengthAdjust="spacing" textLength="34.2344" x="499.0723" y="48.1426">string</text><line style="stroke:#000000;stroke-width:1;" x1="494.0723" x2="494.0723" y1="31.6094" y2="53.2188"/><line style="stroke:#000000;stroke-width:1;" x1="447.5" x2="581.127" y1="53.2188" y2="53.2188"/><text fill="#000000" font-family="sans-serif" font-size="14" font-weight="bold" lengthAdjust="spacing" textLength="36.5723" x="452.5" y="69.752">name</text><text fill="#000000" font-family="sans-serif" font-size="14" lengthAdjust="spacing" textLength="34.2344" x="499.0723" y="69.752">string</text><line style="stroke:#000000;stroke-width:1;" x1="494.0723" x2="494.0723" y1="53.2188" y2="74.8281"/><line style="stroke:#000000;stroke-width:1;" x1="447.5" x2="581.127" y1="74.8281" y2="74.8281"/><text fill="#000000" font-family="sans-serif" font-size="14" font-weight="bold" lengthAdjust="spacing" textLength="35.7998" x="452.5" y="91.3613">email</text><text fill="#000000" font-family="sans-serif" font-size="14" lengthAdjust="spacing" textLength="34.2344" x="499.0723" y="91.3613">string</text><line style="stroke:#000000;stroke-width:1;" x1="494.0723" x2="494.0723" y1="74.8281" y2="96.4375"/><rect fill="none" height="86.4375" rx="5" ry="5" style="stroke:#000000;stroke-width:1.5;" width="133.627" x="447.5" y="10"/><rect fill="#F1F1F1" height="86.4375" rx="5" ry="5" style="stroke:#F1F1F1;stroke-width:1.5;" width="133.627" x="447.5" y="114"/><text fill="#000000" font-family="sans-serif" font-size="14" font-weight="bold" lengthAdjust="spacing" textLength="12.4414" x="452.5" y="130.5332">id</text><text fill="#000000" font-family="sans-serif" font-size="14" lengthAdjust="spacing" textLength="77.0547" x="499.0723" y="130.5332">string&lt;uuid&gt;</text><line style="stroke:#000000;stroke-width:1;" x1="494.0723" x2="494.0723" y1="114" y2="135.6094"/><line style="stroke:#000000;stroke-width:1;" x1="447.5" x2="581.127" y1="135.6094" y2="135.6094"/><text fill="#000000" font-family="sans-serif" font-size="14" font-weight="bold" lengthAdjust="spacing" textLength="33.4346" x="452.5" y="152.1426">login</text><text fill="#000000" font-family="sans-serif" font-size="14" lengthAdjust="spacing" textLength="34.2344" x="499.0723" y="152.1426">string</text><line style="stroke:#000000;stroke-width:1;" x1="494.0723" x2="494.0723" y1="135.6094" y2="157.2188"/><line style="stroke:#000000;stroke-width:1;" x1="447.5" x2="581.127" y1="157.2188" y2="157.2188"/><text fill="#000000" font-family="sans-serif" font-size="14" font-weight="bold" lengthAdjust="spacing" textLength="36.5723" x="452.5" y="173.752">name</text><text fill="#000000" font-family="sans-serif" font-size="14" lengthAdjust="spacing" textLength="34.2344" x="499.0723" y="173.752">string</text><line style="stroke:#000000;stroke-width:1;" x1="494.0723" x2="494.0723" y1="157.2188" y2="178.8281"/><line style="stroke:#000000;stroke-width:1;" x1="447.5" x2="581.127" y1="178.8281" y2="178.8281"/><text fill="#000000" font-family="sans-serif" font-size="14" font-weight="bold" lengthAdjust="spacing" textLength="35.7998" x="452.5" y="195.3613">email</text><text fill="#000000" font-family="sans-serif" font-size="14" lengthAdjust="spacing" textLength="34.2344" x="499.0723" y="195.3613">string</text><line style="stroke:#000000;stroke-width:1;" x1="494.0723" x2="494.0723" y1="178.8281" y2="200.4375"/><rect fill="none" height="86.4375" rx="5" ry="5" style="stroke:#000000;stroke-width:1.5;" width="133.627" x="447.5" y="114"/><rect fill="#F1F1F1" height="43.2188" rx="5" ry="5" style="stroke:#F1F1F1;stroke-width:1.5;" width="200.5303" x="414" y="218.6094"/><text fill="#000000" font-family="sans-serif" font-size="14" font-weight="bold" lengthAdjust="spacing" textLength="68.4619" x="419" y="235.1426">ipAddress</text><text fill="#000000" font-family="sans-serif" font-size="14" lengthAdjust="spacing" textLength="76.2686" x="497.4619" y="235.1426">string&lt;ipv4&gt;</text><line style="stroke:#000000;stroke-width:1;" x1="492.4619" x2="492.4619" y1="218.6094" y2="240.2188"/><line style="stroke:#000000;stroke-width:1;" x1="414" x2="614.5303" y1="240.2188" y2="240.2188"/><text fill="#000000" font-family="sans-serif" font-size="14" font-weight="bold" lengthAdjust="spacing" textLength="67.6826" x="419" y="256.752">hostName</text><text fill="#000000" font-family="sans-serif" font-size="14" lengthAdjust="spacing" textLength="112.0684" x="497.4619" y="256.752">string&lt;hostname&gt;</text><line style="stroke:#000000;stroke-width:1;" x1="492.4619" x2="492.4619" y1="240.2188" y2="261.8281"/><rect fill="none" height="43.2188" rx="5" ry="5" style="stroke:#000000;stroke-width:1.5;" width="200.5303" x="414" y="218.6094"/><rect fill="#F1F1F1" height="86.4375" rx="5" ry="5" style="stroke:#F1F1F1;stroke-width:1.5;" width="202.8408" x="165" y="229"/><text fill="#000000" font-family="sans-serif" font-size="14" font-weight="bold" lengthAdjust="spacing" textLength="67.6895" x="170" y="245.5332">ExternalId</text><text fill="#000000" font-family="sans-serif" font-size="14" lengthAdjust="spacing" textLength="77.0547" x="253.9033" y="245.5332">string&lt;guid&gt;</text><line style="stroke:#000000;stroke-width:1;" x1="248.9033" x2="248.9033" y1="229" y2="250.6094"/><line style="stroke:#000000;stroke-width:1;" x1="165" x2="367.8408" y1="250.6094" y2="250.6094"/><text fill="#000000" font-family="sans-serif" font-size="14" font-weight="bold" lengthAdjust="spacing" textLength="58.3584" x="170" y="267.1426">Bespoke</text><text fill="#000000" font-family="sans-serif" font-size="14" lengthAdjust="spacing" textLength="100.4131" x="253.9033" y="267.1426">string&lt;boolean&gt;</text><line style="stroke:#000000;stroke-width:1;" x1="248.9033" x2="248.9033" y1="250.6094" y2="272.2188"/><line style="stroke:#000000;stroke-width:1;" x1="165" x2="367.8408" y1="272.2188" y2="272.2188"/><text fill="#000000" font-family="sans-serif" font-size="14" font-weight="bold" lengthAdjust="spacing" textLength="73.9033" x="170" y="288.752">TemplateId</text><text fill="#000000" font-family="sans-serif" font-size="14" lengthAdjust="spacing" textLength="108.9375" x="253.9033" y="288.752">string&lt;FrontifyId&gt;</text><line style="stroke:#000000;stroke-width:1;" x1="248.9033" x2="248.9033" y1="272.2188" y2="293.8281"/><line style="stroke:#000000;stroke-width:1;" x1="165" x2="367.8408" y1="293.8281" y2="293.8281"/><text fill="#000000" font-family="sans-serif" font-size="14" font-weight="bold" lengthAdjust="spacing" textLength="62.2344" x="170" y="310.3613">Brochure</text><text fill="#000000" font-family="sans-serif" font-size="14" lengthAdjust="spacing" textLength="11.6689" x="253.9033" y="310.3613">&#160;&#160;&#160;</text><line style="stroke:#000000;stroke-width:1;" x1="248.9033" x2="248.9033" y1="293.8281" y2="315.4375"/><rect fill="none" height="86.4375" rx="5" ry="5" style="stroke:#000000;stroke-width:1.5;" width="202.8408" x="165" y="229"/><rect fill="#F1F1F1" height="21.6094" rx="5" ry="5" style="stroke:#F1F1F1;stroke-width:1.5;" width="21.6689" x="503.5" y="293.2188"/><text fill="#000000" font-family="sans-serif" font-size="14" lengthAdjust="spacing" textLength="11.6689" x="508.5" y="309.752">&#160;&#160;&#160;</text><rect fill="none" height="21.6094" rx="5" ry="5" style="stroke:#000000;stroke-width:1.5;" width="21.6689" x="503.5" y="293.2188"/><rect fill="#F1F1F1" height="64.8281" rx="5" ry="5" style="stroke:#F1F1F1;stroke-width:1.5;" width="91.5859" x="652" y="271.7188"/><text fill="#000000" font-family="sans-serif" font-size="14" font-weight="bold" lengthAdjust="spacing" textLength="25.6826" x="657" y="288.252">Key</text><text fill="#000000" font-family="sans-serif" font-size="14" lengthAdjust="spacing" textLength="34.2344" x="704.3516" y="288.252">string</text><line style="stroke:#000000;stroke-width:1;" x1="699.3516" x2="699.3516" y1="271.7188" y2="293.3281"/><line style="stroke:#000000;stroke-width:1;" x1="652" x2="743.5859" y1="293.3281" y2="293.3281"/><text fill="#000000" font-family="sans-serif" font-size="14" font-weight="bold" lengthAdjust="spacing" textLength="32.6758" x="657" y="309.8613">Type</text><text fill="#000000" font-family="sans-serif" font-size="14" lengthAdjust="spacing" textLength="34.2344" x="704.3516" y="309.8613">string</text><line style="stroke:#000000;stroke-width:1;" x1="699.3516" x2="699.3516" y1="293.3281" y2="314.9375"/><line style="stroke:#000000;stroke-width:1;" x1="652" x2="743.5859" y1="314.9375" y2="314.9375"/><text fill="#000000" font-family="sans-serif" font-size="14" font-weight="bold" lengthAdjust="spacing" textLength="37.3516" x="657" y="331.4707">Value</text><text fill="#000000" font-family="sans-serif" font-size="14" lengthAdjust="spacing" textLength="34.2344" x="704.3516" y="331.4707">string</text><line style="stroke:#000000;stroke-width:1;" x1="699.3516" x2="699.3516" y1="314.9375" y2="336.5469"/><rect fill="none" height="64.8281" rx="5" ry="5" style="stroke:#000000;stroke-width:1.5;" width="91.5859" x="652" y="271.7188"/><rect fill="#F1F1F1" height="21.6094" rx="5" ry="5" style="stroke:#F1F1F1;stroke-width:1.5;" width="21.6689" x="255.5" y="333.2188"/><text fill="#000000" font-family="sans-serif" font-size="14" lengthAdjust="spacing" textLength="11.6689" x="260.5" y="349.752">&#160;&#160;&#160;</text><rect fill="none" height="21.6094" rx="5" ry="5" style="stroke:#000000;stroke-width:1.5;" width="21.6689" x="255.5" y="333.2188"/><rect fill="#F1F1F1" height="21.6094" rx="5" ry="5" style="stroke:#F1F1F1;stroke-width:1.5;" width="132.7998" x="448" y="333.2188"/><text fill="#000000" font-family="sans-serif" font-size="14" font-weight="bold" lengthAdjust="spacing" textLength="76.2275" x="453" y="349.752">Desctiption</text><text fill="#000000" font-family="sans-serif" font-size="14" lengthAdjust="spacing" textLength="36.5723" x="539.2275" y="349.752">String</text><line style="stroke:#000000;stroke-width:1;" x1="534.2275" x2="534.2275" y1="333.2188" y2="354.8281"/><rect fill="none" height="21.6094" rx="5" ry="5" style="stroke:#000000;stroke-width:1.5;" width="132.7998" x="448" y="333.2188"/><path d="M365,135.2188 L378,135.2188 C398.8273,135.2188 396.6605,116.7565 414,105.2188 C422.521,99.5488 431.7345,94.0251 441.0019,88.8245" fill="none" style="stroke:#000000;stroke-width:1;stroke-dasharray:3,3;"/><path d="M442.4928,91.5239 L443.0264,87.7063 L439.511,86.1251 L447.7504,85.0973 L442.4928,91.5239" fill="#000000"/><ellipse cx="365" cy="135.2188" fill="#000000" rx="3" ry="3" style="stroke:#000000;stroke-width:1;"/><path d="M365,157.2188 L378,157.2188 C398.2036,157.2188 420.0956,157.2188 440.2899,157.2188" fill="none" style="stroke:#000000;stroke-width:1;stroke-dasharray:3,3;"/><path d="M440.2899,160.2786 L442.5847,157.2188 L440.2899,154.1589 L447.9394,157.2188 L440.2899,160.2786" fill="#000000"/><ellipse cx="365" cy="157.2188" fill="#000000" rx="3" ry="3" style="stroke:#000000;stroke-width:1;"/><path d="M365,179.2188 L378,179.2188 C398.8273,179.2188 395.6991,199.2762 414,209.2188 C418.1401,211.468 422.467,213.5796 426.9006,215.5583" fill="none" style="stroke:#000000;stroke-width:1;stroke-dasharray:3,3;"/><path d="M425.7002,218.3756 L429.0135,216.4585 L428.1009,212.741 L433.9437,218.5591 L425.7002,218.3756" fill="#000000"/><ellipse cx="365" cy="179.2188" fill="#000000" rx="3" ry="3" style="stroke:#000000;stroke-width:1;"/><path d="M107,250.2188 L120,250.2188 C140.8273,250.2188 138.8983,232.1062 156,220.2188 C158.1233,218.7428 160.2835,217.2697 162.4726,215.8021" fill="none" style="stroke:#000000;stroke-width:1;stroke-dasharray:3,3;"/><path d="M164.2257,218.4607 L164.4665,214.4873 L160.7194,213.1436 L169.1189,211.4192 L164.2257,218.4607" fill="#000000"/><ellipse cx="107" cy="250.2188" fill="#000000" rx="3" ry="3" style="stroke:#000000;stroke-width:1;"/><path d="M513.1415,304.2188 L526.1415,304.2188 C549.1636,304.2188 603.2817,304.2188 644.5887,304.2188" fill="none" style="stroke:#000000;stroke-width:1;stroke-dasharray:3,3;"/><path d="M644.5887,307.2401 L646.8547,304.2188 L644.5887,301.1974 L652.1422,304.2188 L644.5887,307.2401" fill="#000000"/><ellipse cx="513.1415" cy="304.2188" fill="#000000" rx="3" ry="3" style="stroke:#000000;stroke-width:1;"/><path d="M356,304.2188 L369,304.2188 C414.8553,304.2188 468.8677,304.2188 496.2123,304.2188" fill="none" style="stroke:#000000;stroke-width:1;stroke-dasharray:3,3;"/><path d="M496.2123,307.2554 L498.4897,304.2188 L496.2123,301.1821 L503.8038,304.2188 L496.2123,307.2554" fill="#000000"/><ellipse cx="356" cy="304.2188" fill="#000000" rx="3" ry="3" style="stroke:#000000;stroke-width:1;"/><path d="M107,272.2188 L120,272.2188 C132.2894,272.2188 145.1608,272.2188 157.9527,272.2188" fill="none" style="stroke:#000000;stroke-width:1;stroke-dasharray:3,3;"/><path d="M157.9527,275.2258 L160.208,272.2188 L157.9527,269.2117 L165.4703,272.2188 L157.9527,275.2258" fill="#000000"/><ellipse cx="107" cy="272.2188" fill="#000000" rx="3" ry="3" style="stroke:#000000;stroke-width:1;"/><path d="M265.2549,344.2188 L278.2549,344.2188 C306.5253,344.2188 382.4103,344.2188 440.5184,344.2188" fill="none" style="stroke:#000000;stroke-width:1;stroke-dasharray:3,3;"/><path d="M440.5184,347.3041 L442.8324,344.2188 L440.5184,341.1334 L448.2318,344.2188 L440.5184,347.3041" fill="#000000"/><ellipse cx="265.2549" cy="344.2188" fill="#000000" rx="3" ry="3" style="stroke:#000000;stroke-width:1;"/><path d="M107,293.2188 L120,293.2188 C141.1146,293.2188 136.9452,315.1225 156,324.2188 C186.1329,338.6034 225.4385,342.6868 247.9831,343.8179" fill="none" style="stroke:#000000;stroke-width:1;stroke-dasharray:3,3;"/><path d="M247.8614,346.9242 L250.3128,343.9092 L248.1048,340.7117 L255.7488,344.1222 L247.8614,346.9242" fill="#000000"/><ellipse cx="107" cy="293.2188" fill="#000000" rx="3" ry="3" style="stroke:#000000;stroke-width:1;"/><!--SRC=[]--></g></svg>