<svg xmlns="http://www.w3.org/2000/svg" xmlns:xlink="http://www.w3.org/1999/xlink" contentStyleType="text/css" data-diagram-type="JSON" height="126px" preserveAspectRatio="none" style="width:665px;height:126px;background:#FFFFFF;" version="1.1" viewBox="0 0 665 126" width="665px" zoomAndPan="magnify"><defs/><g><rect fill="#F1F1F1" height="64.8281" rx="5" ry="5" style="stroke:#F1F1F1;stroke-width:1.5;" width="181.0752" x="10" y="24.1094"/><text fill="#000000" font-family="sans-serif" font-size="14" font-weight="bold" lengthAdjust="spacing" textLength="31.1104" x="15" y="40.6426">Host</text><text fill="#000000" font-family="sans-serif" font-size="14" lengthAdjust="spacing" textLength="11.6689" x="88.0205" y="40.6426">&#160;&#160;&#160;</text><line style="stroke:#000000;stroke-width:1;" x1="83.0205" x2="83.0205" y1="24.1094" y2="45.7188"/><line style="stroke:#000000;stroke-width:1;" x1="10" x2="191.0752" y1="45.7188" y2="45.7188"/><text fill="#000000" font-family="sans-serif" font-size="14" font-weight="bold" lengthAdjust="spacing" textLength="40.4277" x="15" y="62.252">Count</text><text fill="#000000" font-family="sans-serif" font-size="14" lengthAdjust="spacing" textLength="98.0547" x="88.0205" y="62.252">string&lt;number&gt;</text><line style="stroke:#000000;stroke-width:1;" x1="83.0205" x2="83.0205" y1="45.7188" y2="67.3281"/><line style="stroke:#000000;stroke-width:1;" x1="10" x2="191.0752" y1="67.3281" y2="67.3281"/><text fill="#000000" font-family="sans-serif" font-size="14" font-weight="bold" lengthAdjust="spacing" textLength="63.0205" x="15" y="83.8613">Requests</text><text fill="#000000" font-family="sans-serif" font-size="14" lengthAdjust="spacing" textLength="11.6689" x="88.0205" y="83.8613">&#160;&#160;&#160;</text><line style="stroke:#000000;stroke-width:1;" x1="83.0205" x2="83.0205" y1="67.3281" y2="88.9375"/><rect fill="none" height="64.8281" rx="5" ry="5" style="stroke:#000000;stroke-width:1.5;" width="181.0752" x="10" y="24.1094"/><rect fill="#F1F1F1" height="43.2188" rx="5" ry="5" style="stroke:#F1F1F1;stroke-width:1.5;" width="200.5303" x="228" y="10"/><text fill="#000000" font-family="sans-serif" font-size="14" font-weight="bold" lengthAdjust="spacing" textLength="68.4619" x="233" y="26.5332">ipAddress</text><text fill="#000000" font-family="sans-serif" font-size="14" lengthAdjust="spacing" textLength="76.2686" x="311.4619" y="26.5332">string&lt;ipv4&gt;</text><line style="stroke:#000000;stroke-width:1;" x1="306.4619" x2="306.4619" y1="10" y2="31.6094"/><line style="stroke:#000000;stroke-width:1;" x1="228" x2="428.5303" y1="31.6094" y2="31.6094"/><text fill="#000000" font-family="sans-serif" font-size="14" font-weight="bold" lengthAdjust="spacing" textLength="67.6826" x="233" y="48.1426">hostName</text><text fill="#000000" font-family="sans-serif" font-size="14" lengthAdjust="spacing" textLength="112.0684" x="311.4619" y="48.1426">string&lt;hostname&gt;</text><line style="stroke:#000000;stroke-width:1;" x1="306.4619" x2="306.4619" y1="31.6094" y2="53.2188"/><rect fill="none" height="43.2188" rx="5" ry="5" style="stroke:#000000;stroke-width:1.5;" width="200.5303" x="228" y="10"/><rect fill="#F1F1F1" height="21.6094" rx="5" ry="5" style="stroke:#F1F1F1;stroke-width:1.5;" width="21.6689" x="317.5" y="71.6094"/><text fill="#000000" font-family="sans-serif" font-size="14" lengthAdjust="spacing" textLength="11.6689" x="322.5" y="88.1426">&#160;&#160;&#160;</text><rect fill="none" height="21.6094" rx="5" ry="5" style="stroke:#000000;stroke-width:1.5;" width="21.6689" x="317.5" y="71.6094"/><rect fill="#F1F1F1" height="64.8281" rx="5" ry="5" style="stroke:#F1F1F1;stroke-width:1.5;" width="187.2822" x="466" y="50.1094"/><text fill="#000000" font-family="sans-serif" font-size="14" font-weight="bold" lengthAdjust="spacing" textLength="12.4414" x="471" y="66.6426">Id</text><text fill="#000000" font-family="sans-serif" font-size="14" lengthAdjust="spacing" textLength="34.2344" x="537.0137" y="66.6426">string</text><line style="stroke:#000000;stroke-width:1;" x1="532.0137" x2="532.0137" y1="50.1094" y2="71.7188"/><line style="stroke:#000000;stroke-width:1;" x1="466" x2="653.2822" y1="71.7188" y2="71.7188"/><text fill="#000000" font-family="sans-serif" font-size="14" font-weight="bold" lengthAdjust="spacing" textLength="38.1035" x="471" y="88.252">When</text><text fill="#000000" font-family="sans-serif" font-size="14" lengthAdjust="spacing" textLength="111.2686" x="537.0137" y="88.252">string&lt;DateTime&gt;</text><line style="stroke:#000000;stroke-width:1;" x1="532.0137" x2="532.0137" y1="71.7188" y2="93.3281"/><line style="stroke:#000000;stroke-width:1;" x1="466" x2="653.2822" y1="93.3281" y2="93.3281"/><text fill="#000000" font-family="sans-serif" font-size="14" font-weight="bold" lengthAdjust="spacing" textLength="56.0137" x="471" y="109.8613">Sourced</text><text fill="#000000" font-family="sans-serif" font-size="14" lengthAdjust="spacing" textLength="38.9033" x="537.0137" y="109.8613">Ext/int</text><line style="stroke:#000000;stroke-width:1;" x1="532.0137" x2="532.0137" y1="93.3281" y2="114.9375"/><rect fill="none" height="64.8281" rx="5" ry="5" style="stroke:#000000;stroke-width:1.5;" width="187.2822" x="466" y="50.1094"/><path d="M179,34.6094 L192,34.6094 C201.3176,34.6094 210.9934,34.5381 220.6957,34.4176" fill="none" style="stroke:#000000;stroke-width:1;stroke-dasharray:3,3;"/><path d="M220.7384,37.5297 L223.0298,34.3855 L220.6529,31.3054 L228.4761,34.3108 L220.7384,37.5297" fill="#000000"/><ellipse cx="179" cy="34.6094" fill="#000000" rx="3" ry="3" style="stroke:#000000;stroke-width:1;"/><path d="M327.0934,82.6094 L340.0934,82.6094 C361.8112,82.6094 411.9119,82.6094 458.709,82.6094" fill="none" style="stroke:#000000;stroke-width:1;stroke-dasharray:3,3;"/><path d="M458.709,85.7211 L461.0428,82.6094 L458.709,79.4976 L466.4884,82.6094 L458.709,85.7211" fill="#000000"/><ellipse cx="327.0934" cy="82.6094" fill="#000000" rx="3" ry="3" style="stroke:#000000;stroke-width:1;"/><path d="M179,78.6094 L192,78.6094 C234.416,78.6094 284.241,80.5774 310.2122,81.7526" fill="none" style="stroke:#000000;stroke-width:1;stroke-dasharray:3,3;"/><path d="M310.0721,84.7744 L312.4786,81.8576 L310.3523,78.7308 L317.7667,82.1028 L310.0721,84.7744" fill="#000000"/><ellipse cx="179" cy="78.6094" fill="#000000" rx="3" ry="3" style="stroke:#000000;stroke-width:1;"/><!--SRC=[NP5FJm8n4CNl_HIJdY1HX1MGD8OWVmAINKDOn8FnKDWADT2kxUn6O_ZkTakMDVRKUVtDcvVfm28t-66r8Zy4tA4pRP6oS-45cJuaYH7MKaOj6gbszpBDstrwLJ5xr_J4Zw922aKvfKyzTJh3TAGpvUoXn5Hst0XJUj6b-Co4HKk1mUl5lWhZeSUaClWJmh-zx8Kgcal_CKUnaaMCVs2iCxCLtcdoXJVIfRe09tzx8oSo42hnoo6B0rVu78MG2sEbLj1g1CsWqxYhHQw8HGhD7hIwhDDbjpqOnYiedkkaDbs4OFqmI6IHQfEXww-JESyvBDqwN3m6HLLRHNM89wK84vLBezLHA2JpTNI6OAOnJZLwkDk-7afquusB1Uk8ZCKxpmxeMhSwSGjWC4fRGISW8LUxZE_S9A68_mNppM0w_0K0]--></g></svg>