<svg xmlns="http://www.w3.org/2000/svg" xmlns:xlink="http://www.w3.org/1999/xlink" contentStyleType="text/css" data-diagram-type="ACTIVITY" height="246px" preserveAspectRatio="none" style="width:321px;height:246px;background:#FFFFFF;" version="1.1" viewBox="0 0 321 246" width="321px" zoomAndPan="magnify"><defs/><g><rect fill="#F1F1F1" height="35.0938" rx="12.5" ry="12.5" style="stroke:#181818;stroke-width:0.5;" width="140.0586" x="90.6914" y="11"/><text fill="#000000" font-family="sans-serif" font-size="12" lengthAdjust="spacing" textLength="116.7246" x="104.0254" y="33.457">3, Complete Brochure</text><rect fill="none" height="84.7031" style="stroke:#000000;stroke-width:1.5;" width="178.7207" x="71.3604" y="56.0938"/><path d="M107.043,56.0938 L107.043,66.7031 L97.043,76.7031 L71.3604,76.7031" fill="none" style="stroke:#000000;stroke-width:1.5;"/><text fill="#000000" font-family="sans-serif" font-size="14" lengthAdjust="spacing" textLength="25.6826" x="74.3604" y="71.627">Hub</text><rect fill="#F1F1F1" height="35.0938" rx="12.5" ry="12.5" style="stroke:#181818;stroke-width:0.5;" width="158.7207" x="81.3604" y="93.7031"/><text fill="#000000" font-family="sans-serif" font-size="12" lengthAdjust="spacing" textLength="138.7207" x="91.3604" y="116.1602">HUB : Complete Brochure</text><rect fill="none" height="84.7031" style="stroke:#000000;stroke-width:1.5;" width="299.4414" x="11" y="150.7969"/><path d="M67.6826,150.7969 L67.6826,161.4063 L57.6826,171.4063 L11,171.4063" fill="none" style="stroke:#000000;stroke-width:1.5;"/><text fill="#000000" font-family="sans-serif" font-size="14" lengthAdjust="spacing" textLength="46.6826" x="14" y="166.3301">Service</text><rect fill="#F1F1F1" height="35.0938" rx="12.5" ry="12.5" style="stroke:#181818;stroke-width:0.5;" width="279.4414" x="21" y="188.4063"/><text fill="#000000" font-family="sans-serif" font-size="12" lengthAdjust="spacing" textLength="259.4414" x="31" y="210.8633">SVC : Mark datastore Brochure Object Complete</text><line style="stroke:#181818;stroke-width:1;" x1="160.7207" x2="160.7207" y1="46.0938" y2="93.7031"/><polygon fill="#181818" points="156.7207,83.7031,160.7207,93.7031,164.7207,83.7031,160.7207,87.7031" style="stroke:#181818;stroke-width:1;"/><line style="stroke:#181818;stroke-width:1;" x1="160.7207" x2="160.7207" y1="128.7969" y2="188.4063"/><polygon fill="#181818" points="156.7207,178.4063,160.7207,188.4063,164.7207,178.4063,160.7207,182.4063" style="stroke:#181818;stroke-width:1;"/><!--SRC=[Kr2mKZ3MKN3Epot8IIr9LN0goa_EA2rAjUPIK70loYyjKF0eJGAo5HIiF4ATW8gngdJDIm4hXciAJYqgoqnEXMWC3dC6QlHDBCfMI4aiIImkoIz2Q5VmJyfAJIw1cuji7000]--></g></svg>