<svg xmlns="http://www.w3.org/2000/svg" xmlns:xlink="http://www.w3.org/1999/xlink" contentStyleType="text/css" data-diagram-type="JSON" height="169px" preserveAspectRatio="none" style="width:616px;height:169px;background:#FFFFFF;" version="1.1" viewBox="0 0 616 169" width="616px" zoomAndPan="magnify"><defs/><g><rect fill="#F1F1F1" height="64.8281" rx="5" ry="5" style="stroke:#F1F1F1;stroke-width:1.5;" width="181.0752" x="10" y="56.7188"/><text fill="#000000" font-family="sans-serif" font-size="14" font-weight="bold" lengthAdjust="spacing" textLength="31.1309" x="15" y="73.252">User</text><text fill="#000000" font-family="sans-serif" font-size="14" lengthAdjust="spacing" textLength="11.6689" x="88.0205" y="73.252">&#160;&#160;&#160;</text><line style="stroke:#000000;stroke-width:1;" x1="83.0205" x2="83.0205" y1="56.7188" y2="78.3281"/><line style="stroke:#000000;stroke-width:1;" x1="10" x2="191.0752" y1="78.3281" y2="78.3281"/><text fill="#000000" font-family="sans-serif" font-size="14" font-weight="bold" lengthAdjust="spacing" textLength="40.4277" x="15" y="94.8613">Count</text><text fill="#000000" font-family="sans-serif" font-size="14" lengthAdjust="spacing" textLength="98.0547" x="88.0205" y="94.8613">string&lt;number&gt;</text><line style="stroke:#000000;stroke-width:1;" x1="83.0205" x2="83.0205" y1="78.3281" y2="99.9375"/><line style="stroke:#000000;stroke-width:1;" x1="10" x2="191.0752" y1="99.9375" y2="99.9375"/><text fill="#000000" font-family="sans-serif" font-size="14" font-weight="bold" lengthAdjust="spacing" textLength="63.0205" x="15" y="116.4707">Requests</text><text fill="#000000" font-family="sans-serif" font-size="14" lengthAdjust="spacing" textLength="11.6689" x="88.0205" y="116.4707">&#160;&#160;&#160;</text><line style="stroke:#000000;stroke-width:1;" x1="83.0205" x2="83.0205" y1="99.9375" y2="121.5469"/><rect fill="none" height="64.8281" rx="5" ry="5" style="stroke:#000000;stroke-width:1.5;" width="181.0752" x="10" y="56.7188"/><rect fill="#F1F1F1" height="86.4375" rx="5" ry="5" style="stroke:#F1F1F1;stroke-width:1.5;" width="133.627" x="228" y="10"/><text fill="#000000" font-family="sans-serif" font-size="14" font-weight="bold" lengthAdjust="spacing" textLength="12.4414" x="233" y="26.5332">id</text><text fill="#000000" font-family="sans-serif" font-size="14" lengthAdjust="spacing" textLength="77.0547" x="279.5723" y="26.5332">string&lt;uuid&gt;</text><line style="stroke:#000000;stroke-width:1;" x1="274.5723" x2="274.5723" y1="10" y2="31.6094"/><line style="stroke:#000000;stroke-width:1;" x1="228" x2="361.627" y1="31.6094" y2="31.6094"/><text fill="#000000" font-family="sans-serif" font-size="14" font-weight="bold" lengthAdjust="spacing" textLength="33.4346" x="233" y="48.1426">login</text><text fill="#000000" font-family="sans-serif" font-size="14" lengthAdjust="spacing" textLength="34.2344" x="279.5723" y="48.1426">string</text><line style="stroke:#000000;stroke-width:1;" x1="274.5723" x2="274.5723" y1="31.6094" y2="53.2188"/><line style="stroke:#000000;stroke-width:1;" x1="228" x2="361.627" y1="53.2188" y2="53.2188"/><text fill="#000000" font-family="sans-serif" font-size="14" font-weight="bold" lengthAdjust="spacing" textLength="36.5723" x="233" y="69.752">name</text><text fill="#000000" font-family="sans-serif" font-size="14" lengthAdjust="spacing" textLength="34.2344" x="279.5723" y="69.752">string</text><line style="stroke:#000000;stroke-width:1;" x1="274.5723" x2="274.5723" y1="53.2188" y2="74.8281"/><line style="stroke:#000000;stroke-width:1;" x1="228" x2="361.627" y1="74.8281" y2="74.8281"/><text fill="#000000" font-family="sans-serif" font-size="14" font-weight="bold" lengthAdjust="spacing" textLength="35.7998" x="233" y="91.3613">email</text><text fill="#000000" font-family="sans-serif" font-size="14" lengthAdjust="spacing" textLength="34.2344" x="279.5723" y="91.3613">string</text><line style="stroke:#000000;stroke-width:1;" x1="274.5723" x2="274.5723" y1="74.8281" y2="96.4375"/><rect fill="none" height="86.4375" rx="5" ry="5" style="stroke:#000000;stroke-width:1.5;" width="133.627" x="228" y="10"/><rect fill="#F1F1F1" height="21.6094" rx="5" ry="5" style="stroke:#F1F1F1;stroke-width:1.5;" width="21.6689" x="284" y="114.2188"/><text fill="#000000" font-family="sans-serif" font-size="14" lengthAdjust="spacing" textLength="11.6689" x="289" y="130.752">&#160;&#160;&#160;</text><rect fill="none" height="21.6094" rx="5" ry="5" style="stroke:#000000;stroke-width:1.5;" width="21.6689" x="284" y="114.2188"/><rect fill="#F1F1F1" height="64.8281" rx="5" ry="5" style="stroke:#F1F1F1;stroke-width:1.5;" width="205.9443" x="399" y="92.7188"/><text fill="#000000" font-family="sans-serif" font-size="14" font-weight="bold" lengthAdjust="spacing" textLength="12.4414" x="404" y="109.252">Id</text><text fill="#000000" font-family="sans-serif" font-size="14" lengthAdjust="spacing" textLength="34.2344" x="488.6758" y="109.252">string</text><line style="stroke:#000000;stroke-width:1;" x1="483.6758" x2="483.6758" y1="92.7188" y2="114.3281"/><line style="stroke:#000000;stroke-width:1;" x1="399" x2="604.9443" y1="114.3281" y2="114.3281"/><text fill="#000000" font-family="sans-serif" font-size="14" font-weight="bold" lengthAdjust="spacing" textLength="38.1035" x="404" y="130.8613">When</text><text fill="#000000" font-family="sans-serif" font-size="14" lengthAdjust="spacing" textLength="111.2686" x="488.6758" y="130.8613">string&lt;DateTime&gt;</text><line style="stroke:#000000;stroke-width:1;" x1="483.6758" x2="483.6758" y1="114.3281" y2="135.9375"/><line style="stroke:#000000;stroke-width:1;" x1="399" x2="604.9443" y1="135.9375" y2="135.9375"/><text fill="#000000" font-family="sans-serif" font-size="14" font-weight="bold" lengthAdjust="spacing" textLength="74.6758" x="404" y="152.4707">SourceApp</text><text fill="#000000" font-family="sans-serif" font-size="14" lengthAdjust="spacing" textLength="34.2344" x="488.6758" y="152.4707">string</text><line style="stroke:#000000;stroke-width:1;" x1="483.6758" x2="483.6758" y1="135.9375" y2="157.5469"/><rect fill="none" height="64.8281" rx="5" ry="5" style="stroke:#000000;stroke-width:1.5;" width="205.9443" x="399" y="92.7188"/><path d="M179,67.2188 L192,67.2188 C201.2826,67.2188 210.9948,66.6481 220.585,65.7373" fill="none" style="stroke:#000000;stroke-width:1;stroke-dasharray:3,3;"/><path d="M220.9046,68.799 L222.8813,65.4976 L220.2654,62.6755 L228.2394,64.9382 L220.9046,68.799" fill="#000000"/><ellipse cx="179" cy="67.2188" fill="#000000" rx="3" ry="3" style="stroke:#000000;stroke-width:1;"/><path d="M293.5755,125.2188 L306.5755,125.2188 C323.3575,125.2188 356.9606,125.2188 391.6084,125.2188" fill="none" style="stroke:#000000;stroke-width:1;stroke-dasharray:3,3;"/><path d="M391.6084,128.3677 L393.9701,125.2188 L391.6084,122.0698 L399.4807,125.2188 L391.6084,128.3677" fill="#000000"/><ellipse cx="293.5755" cy="125.2188" fill="#000000" rx="3" ry="3" style="stroke:#000000;stroke-width:1;"/><path d="M179,111.2188 L192,111.2188 C221.9924,111.2188 256.471,117.1759 276.8208,121.3184" fill="none" style="stroke:#000000;stroke-width:1;stroke-dasharray:3,3;"/><path d="M276.1854,124.3416 L279.0882,121.795 L277.4562,118.2952 L284.3787,122.9069 L276.1854,124.3416" fill="#000000"/><ellipse cx="179" cy="111.2188" fill="#000000" rx="3" ry="3" style="stroke:#000000;stroke-width:1;"/><!--SRC=[RP5RQm8n48NVyok6F2cqejjgPH6nNh0L5yHL-r3w4DtfDcKtsUQoK8h_lTc85yGyPVAToJcP3BHXodnhASWV0RVeMgEY8HmgVy8J2Y5GRHGNQSzQdlJftHbdCkM2dWINIB0SRnFC6Syka2VxWu2Ef1Nc37l2vbjKHrEwn1-BskWgrVlfodDWBtfDRXfxzlQ5ul99OsPmnNFiNmjZQTKEdulYEgbFwtSVP4y6A18_GhB8c33hQ0ubAisbW5OZQ0RjnbCjSaMC1JIxqEg4xKxuq8LXl88ArqbjkfY3zcwGyCffQuthhvCPAnaitJnSlX2gghQAwX1FZeSm4ILNKkGe39bjeeC8NgI92scykFDuF-J6sIiN2pOH6UCdivbnhJkPk4U5C2fQGJiWSoPIorBdX8BuRr2_8Ko7_m00]--></g></svg>