<svg xmlns="http://www.w3.org/2000/svg" xmlns:xlink="http://www.w3.org/1999/xlink" contentStyleType="text/css" data-diagram-type="JSON" height="417px" preserveAspectRatio="none" style="width:746px;height:417px;background:#FFFFFF;" version="1.1" viewBox="0 0 746 417" width="746px" zoomAndPan="magnify"><defs/><g><rect fill="#F1F1F1" height="86.4375" rx="5" ry="5" style="stroke:#F1F1F1;stroke-width:1.5;" width="98.5791" x="10" y="265"/><text fill="#000000" font-family="sans-serif" font-size="14" font-weight="bold" lengthAdjust="spacing" textLength="35.7656" x="15" y="281.5332">Audit</text><text fill="#000000" font-family="sans-serif" font-size="14" lengthAdjust="spacing" textLength="11.6689" x="91.9102" y="281.5332">&#160;&#160;&#160;</text><line style="stroke:#000000;stroke-width:1;" x1="86.9102" x2="86.9102" y1="265" y2="286.6094"/><line style="stroke:#000000;stroke-width:1;" x1="10" x2="108.5791" y1="286.6094" y2="286.6094"/><text fill="#000000" font-family="sans-serif" font-size="14" font-weight="bold" lengthAdjust="spacing" textLength="55.2344" x="15" y="303.1426">Request</text><text fill="#000000" font-family="sans-serif" font-size="14" lengthAdjust="spacing" textLength="11.6689" x="91.9102" y="303.1426">&#160;&#160;&#160;</text><line style="stroke:#000000;stroke-width:1;" x1="86.9102" x2="86.9102" y1="286.6094" y2="308.2188"/><line style="stroke:#000000;stroke-width:1;" x1="10" x2="108.5791" y1="308.2188" y2="308.2188"/><text fill="#000000" font-family="sans-serif" font-size="14" font-weight="bold" lengthAdjust="spacing" textLength="66.9102" x="15" y="324.752">Response</text><text fill="#000000" font-family="sans-serif" font-size="14" lengthAdjust="spacing" textLength="11.6689" x="91.9102" y="324.752">&#160;&#160;&#160;</text><line style="stroke:#000000;stroke-width:1;" x1="86.9102" x2="86.9102" y1="308.2188" y2="329.8281"/><line style="stroke:#000000;stroke-width:1;" x1="10" x2="108.5791" y1="329.8281" y2="329.8281"/><text fill="#000000" font-family="sans-serif" font-size="14" font-weight="bold" lengthAdjust="spacing" textLength="34.2344" x="15" y="346.3613">Error</text><text fill="#000000" font-family="sans-serif" font-size="14" lengthAdjust="spacing" textLength="11.6689" x="91.9102" y="346.3613">&#160;&#160;&#160;</text><line style="stroke:#000000;stroke-width:1;" x1="86.9102" x2="86.9102" y1="329.8281" y2="351.4375"/><rect fill="none" height="86.4375" rx="5" ry="5" style="stroke:#000000;stroke-width:1.5;" width="98.5791" x="10" y="265"/><rect fill="#F1F1F1" height="108.0469" rx="5" ry="5" style="stroke:#F1F1F1;stroke-width:1.5;" width="220.7373" x="146" y="103.1953"/><text fill="#000000" font-family="sans-serif" font-size="14" font-weight="bold" lengthAdjust="spacing" textLength="73.124" x="151" y="119.7285">sourceApp</text><text fill="#000000" font-family="sans-serif" font-size="14" lengthAdjust="spacing" textLength="34.2344" x="257.4551" y="119.7285">string</text><line style="stroke:#000000;stroke-width:1;" x1="252.4551" x2="252.4551" y1="103.1953" y2="124.8047"/><line style="stroke:#000000;stroke-width:1;" x1="146" x2="366.7373" y1="124.8047" y2="124.8047"/><text fill="#000000" font-family="sans-serif" font-size="14" font-weight="bold" lengthAdjust="spacing" textLength="29.5723" x="151" y="141.3379">user</text><text fill="#000000" font-family="sans-serif" font-size="14" lengthAdjust="spacing" textLength="11.6689" x="257.4551" y="141.3379">&#160;&#160;&#160;</text><line style="stroke:#000000;stroke-width:1;" x1="252.4551" x2="252.4551" y1="124.8047" y2="146.4141"/><line style="stroke:#000000;stroke-width:1;" x1="146" x2="366.7373" y1="146.4141" y2="146.4141"/><text fill="#000000" font-family="sans-serif" font-size="14" font-weight="bold" lengthAdjust="spacing" textLength="96.4551" x="151" y="162.9473">impersonating</text><text fill="#000000" font-family="sans-serif" font-size="14" lengthAdjust="spacing" textLength="11.6689" x="257.4551" y="162.9473">&#160;&#160;&#160;</text><line style="stroke:#000000;stroke-width:1;" x1="252.4551" x2="252.4551" y1="146.4141" y2="168.0234"/><line style="stroke:#000000;stroke-width:1;" x1="146" x2="366.7373" y1="168.0234" y2="168.0234"/><text fill="#000000" font-family="sans-serif" font-size="14" font-weight="bold" lengthAdjust="spacing" textLength="29.5518" x="151" y="184.5566">host</text><text fill="#000000" font-family="sans-serif" font-size="14" lengthAdjust="spacing" textLength="11.6689" x="257.4551" y="184.5566">&#160;&#160;&#160;</text><line style="stroke:#000000;stroke-width:1;" x1="252.4551" x2="252.4551" y1="168.0234" y2="189.6328"/><line style="stroke:#000000;stroke-width:1;" x1="146" x2="366.7373" y1="189.6328" y2="189.6328"/><text fill="#000000" font-family="sans-serif" font-size="14" font-weight="bold" lengthAdjust="spacing" textLength="70.0205" x="151" y="206.166">timestamp</text><text fill="#000000" font-family="sans-serif" font-size="14" lengthAdjust="spacing" textLength="104.2822" x="257.4551" y="206.166">string&lt;datetime&gt;</text><line style="stroke:#000000;stroke-width:1;" x1="252.4551" x2="252.4551" y1="189.6328" y2="211.2422"/><rect fill="none" height="108.0469" rx="5" ry="5" style="stroke:#000000;stroke-width:1.5;" width="220.7373" x="146" y="103.1953"/><rect fill="#F1F1F1" height="86.4375" rx="5" ry="5" style="stroke:#F1F1F1;stroke-width:1.5;" width="133.627" x="438" y="10"/><text fill="#000000" font-family="sans-serif" font-size="14" font-weight="bold" lengthAdjust="spacing" textLength="12.4414" x="443" y="26.5332">id</text><text fill="#000000" font-family="sans-serif" font-size="14" lengthAdjust="spacing" textLength="77.0547" x="489.5723" y="26.5332">string&lt;uuid&gt;</text><line style="stroke:#000000;stroke-width:1;" x1="484.5723" x2="484.5723" y1="10" y2="31.6094"/><line style="stroke:#000000;stroke-width:1;" x1="438" x2="571.627" y1="31.6094" y2="31.6094"/><text fill="#000000" font-family="sans-serif" font-size="14" font-weight="bold" lengthAdjust="spacing" textLength="33.4346" x="443" y="48.1426">login</text><text fill="#000000" font-family="sans-serif" font-size="14" lengthAdjust="spacing" textLength="34.2344" x="489.5723" y="48.1426">string</text><line style="stroke:#000000;stroke-width:1;" x1="484.5723" x2="484.5723" y1="31.6094" y2="53.2188"/><line style="stroke:#000000;stroke-width:1;" x1="438" x2="571.627" y1="53.2188" y2="53.2188"/><text fill="#000000" font-family="sans-serif" font-size="14" font-weight="bold" lengthAdjust="spacing" textLength="36.5723" x="443" y="69.752">name</text><text fill="#000000" font-family="sans-serif" font-size="14" lengthAdjust="spacing" textLength="34.2344" x="489.5723" y="69.752">string</text><line style="stroke:#000000;stroke-width:1;" x1="484.5723" x2="484.5723" y1="53.2188" y2="74.8281"/><line style="stroke:#000000;stroke-width:1;" x1="438" x2="571.627" y1="74.8281" y2="74.8281"/><text fill="#000000" font-family="sans-serif" font-size="14" font-weight="bold" lengthAdjust="spacing" textLength="35.7998" x="443" y="91.3613">email</text><text fill="#000000" font-family="sans-serif" font-size="14" lengthAdjust="spacing" textLength="34.2344" x="489.5723" y="91.3613">string</text><line style="stroke:#000000;stroke-width:1;" x1="484.5723" x2="484.5723" y1="74.8281" y2="96.4375"/><rect fill="none" height="86.4375" rx="5" ry="5" style="stroke:#000000;stroke-width:1.5;" width="133.627" x="438" y="10"/><rect fill="#F1F1F1" height="86.4375" rx="5" ry="5" style="stroke:#F1F1F1;stroke-width:1.5;" width="133.627" x="438" y="114"/><text fill="#000000" font-family="sans-serif" font-size="14" font-weight="bold" lengthAdjust="spacing" textLength="12.4414" x="443" y="130.5332">id</text><text fill="#000000" font-family="sans-serif" font-size="14" lengthAdjust="spacing" textLength="77.0547" x="489.5723" y="130.5332">string&lt;uuid&gt;</text><line style="stroke:#000000;stroke-width:1;" x1="484.5723" x2="484.5723" y1="114" y2="135.6094"/><line style="stroke:#000000;stroke-width:1;" x1="438" x2="571.627" y1="135.6094" y2="135.6094"/><text fill="#000000" font-family="sans-serif" font-size="14" font-weight="bold" lengthAdjust="spacing" textLength="33.4346" x="443" y="152.1426">login</text><text fill="#000000" font-family="sans-serif" font-size="14" lengthAdjust="spacing" textLength="34.2344" x="489.5723" y="152.1426">string</text><line style="stroke:#000000;stroke-width:1;" x1="484.5723" x2="484.5723" y1="135.6094" y2="157.2188"/><line style="stroke:#000000;stroke-width:1;" x1="438" x2="571.627" y1="157.2188" y2="157.2188"/><text fill="#000000" font-family="sans-serif" font-size="14" font-weight="bold" lengthAdjust="spacing" textLength="36.5723" x="443" y="173.752">name</text><text fill="#000000" font-family="sans-serif" font-size="14" lengthAdjust="spacing" textLength="34.2344" x="489.5723" y="173.752">string</text><line style="stroke:#000000;stroke-width:1;" x1="484.5723" x2="484.5723" y1="157.2188" y2="178.8281"/><line style="stroke:#000000;stroke-width:1;" x1="438" x2="571.627" y1="178.8281" y2="178.8281"/><text fill="#000000" font-family="sans-serif" font-size="14" font-weight="bold" lengthAdjust="spacing" textLength="35.7998" x="443" y="195.3613">email</text><text fill="#000000" font-family="sans-serif" font-size="14" lengthAdjust="spacing" textLength="34.2344" x="489.5723" y="195.3613">string</text><line style="stroke:#000000;stroke-width:1;" x1="484.5723" x2="484.5723" y1="178.8281" y2="200.4375"/><rect fill="none" height="86.4375" rx="5" ry="5" style="stroke:#000000;stroke-width:1.5;" width="133.627" x="438" y="114"/><rect fill="#F1F1F1" height="43.2188" rx="5" ry="5" style="stroke:#F1F1F1;stroke-width:1.5;" width="200.5303" x="404.5" y="218.6094"/><text fill="#000000" font-family="sans-serif" font-size="14" font-weight="bold" lengthAdjust="spacing" textLength="68.4619" x="409.5" y="235.1426">ipAddress</text><text fill="#000000" font-family="sans-serif" font-size="14" lengthAdjust="spacing" textLength="76.2686" x="487.9619" y="235.1426">string&lt;ipv4&gt;</text><line style="stroke:#000000;stroke-width:1;" x1="482.9619" x2="482.9619" y1="218.6094" y2="240.2188"/><line style="stroke:#000000;stroke-width:1;" x1="404.5" x2="605.0303" y1="240.2188" y2="240.2188"/><text fill="#000000" font-family="sans-serif" font-size="14" font-weight="bold" lengthAdjust="spacing" textLength="67.6826" x="409.5" y="256.752">hostName</text><text fill="#000000" font-family="sans-serif" font-size="14" lengthAdjust="spacing" textLength="112.0684" x="487.9619" y="256.752">string&lt;hostname&gt;</text><line style="stroke:#000000;stroke-width:1;" x1="482.9619" x2="482.9619" y1="240.2188" y2="261.8281"/><rect fill="none" height="43.2188" rx="5" ry="5" style="stroke:#000000;stroke-width:1.5;" width="200.5303" x="404.5" y="218.6094"/><rect fill="#F1F1F1" height="86.4375" rx="5" ry="5" style="stroke:#F1F1F1;stroke-width:1.5;" width="202.8408" x="155" y="229"/><text fill="#000000" font-family="sans-serif" font-size="14" font-weight="bold" lengthAdjust="spacing" textLength="12.4414" x="160" y="245.5332">Id</text><text fill="#000000" font-family="sans-serif" font-size="14" lengthAdjust="spacing" textLength="85.5859" x="243.9033" y="245.5332">string&lt;GUID&gt;</text><line style="stroke:#000000;stroke-width:1;" x1="238.9033" x2="238.9033" y1="229" y2="250.6094"/><line style="stroke:#000000;stroke-width:1;" x1="155" x2="357.8408" y1="250.6094" y2="250.6094"/><text fill="#000000" font-family="sans-serif" font-size="14" font-weight="bold" lengthAdjust="spacing" textLength="52.1104" x="160" y="267.1426">Custom</text><text fill="#000000" font-family="sans-serif" font-size="14" lengthAdjust="spacing" textLength="100.4131" x="243.9033" y="267.1426">string&lt;boolean&gt;</text><line style="stroke:#000000;stroke-width:1;" x1="238.9033" x2="238.9033" y1="250.6094" y2="272.2188"/><line style="stroke:#000000;stroke-width:1;" x1="155" x2="357.8408" y1="272.2188" y2="272.2188"/><text fill="#000000" font-family="sans-serif" font-size="14" font-weight="bold" lengthAdjust="spacing" textLength="73.9033" x="160" y="288.752">TemplateId</text><text fill="#000000" font-family="sans-serif" font-size="14" lengthAdjust="spacing" textLength="108.9375" x="243.9033" y="288.752">string&lt;FrontifyId&gt;</text><line style="stroke:#000000;stroke-width:1;" x1="238.9033" x2="238.9033" y1="272.2188" y2="293.8281"/><line style="stroke:#000000;stroke-width:1;" x1="155" x2="357.8408" y1="293.8281" y2="293.8281"/><text fill="#000000" font-family="sans-serif" font-size="14" font-weight="bold" lengthAdjust="spacing" textLength="62.2344" x="160" y="310.3613">Brochure</text><text fill="#000000" font-family="sans-serif" font-size="14" lengthAdjust="spacing" textLength="11.6689" x="243.9033" y="310.3613">&#160;&#160;&#160;</text><line style="stroke:#000000;stroke-width:1;" x1="238.9033" x2="238.9033" y1="293.8281" y2="315.4375"/><rect fill="none" height="86.4375" rx="5" ry="5" style="stroke:#000000;stroke-width:1.5;" width="202.8408" x="155" y="229"/><rect fill="#F1F1F1" height="21.6094" rx="5" ry="5" style="stroke:#F1F1F1;stroke-width:1.5;" width="21.6689" x="494" y="282.2188"/><text fill="#000000" font-family="sans-serif" font-size="14" lengthAdjust="spacing" textLength="11.6689" x="499" y="298.752">&#160;&#160;&#160;</text><rect fill="none" height="21.6094" rx="5" ry="5" style="stroke:#000000;stroke-width:1.5;" width="21.6689" x="494" y="282.2188"/><rect fill="#F1F1F1" height="64.8281" rx="5" ry="5" style="stroke:#F1F1F1;stroke-width:1.5;" width="91.5859" x="643" y="260.7188"/><text fill="#000000" font-family="sans-serif" font-size="14" font-weight="bold" lengthAdjust="spacing" textLength="25.6826" x="648" y="277.252">Key</text><text fill="#000000" font-family="sans-serif" font-size="14" lengthAdjust="spacing" textLength="34.2344" x="695.3516" y="277.252">string</text><line style="stroke:#000000;stroke-width:1;" x1="690.3516" x2="690.3516" y1="260.7188" y2="282.3281"/><line style="stroke:#000000;stroke-width:1;" x1="643" x2="734.5859" y1="282.3281" y2="282.3281"/><text fill="#000000" font-family="sans-serif" font-size="14" font-weight="bold" lengthAdjust="spacing" textLength="32.6758" x="648" y="298.8613">Type</text><text fill="#000000" font-family="sans-serif" font-size="14" lengthAdjust="spacing" textLength="34.2344" x="695.3516" y="298.8613">string</text><line style="stroke:#000000;stroke-width:1;" x1="690.3516" x2="690.3516" y1="282.3281" y2="303.9375"/><line style="stroke:#000000;stroke-width:1;" x1="643" x2="734.5859" y1="303.9375" y2="303.9375"/><text fill="#000000" font-family="sans-serif" font-size="14" font-weight="bold" lengthAdjust="spacing" textLength="37.3516" x="648" y="320.4707">Value</text><text fill="#000000" font-family="sans-serif" font-size="14" lengthAdjust="spacing" textLength="34.2344" x="695.3516" y="320.4707">string</text><line style="stroke:#000000;stroke-width:1;" x1="690.3516" x2="690.3516" y1="303.9375" y2="325.5469"/><rect fill="none" height="64.8281" rx="5" ry="5" style="stroke:#000000;stroke-width:1.5;" width="91.5859" x="643" y="260.7188"/><rect fill="#F1F1F1" height="21.6094" rx="5" ry="5" style="stroke:#F1F1F1;stroke-width:1.5;" width="93.9033" x="209.5" y="333.2188"/><text fill="#000000" font-family="sans-serif" font-size="14" font-weight="bold" lengthAdjust="spacing" textLength="62.2344" x="214.5" y="349.752">Brochure</text><text fill="#000000" font-family="sans-serif" font-size="14" lengthAdjust="spacing" textLength="11.6689" x="286.7344" y="349.752">&#160;&#160;&#160;</text><line style="stroke:#000000;stroke-width:1;" x1="281.7344" x2="281.7344" y1="333.2188" y2="354.8281"/><rect fill="none" height="21.6094" rx="5" ry="5" style="stroke:#000000;stroke-width:1.5;" width="93.9033" x="209.5" y="333.2188"/><rect fill="#F1F1F1" height="43.2188" rx="5" ry="5" style="stroke:#F1F1F1;stroke-width:1.5;" width="202.0479" x="404" y="322.6094"/><text fill="#000000" font-family="sans-serif" font-size="14" font-weight="bold" lengthAdjust="spacing" textLength="96.4619" x="409" y="339.1426">DocManagerId</text><text fill="#000000" font-family="sans-serif" font-size="14" lengthAdjust="spacing" textLength="85.5859" x="515.4619" y="339.1426">string&lt;GUID&gt;</text><line style="stroke:#000000;stroke-width:1;" x1="510.4619" x2="510.4619" y1="322.6094" y2="344.2188"/><line style="stroke:#000000;stroke-width:1;" x1="404" x2="606.0479" y1="344.2188" y2="344.2188"/><text fill="#000000" font-family="sans-serif" font-size="14" font-weight="bold" lengthAdjust="spacing" textLength="28.7725" x="409" y="360.752">URL</text><text fill="#000000" font-family="sans-serif" font-size="14" lengthAdjust="spacing" textLength="78.5928" x="515.4619" y="360.752">string&lt;URL&gt;</text><line style="stroke:#000000;stroke-width:1;" x1="510.4619" x2="510.4619" y1="344.2188" y2="365.8281"/><rect fill="none" height="43.2188" rx="5" ry="5" style="stroke:#000000;stroke-width:1.5;" width="202.0479" x="404" y="322.6094"/><rect fill="#F1F1F1" height="21.6094" rx="5" ry="5" style="stroke:#F1F1F1;stroke-width:1.5;" width="21.6689" x="245.5" y="378.2188"/><text fill="#000000" font-family="sans-serif" font-size="14" lengthAdjust="spacing" textLength="11.6689" x="250.5" y="394.752">&#160;&#160;&#160;</text><rect fill="none" height="21.6094" rx="5" ry="5" style="stroke:#000000;stroke-width:1.5;" width="21.6689" x="245.5" y="378.2188"/><rect fill="#F1F1F1" height="21.6094" rx="5" ry="5" style="stroke:#F1F1F1;stroke-width:1.5;" width="132.7998" x="438.5" y="384.2188"/><text fill="#000000" font-family="sans-serif" font-size="14" font-weight="bold" lengthAdjust="spacing" textLength="76.2275" x="443.5" y="400.752">Desctiption</text><text fill="#000000" font-family="sans-serif" font-size="14" lengthAdjust="spacing" textLength="36.5723" x="529.7275" y="400.752">String</text><line style="stroke:#000000;stroke-width:1;" x1="524.7275" x2="524.7275" y1="384.2188" y2="405.8281"/><rect fill="none" height="21.6094" rx="5" ry="5" style="stroke:#000000;stroke-width:1.5;" width="132.7998" x="438.5" y="384.2188"/><path d="M355,135.2188 L368,135.2188 C388.8273,135.2188 386.6488,116.7388 404,105.2188 C412.7764,99.3918 422.2859,93.7243 431.8361,88.4051" fill="none" style="stroke:#000000;stroke-width:1;stroke-dasharray:3,3;"/><path d="M433.2859,91.049 L433.819,87.3178 L430.3863,85.7612 L438.4458,84.7806 L433.2859,91.049" fill="#000000"/><ellipse cx="355" cy="135.2188" fill="#000000" rx="3" ry="3" style="stroke:#000000;stroke-width:1;"/><path d="M355,157.2188 L368,157.2188 C388.2779,157.2188 410.2503,157.2188 430.5189,157.2188" fill="none" style="stroke:#000000;stroke-width:1;stroke-dasharray:3,3;"/><path d="M430.5189,160.2898 L432.8222,157.2188 L430.5189,154.1477 L438.1965,157.2188 L430.5189,160.2898" fill="#000000"/><ellipse cx="355" cy="157.2188" fill="#000000" rx="3" ry="3" style="stroke:#000000;stroke-width:1;"/><path d="M355,179.2188 L368,179.2188 C388.8273,179.2188 385.6921,199.2891 404,209.2188 C408.1606,211.4753 412.509,213.5927 416.9645,215.5761" fill="none" style="stroke:#000000;stroke-width:1;stroke-dasharray:3,3;"/><path d="M415.7617,218.4073 L419.088,216.4782 L418.1673,212.7448 L424.0427,218.5831 L415.7617,218.4073" fill="#000000"/><ellipse cx="355" cy="179.2188" fill="#000000" rx="3" ry="3" style="stroke:#000000;stroke-width:1;"/><path d="M97,276.2188 L110,276.2188 C139.5881,276.2188 124.5492,240.5982 146,220.2188 C147.3961,218.8924 148.8252,217.5831 150.2835,216.2913" fill="none" style="stroke:#000000;stroke-width:1;stroke-dasharray:3,3;"/><path d="M152.2417,218.5959 L152.0119,214.8227 L148.3254,213.9868 L156.0449,211.3959 L152.2417,218.5959" fill="#000000"/><ellipse cx="97" cy="276.2188" fill="#000000" rx="3" ry="3" style="stroke:#000000;stroke-width:1;"/><path d="M503.672,293.2188 L516.672,293.2188 C539.8303,293.2188 594.3673,293.2188 635.8366,293.2188" fill="none" style="stroke:#000000;stroke-width:1;stroke-dasharray:3,3;"/><path d="M635.8366,296.251 L638.1108,293.2188 L635.8366,290.1865 L643.4172,293.2188 L635.8366,296.251" fill="#000000"/><ellipse cx="503.672" cy="293.2188" fill="#000000" rx="3" ry="3" style="stroke:#000000;stroke-width:1;"/><path d="M346,304.2188 L359,304.2188 C405.1447,304.2188 459.2878,298.6494 486.6837,295.4365" fill="none" style="stroke:#000000;stroke-width:1;stroke-dasharray:3,3;"/><path d="M487.0488,298.4785 L488.9652,295.1627 L486.3186,292.3945 L494.2887,294.5238 L487.0488,298.4785" fill="#000000"/><ellipse cx="346" cy="304.2188" fill="#000000" rx="3" ry="3" style="stroke:#000000;stroke-width:1;"/><path d="M97,297.2188 L110,297.2188 C122.3608,297.2188 135.2269,296.3374 147.9729,294.9057" fill="none" style="stroke:#000000;stroke-width:1;stroke-dasharray:3,3;"/><path d="M148.3345,297.9001 L150.2187,294.6345 L147.6112,291.9113 L155.4588,294.0016 L148.3345,297.9001" fill="#000000"/><ellipse cx="97" cy="297.2188" fill="#000000" rx="3" ry="3" style="stroke:#000000;stroke-width:1;"/><path d="M292,344.2188 L305,344.2188 C334.7743,344.2188 367.0481,344.2188 396.7854,344.2188" fill="none" style="stroke:#000000;stroke-width:1;stroke-dasharray:3,3;"/><path d="M396.7854,347.2198 L399.0362,344.2188 L396.7854,341.2177 L404.288,344.2188 L396.7854,347.2198" fill="#000000"/><ellipse cx="292" cy="344.2188" fill="#000000" rx="3" ry="3" style="stroke:#000000;stroke-width:1;"/><path d="M97,319.2188 L110,319.2188 C114.7314,319.2188 162.2852,327.483 201.8558,334.5084" fill="none" style="stroke:#000000;stroke-width:1;stroke-dasharray:3,3;"/><path d="M201.3015,337.6254 L204.1935,334.9241 L202.4101,331.3913 L209.6484,335.8941 L201.3015,337.6254" fill="#000000"/><ellipse cx="97" cy="319.2188" fill="#000000" rx="3" ry="3" style="stroke:#000000;stroke-width:1;"/><path d="M255.2815,389.1771 L268.2777,389.4921 C296.6505,390.18 372.887,392.0281 431.1485,393.4405" fill="none" style="stroke:#000000;stroke-width:1;stroke-dasharray:3,3;"/><path d="M431.0736,396.5337 L433.4684,393.4968 L431.2235,390.3474 L438.8814,393.628 L431.0736,396.5337" fill="#000000"/><ellipse cx="255.2815" cy="389.1771" fill="#000000" rx="3" ry="3" style="stroke:#000000;stroke-width:1;"/><path d="M97,340.2188 L110,340.2188 C129.2296,340.2188 128.3316,356.6289 146,364.2188 C176.9542,377.5159 215.9773,384.2311 238.2483,387.2058" fill="none" style="stroke:#000000;stroke-width:1;stroke-dasharray:3,3;"/><path d="M237.8631,390.2712 L240.5473,387.4947 L238.6334,384.1404 L245.9118,388.1687 L237.8631,390.2712" fill="#000000"/><ellipse cx="97" cy="340.2188" fill="#000000" rx="3" ry="3" style="stroke:#000000;stroke-width:1;"/><!--SRC=[pLJBRjim4BppAnOwsK0Rn6xi1a8GnA-wJgqYyEjIvC286uU5HB9y6302_tj9ENQerCcvEWZOtLdEx2ob6sEfjh-D5EIPW7-IdcFS9YdimofbfDCvzfJowSHOpSKw-VHQTWPrhQ7ASfR04Nxb76VNKLC5AUIQYvDdLcL1Ito_YYNbHLG-LdUHD5ugr7uuQWFa_zJu98tt-wqorMDCep59Uf37rURY7tcX-MUbuG0BcQ3g-ZIRvINwdPVHBgyOjHZoBoqly6I6Vvp71ekYop1XKUTuEHd6cfA1CrQMiQiFKXP8HGsrm58LdhHsrZSjXUMFsqbj2KbVo_p9wU3ohzhipr0BFVG7Rj_THM3TAloelgA5mrFRgamvHlTlJ39A2eFHvNgLN7TkAFEC2hf6_R67ozaqAllekCfTZNgajTI1u-1Bp8KcjrnPBaMrZ7bjfFqvz-55TkG61Ql-0EIkeC8kiobi_5VZMw5rrZvlTyw-DZ8Vp571-IMqkccdctwvXFvy0Q7S98tntHJsVmbWF0X_S86wIMxfXiBCYN2zKWXHOv4rOJuw964aDjnllaHXoUqgsuFWkxHp9Mq5xbvyxdFhwRMN1QkC3F6HkiBwrbmoFrOA0zLgTzfaIiNQUODJG446qZFeRGhZ_by0]--></g></svg>